<svg width="83" height="39" viewBox="0 0 83 39" fill="none" xmlns="http://www.w3.org/2000/svg">
<path d="M6.35805 24.8699V29.585C6.87611 29.5542 7.33138 29.4155 7.75525 29.1998C8.16342 28.9841 8.50879 28.6759 8.80707 28.2753C9.10535 27.8746 9.30944 27.397 9.46643 26.8268C9.62341 26.2567 9.70191 25.5941 9.70191 24.8545H16.1855C16.1855 26.5803 15.9501 27.9979 15.4948 29.1074C15.0395 30.2168 14.3331 31.1567 13.3441 31.8964C14.3017 32.6206 15.0552 33.5605 15.6047 34.7162C16.1542 35.8719 16.4838 37.3049 16.5937 38.9845H9.71761C9.56062 35.6253 8.446 33.8995 6.37375 33.8225V38.9845H0V24.8545H6.35805V24.8699Z" fill="#3C3D38"/>
<path d="M31.0839 24.8699L36.0761 38.9999H29.718L28.886 36.6115H24.2077L23.3757 38.9999H17.002L21.9942 24.8699H31.0839ZM25.3695 33.2677H27.7243L26.5626 29.8161H26.5312L25.3695 33.2677Z" fill="#3C3D38"/>
<path d="M51.4766 29.6467C51.4766 30.5096 51.2568 31.3108 50.8329 32.0505C50.3934 32.7901 49.8125 33.3756 49.0747 33.7763C48.3368 34.1923 47.5362 34.408 46.6884 34.408C46.1233 34.408 45.5738 34.3156 45.0714 34.1307C44.5534 33.9304 44.0039 33.6222 43.4074 33.1753V38.9845H37.0493V24.8545H45.8721C46.3902 24.8545 46.8925 24.9007 47.3792 24.9932C47.8501 25.0856 48.3054 25.2243 48.7293 25.4092C49.1532 25.5941 49.5299 25.8253 49.8753 26.1026C50.2207 26.38 50.519 26.719 50.7544 27.0888C51.2254 27.8592 51.4766 28.7067 51.4766 29.6467ZM43.3917 30.9872C43.5801 31.0335 43.7527 31.0643 43.9254 31.0643C44.1609 31.0643 44.3807 31.0181 44.5691 30.941C44.7732 30.864 44.9302 30.7561 45.0714 30.6174C45.2127 30.4788 45.3226 30.3093 45.4011 30.1089C45.4796 29.9086 45.511 29.6929 45.511 29.4464C45.511 28.9687 45.3854 28.5835 45.1342 28.3215C44.8831 28.0596 44.522 27.9209 44.0667 27.9209H43.376V30.9872H43.3917Z" fill="#3C3D38"/>
<path d="M64.7735 24.8699V31.1259H61.571V38.9845H55.1972V31.1259H51.9946V24.8699H64.7735Z" fill="#3C3D38"/>
<path d="M78.0077 24.8699L82.9999 38.9999H76.6419L75.8098 36.6115H71.1316L70.2995 38.9999H63.9258L68.918 24.8699H78.0077ZM72.2933 33.2677H74.6481L73.4864 29.8161H73.455L72.2933 33.2677Z" fill="#3C3D38"/>
<path d="M0 22.3583H7.97503V9.13748H11.4288V22.3583H19.4038V4.69971H0V22.3583Z" fill="#3C3D38"/>
<path d="M37.2065 6.25601C36.7826 5.9016 36.2959 5.60883 35.7779 5.3777C35.2598 5.14657 34.6946 4.97707 34.0981 4.86921C33.5015 4.76134 32.8736 4.69971 32.2299 4.69971H21.1936V22.3583H29.1529V15.0853C29.9065 15.64 30.5972 16.0253 31.2409 16.2718C31.8845 16.5029 32.5596 16.6262 33.266 16.6262C34.3336 16.6262 35.3226 16.3643 36.2488 15.8404C37.1594 15.3165 37.8972 14.6076 38.4467 13.6831C38.9961 12.774 39.263 11.7724 39.263 10.6938C39.263 9.5227 38.949 8.4749 38.3211 7.50413C38.0071 7.01105 37.6303 6.61041 37.2065 6.25601ZM31.6648 11.2639C31.5706 11.5105 31.4293 11.7262 31.2566 11.8957C31.0839 12.0652 30.8641 12.2039 30.6129 12.2963C30.3618 12.3888 30.0949 12.435 29.8123 12.435C29.6082 12.435 29.3884 12.4042 29.1529 12.3425V8.52112H30.0164C30.5815 8.52112 31.0211 8.69062 31.3351 9.02962C31.6491 9.36861 31.8061 9.84629 31.8061 10.4472C31.8061 10.74 31.759 11.0174 31.6648 11.2639Z" fill="#3C3D38"/>
<path d="M50.9114 10.324C50.205 10.2007 49.6712 9.64599 49.577 8.95259C49.5613 8.82932 49.3415 6.71829 50.1108 4.45318C49.8596 4.43777 49.6084 4.42236 49.3415 4.42236C47.6461 4.42236 46.0762 4.8384 44.6476 5.65508C43.219 6.48716 42.1044 7.58119 41.3037 8.98341C40.5031 10.3856 40.1106 11.8957 40.1106 13.5136C40.1106 15.1778 40.5188 16.7033 41.3194 18.1055C42.1358 19.5231 43.2504 20.6171 44.6633 21.4338C46.0919 22.2505 47.6461 22.6511 49.3258 22.6511C51.0056 22.6511 52.5755 22.2505 54.0041 21.4338C55.4327 20.6171 56.5316 19.5077 57.348 18.1055C58.1643 16.7033 58.5568 15.1778 58.5568 13.529C58.5568 11.8957 58.1643 10.401 57.3794 9.02963C55.417 10.2161 53.3605 10.4318 52.1673 10.4318C51.4766 10.4164 51.0056 10.3394 50.9114 10.324ZM50.6288 14.3765C50.2835 14.7155 49.8596 14.885 49.3572 14.885C48.8549 14.885 48.431 14.7155 48.0856 14.3765C47.7403 14.0375 47.5833 13.5907 47.5833 13.036C47.5833 12.4812 47.756 12.0498 48.0856 11.7108C48.431 11.3564 48.8392 11.1869 49.3415 11.1869C49.6084 11.1869 49.8439 11.2331 50.0637 11.3256C50.2835 11.418 50.4719 11.5413 50.6288 11.7108C50.7858 11.8803 50.9114 12.0652 51.0056 12.2963C51.0998 12.5275 51.1469 12.774 51.1469 13.036C51.1469 13.5753 50.9742 14.0221 50.6288 14.3765Z" fill="#3C3D38"/>
<path d="M81.807 15.0237H80.7865V4.43774H64.2242C64.2242 6.37927 64.2085 8.04343 64.2242 9.44565C64.2242 9.44565 64.2556 11.495 63.8631 12.774C63.6904 13.3595 63.5178 13.8372 63.2195 14.1762C62.9369 14.5152 62.5601 14.7309 62.0892 14.8542C61.6182 14.9775 61.0373 15.0237 60.3309 15.0237H60.064H59.2791L60.378 22.4816H65.3545L66.1395 19.4923H76.1397L76.9246 22.4816H81.9011L83.0001 15.0237H81.807ZM71.116 11.2177C71.1474 10.8941 71.2102 9.06042 71.2102 9.06042H72.9685V15.5938H70.0171C70.1427 15.3164 70.2526 15.0237 70.3625 14.7155C70.6764 13.7447 70.9433 12.5737 71.116 11.2177Z" fill="#3C3D38"/>
<path d="M60.111 0C60.111 0 60.0012 0 59.8285 0C58.8237 0 55.4328 0.169498 53.2663 2.28052C50.7074 4.80759 51.1784 8.78309 51.1784 8.78309C51.1784 8.78309 51.5709 8.84473 52.1831 8.84473C53.5332 8.84473 55.9665 8.53655 57.9132 6.64125C60.7547 3.85223 60.111 0 60.111 0Z" fill="#F29900"/>
</svg>
