<svg width="257" height="256" viewBox="0 0 257 256" fill="none" xmlns="http://www.w3.org/2000/svg">
<circle cx="131.498" cy="129.931" r="125.502" fill="#D4145A"/>
<circle cx="131.498" cy="129.931" r="125.502" fill="url(#paint0_linear_922_5064)"/>
<path d="M72.0845 205.182L152.993 204.938L186.659 204.816L186.78 219.671L153.662 220.828L73.1194 223.689L72.0845 205.182Z" fill="#F0EFEC"/>
<path d="M81.3386 157.634C81.1559 157.695 81.0342 157.756 80.8515 157.817C76.103 159.765 70.9891 160.739 66.4232 163.113C65.8753 163.418 65.2665 163.783 65.0839 164.392C64.7795 165.305 65.5709 166.279 66.4232 166.705C70.4412 168.653 74.9463 167.923 79.1469 169.201C81.5212 169.932 83.8346 171.697 83.0432 174.498C82.7388 175.654 81.7647 176.324 81.3994 176.628C80.9733 176.933 80.4862 177.237 79.9383 177.541C77.7467 178.82 75.3724 179.672 73.059 180.525C72.3285 180.768 71.5979 181.072 70.8674 181.316C70.0759 181.62 69.1019 182.168 69.528 183.203C69.7716 183.751 70.2586 184.056 70.7456 184.36C71.9632 185.03 73.3634 185.456 74.581 186.186C79.1469 188.804 76.6509 192.944 72.7546 194.466C70.8065 195.257 68.6757 195.623 66.7276 196.414C64.6577 197.266 61.1267 199.641 63.2575 202.197C63.6837 202.684 64.1707 203.171 64.4142 203.78C64.8404 204.876 63.8663 206.094 62.7705 206.094C62.7096 206.094 62.6487 206.094 62.5878 206.094C59.7265 206.094 56.6217 204.267 54.4909 202.502C52.6646 200.919 51.2035 198.849 50.7773 196.475C50.0468 192.883 52.0558 189.656 54.3692 187.16C54.8562 186.673 55.4041 186.125 55.8912 185.638C58.3263 183.325 59.0569 182.351 58.3263 180.829C57.4131 179.003 54.8562 177.785 53.0907 176.933C50.5338 175.715 47.7943 174.863 45.1765 173.645C42.6804 172.489 40.2453 170.297 40.4888 167.314C40.7323 164.331 43.1066 161.774 45.6026 160.495C47.6116 159.46 49.8641 159.217 52.0558 158.913C53.3951 158.73 56.8652 158.486 56.9261 156.477C56.9261 155.808 56.4999 155.138 55.952 154.773C55.4041 154.347 54.7345 154.103 54.1257 153.92C49.3162 152.338 44.2024 151.911 39.5756 150.024C37.5057 149.172 35.4967 147.833 34.5835 145.702C33.9139 144.119 33.853 142.232 34.5227 140.649C35.375 138.762 37.1404 137.361 39.0886 136.631C42.8022 135.17 47.0637 135.352 50.96 135.291C53.6995 135.291 56.3782 135.352 59.0569 134.865C59.6657 134.744 60.3962 134.561 60.6397 134.013C60.9441 133.343 60.5788 132.613 60.1527 132.004C59.2395 130.786 58.0828 129.691 57.2914 128.351C56.3782 126.829 56.1956 125.003 57.0479 123.42C57.7784 122.081 58.996 121.168 60.3353 120.498C61.7964 119.828 63.6228 119.219 65.2665 119.463C66.3015 119.646 68.0669 120.559 67.519 121.898C67.3364 122.263 67.0929 122.629 66.8494 122.933C63.6228 127.438 67.2755 133.648 71.2935 136.083C75.1898 138.396 79.6948 139.188 83.5302 141.623C86.7568 143.693 88.5223 146.128 88.7049 148.867C89.1919 153.433 85.113 155.99 81.3386 157.634Z" fill="#F0EFEC"/>
<path opacity="0.44" d="M76.2246 207.433L76.9552 210.356L151.471 209.625L151.167 206.764L76.2246 207.433Z" fill="#DAD8D3"/>
<path d="M152.993 204.938L186.659 204.816L186.78 219.671L153.662 220.828L152.993 204.938Z" fill="#F9B233"/>
<path d="M159.202 208.954C159.202 208.954 159.202 209.015 159.202 208.954C159.141 209.563 158.35 210.476 157.985 209.624C157.985 209.563 157.924 209.502 157.924 209.441C157.924 209.076 158.167 208.528 158.533 208.406C158.959 208.284 159.202 208.589 159.202 208.954Z" fill="#FBD185"/>
<path d="M159.933 215.409C159.933 215.591 159.872 215.835 159.75 215.956C159.385 216.626 158.472 216.626 158.411 215.774C158.35 215.226 158.715 214.556 159.324 214.617C159.872 214.678 159.994 215.043 159.933 215.409Z" fill="#FBD185"/>
<path d="M173.144 215.955C173.144 216.138 173.083 216.382 172.961 216.503C172.596 217.173 171.683 217.173 171.622 216.321C171.561 215.773 171.926 215.103 172.535 215.164C173.022 215.286 173.205 215.59 173.144 215.955Z" fill="#FBD185"/>
<path d="M165.473 211.511C165.412 211.694 165.351 211.937 165.29 212.059C164.864 212.729 163.951 212.607 164.012 211.755C164.012 211.207 164.438 210.537 165.047 210.659C165.412 210.781 165.534 211.146 165.473 211.511Z" fill="#FBD185"/>
<path d="M179.962 213.582C180.023 213.582 180.023 213.521 179.962 213.582C180.266 213.095 181.423 212.608 181.362 213.521C181.362 213.582 181.362 213.643 181.301 213.704C181.179 214.069 180.692 214.435 180.266 214.374C179.901 214.313 179.84 213.887 179.962 213.582Z" fill="#FBD185"/>
<path d="M168.152 207.797C168.456 207.31 169.613 206.823 169.552 207.736C169.552 207.797 169.552 207.858 169.491 207.919C169.369 208.284 168.882 208.649 168.456 208.589C168.091 208.528 167.969 208.162 168.152 207.797Z" fill="#FBD185"/>
<path d="M165.108 217.965C165.412 217.478 166.569 216.991 166.508 217.904C166.508 217.965 166.508 218.026 166.447 218.087C166.325 218.452 165.838 218.817 165.412 218.757C165.047 218.696 164.925 218.269 165.108 217.965Z" fill="#FBD185"/>
<path d="M182.092 207.434C182.214 207.251 182.336 207.129 182.458 207.007C183.067 206.52 183.858 206.947 183.554 207.738C183.371 208.225 182.762 208.712 182.214 208.408C181.849 208.103 181.91 207.738 182.092 207.434Z" fill="#FBD185"/>
<path d="M175.396 208.652C175.518 208.469 175.64 208.347 175.822 208.225C176.492 207.799 177.223 208.286 176.857 209.017C176.614 209.504 175.944 209.93 175.457 209.565C175.153 209.321 175.214 208.956 175.396 208.652Z" fill="#FBD185"/>
<path opacity="0.44" d="M75.9816 213.642C75.9816 213.642 75.9207 213.642 75.9816 213.642C75.9207 214.25 75.1293 215.164 74.764 214.311C74.764 214.25 74.7031 214.189 74.7031 214.129C74.7031 213.763 74.9466 213.215 75.3119 213.094C75.6772 212.972 75.9816 213.276 75.9816 213.642Z" fill="#DAD8D3"/>
<path opacity="0.44" d="M78.7815 219.731C78.7815 219.913 78.7206 220.157 78.5989 220.279C78.2336 220.948 77.3204 220.948 77.2595 220.096C77.1986 219.548 77.5639 218.879 78.1727 218.939C78.6597 219 78.7815 219.366 78.7815 219.731Z" fill="#DAD8D3"/>
<path opacity="0.44" d="M93.4534 217.905C93.4534 218.087 93.3925 218.331 93.2707 218.453C92.9055 219.122 91.9923 219.122 91.9314 218.27C91.8705 217.722 92.2358 217.052 92.8446 217.113C93.3316 217.174 93.4534 217.539 93.4534 217.905Z" fill="#DAD8D3"/>
<path opacity="0.44" d="M83.6515 215.408C83.5906 215.59 83.5297 215.834 83.4689 215.956C83.0427 216.625 82.1295 216.504 82.1904 215.651C82.1904 215.103 82.6166 214.434 83.2253 214.556C83.5906 214.677 83.7124 215.043 83.6515 215.408Z" fill="#DAD8D3"/>
<path opacity="0.44" d="M88.766 214.008C89.0704 213.521 90.2271 213.034 90.1663 213.947C90.1663 214.008 90.1663 214.069 90.1054 214.13C89.9836 214.495 89.4966 214.86 89.0704 214.799C88.7052 214.739 88.5834 214.312 88.766 214.008Z" fill="#DAD8D3"/>
<path opacity="0.44" d="M85.3563 219.914C85.3563 219.853 85.4172 219.853 85.3563 219.914C85.6607 219.427 86.8174 218.94 86.7565 219.853C86.7565 219.914 86.7565 219.975 86.6956 220.036C86.5739 220.401 86.0869 220.767 85.6607 220.706C85.2954 220.645 85.2345 220.219 85.3563 219.914Z" fill="#DAD8D3"/>
<path d="M146.723 189.961C146.723 189.961 112.874 196.536 96.7412 189.23C96.7412 189.23 96.9847 155.26 98.0197 125.977C98.7502 105.643 99.9069 87.5624 101.733 84.6402C103.316 81.3527 107.091 78.3088 114.031 75.7519L113.97 55.6618L113.909 39.7724V35.3891V33.5019V31.432L127.729 31.0059L127.85 33.6237L127.911 35.9371L128.033 39.5289L128.581 53.5311L129.433 76.7868C129.433 76.7868 138.687 78.9785 141.365 83.3617C141.974 84.3967 142.583 90.4846 143.192 99.312C145.14 129.204 146.723 189.961 146.723 189.961Z" fill="#054F46"/>
<path d="M186.172 128.655L186.354 136.691L186.476 141.805C187.024 154.833 187.45 166.522 187.572 173.097C189.946 173.888 203.157 178.576 203.279 179.368C203.34 180.159 187.207 181.377 184.406 181.377C180.754 181.377 166.934 180.342 166.751 179.794C166.508 179.063 179.719 173.645 182.032 172.732C181.789 165.974 181.545 154.651 181.302 142.11L181.119 136.996L180.815 128.229C180.815 128.229 166.204 128.777 161.333 119.524C159.142 115.384 159.263 106.556 160.298 97.6071C161.759 84.5791 165.047 71.2466 165.717 71.8554C168.882 74.7167 177.649 75.569 183.432 75.0211C190.372 74.4123 195.304 73.0729 198.956 70.3943C199.322 70.0899 202.792 82.2657 204.801 94.8067C206.384 104.486 207.175 114.349 205.105 118.915C200.783 128.473 186.172 128.655 186.172 128.655Z" fill="#E6E7E8"/>
<path d="M113.3 80.3189C113.3 80.3189 104.899 84.4587 104.046 88.4767C101.794 98.7652 101.368 172.916 101.368 172.916L104.96 175.473C104.96 175.473 107.882 90.7292 109.343 88.0505C111.291 84.5196 119.631 79.6493 119.631 79.6493C119.631 79.6493 114.396 79.4666 113.3 80.3189Z" fill="#06C9B6"/>
<path opacity="0.34" d="M146.722 189.961C146.722 189.961 117.135 197.327 96.7407 189.23C96.7407 189.23 96.9842 155.26 98.0192 125.977C99.2368 125.186 100.637 124.333 102.037 123.42C103.62 122.385 105.325 121.35 107.09 120.194C119.57 112.34 135.825 102.478 143.13 99.373C145.139 129.204 146.722 189.961 146.722 189.961Z" fill="#00A79D"/>
<path d="M128.032 39.5292L128.58 53.5314C125.232 54.5054 117.683 55.2969 114.03 55.6013L113.969 39.7119C113.239 39.5901 112.812 39.5292 112.812 39.5292L112.873 35.4503C113.178 35.3895 113.543 35.3895 113.908 35.3895C117.987 35.0851 123.953 35.3895 127.85 35.8765C128.154 35.9374 128.458 35.9374 128.702 35.9982L128.885 39.1031C128.702 39.2857 128.398 39.4075 128.032 39.5292Z" fill="#036D64"/>
<path d="M128.945 39.1633C128.641 39.2851 128.337 39.4068 128.032 39.5286C123.771 40.8679 116.709 40.1374 113.969 39.7721C113.239 39.6504 112.812 39.5895 112.812 39.5895L112.873 35.5106V34.1104C112.995 33.8669 113.36 33.6233 113.908 33.5016C116.831 32.6493 125.11 33.3798 127.728 33.6233C128.215 33.6842 128.519 33.6842 128.519 33.6842L128.641 36.0585L128.945 39.1633Z" fill="#06C9B6"/>
<path opacity="0.42" d="M203.157 118.429C199.078 127.317 185.563 127.439 185.563 127.439L180.693 127.073C180.693 127.073 167.178 127.5 162.733 118.733C160.724 114.776 160.907 106.496 161.881 98.0341C170.343 98.3994 191.164 98.8864 203.096 95.7207C204.436 104.853 205.105 114.167 203.157 118.429Z" fill="#BE1622"/>
<path d="M205.105 118.975C200.783 128.411 186.172 128.655 186.172 128.655L180.876 128.29C180.876 128.29 166.265 128.838 161.394 119.584C159.203 115.444 159.324 106.617 160.359 97.6676C169.552 97.972 192.016 98.3982 204.862 94.8672C206.445 104.547 207.175 114.47 205.105 118.975Z" fill="#B73756"/>
<path opacity="0.61" d="M166.934 76.6641C166.934 76.6641 159.69 110.817 164.986 117.636C170.222 124.393 175.579 123.236 175.579 123.236C175.579 123.236 171.196 121.288 167.969 114.287C165.534 108.991 169.126 80.4386 169.126 80.4386L166.934 76.6641Z" fill="white"/>
<circle cx="47.3385" cy="47.2477" r="44.7477" fill="white"/>
<circle cx="47.3385" cy="47.2477" r="44.7477" stroke="#D4145A" stroke-width="5"/>
<circle cx="47.3385" cy="47.2477" r="44.7477" stroke="url(#paint1_linear_922_5064)" stroke-width="5"/>
<rect x="27.1929" y="33.3965" width="8.90161" height="46.7334" transform="rotate(-45 27.1929 33.3965)" fill="#D4145A"/>
<rect x="27.1929" y="33.3965" width="8.90161" height="46.7334" transform="rotate(-45 27.1929 33.3965)" fill="url(#paint2_linear_922_5064)"/>
<rect x="60.2387" y="27.1016" width="8.90161" height="46.7334" transform="rotate(45 60.2387 27.1016)" fill="#D4145A"/>
<rect x="60.2387" y="27.1016" width="8.90161" height="46.7334" transform="rotate(45 60.2387 27.1016)" fill="url(#paint3_linear_922_5064)"/>
<defs>
<linearGradient id="paint0_linear_922_5064" x1="131.498" y1="4.42968" x2="131.498" y2="255.433" gradientUnits="userSpaceOnUse">
<stop stop-color="#F15722"/>
<stop offset="1" stop-color="#F29900"/>
</linearGradient>
<linearGradient id="paint1_linear_922_5064" x1="47.3385" y1="0" x2="47.3385" y2="94.4953" gradientUnits="userSpaceOnUse">
<stop stop-color="#F15722"/>
<stop offset="1" stop-color="#F29900"/>
</linearGradient>
<linearGradient id="paint2_linear_922_5064" x1="31.6437" y1="33.3965" x2="31.6437" y2="80.1299" gradientUnits="userSpaceOnUse">
<stop stop-color="#F15722"/>
<stop offset="1" stop-color="#F29900"/>
</linearGradient>
<linearGradient id="paint3_linear_922_5064" x1="64.6895" y1="27.1016" x2="64.6895" y2="73.835" gradientUnits="userSpaceOnUse">
<stop stop-color="#F15722"/>
<stop offset="1" stop-color="#F29900"/>
</linearGradient>
</defs>
</svg>
