<svg xmlns="http://www.w3.org/2000/svg" xmlns:xlink="http://www.w3.org/1999/xlink" width="1018px" height="189px" viewBox="0 0 1018 189" version="1.1">
    
    
    
    <g id="Page-1" stroke="none" stroke-width="1" fill="none" fill-rule="evenodd">
        <g id="Ресурс-5" fill="#E30613" fill-rule="nonzero">
            <polygon id="Path" points="542.98 156.69 542.98 31.58 621.98 31.58 621.98 60.64 575.92 60.64 575.92 156.69"/>
            <polygon id="Path" points="721.35 156.69 721.35 107.68 672.43 107.68 672.43 156.69 639.5 156.69 639.5 31.58 672.43 31.58 672.43 78.27 721.35 78.27 721.35 31.58 754.29 31.58 754.29 156.69"/>
            <polygon id="Path" points="906.96 31.58 906.96 60.63 945.44 60.63 945.44 156.69 978.39 156.69 978.39 60.63 1017.04 60.63 1017.04 31.58"/>
            <polygon id="Path" points="858.5 156.67 858.5 85.38 806.08 156.67 778.52 156.67 778.52 31.59 811.47 31.59 811.47 102.13 863.01 31.59 891.45 31.59 891.45 156.67"/>
            <polygon id="Path" points="353.7 156.69 353.7 82.33 320.82 121.61 287.94 82.33 287.94 156.69 255.01 156.69 255.01 31.58 287.5 31.58 320.82 74.6 354.15 31.58 386.64 31.58 386.64 156.69"/>
            <path d="M449.17,112.69 L479.79,112.69 L464.48,73.44 L449.17,112.69 Z M496.94,156.69 L490.1,139.15 L438.85,139.15 L432,156.68 L398.84,156.68 L449.51,31.58 L480,31.58 L530.67,156.68 L496.94,156.69 Z" id="Shape"/>
            <path d="M0,57 C0.076958251,25.5517016 25.5517016,0.076958251 57,0 L188.64,0 L188.64,29 L57,29 C41.5701213,29.0820029 29.0820029,41.5701213 29,57 L28.83,105.63 C27.5900207,118.458244 17.8532846,128.835879 5.13,130.89 L0,131.68 L0,57 Z" id="Path"/>
            <path d="M0,188.26 L0,159.26 L131.63,159.26 C147.055366,159.167189 159.537189,146.685366 159.63,131.26 L159.63,85.1 C159.701037,71.2681034 169.787058,59.5264848 183.45,57.37 L188.57,56.59 L188.57,131.26 C188.493042,162.708298 163.018298,188.183042 131.57,188.26 L0,188.26 Z" id="Path"/>
            <polygon id="Path" points="111.47 131.78 111.47 94.33 94.32 114.83 77.16 94.33 77.16 131.78 54.43 131.78 54.43 58.07 75.96 58.07 94.32 81.78 112.67 58.07 134.2 58.07 134.2 131.78"/>
        </g>
    </g>
</svg>