<svg width="150" height="36" viewBox="0 0 150 36" fill="none" xmlns="http://www.w3.org/2000/svg">
<path fill-rule="evenodd" clip-rule="evenodd" d="M39.2888 25.2763V11.059H50.8311V25.2763H48.0117V13.7764H42.1074V25.2763H39.2888ZM59.078 17.0836H57.4782C56.1451 17.0836 55.4782 17.5593 55.4782 18.4903C55.4782 19.4025 56.1266 19.8583 57.4217 19.8583C57.9936 19.8583 58.5452 19.8212 59.0783 19.726V17.0836H59.078ZM61.6878 14.917V25.2757H59.078V21.6816C58.5725 21.7737 58.0371 21.8948 57.3902 21.9137L55.2303 25.2757H52.2971L54.8771 21.5478C53.524 20.9776 52.8117 19.9923 52.8117 18.4524C52.8117 16.3423 54.3536 14.917 57.402 14.917H61.6878ZM79.3256 15.7912C80.1247 16.5705 80.5249 17.6352 80.5249 19.0225V25.2754L77.8398 25.2757V19.5163C77.8398 17.9392 77.0019 17.103 75.7632 17.103C74.4101 17.103 73.4777 18.0725 73.4777 19.5931V25.2765L70.7923 25.2763V19.5363C70.7923 17.9964 69.9729 17.1027 68.6971 17.1027C67.3833 17.1027 66.4307 18.0722 66.4307 19.6122V25.2763H63.7451V14.917H66.3734V16.3996C66.9638 15.3163 68.1823 14.6138 69.5348 14.6323C70.83 14.6323 72.0299 15.2598 72.5824 16.4569C73.3444 15.3163 74.7534 14.6323 76.2962 14.6323C77.535 14.6323 78.5438 15.0114 79.3253 15.7924L79.3256 15.7912ZM101.554 22.2154C102.087 21.6453 102.354 20.9425 102.354 20.1068C102.354 19.2696 102.087 18.5668 101.554 17.9957C101.021 17.4261 100.334 17.1406 99.4779 17.1406C98.6398 17.1406 97.9536 17.4261 97.4214 17.9957C96.8875 18.5668 96.6205 19.2693 96.6205 20.1068C96.6205 20.9425 96.8883 21.6458 97.4214 22.216C97.9544 22.7862 98.6401 23.0712 99.4779 23.0712C100.334 23.0712 101.021 22.7865 101.554 22.216V22.2154ZM103.611 16.2285C104.582 17.2739 105.058 18.5668 105.058 20.0874C105.058 21.6079 104.563 22.9 103.592 23.9462C102.621 24.9908 101.402 25.5224 99.9342 25.5224C98.6589 25.5224 97.4812 24.9663 96.6775 23.9819V29.5336H93.9922V14.917H96.6581V16.2762C97.5111 15.2146 98.6396 14.6517 99.9533 14.6517C101.42 14.6517 102.639 15.1834 103.611 16.2288L103.611 16.2285ZM111.592 23.0526C112.41 23.0526 113.077 22.7671 113.629 22.1969C114.182 21.6079 114.468 20.9048 114.468 20.0877C114.468 19.2699 114.182 18.5671 113.63 17.9969C113.077 17.4267 112.411 17.1418 111.592 17.1418C110.773 17.1418 110.087 17.4264 109.535 17.9969C108.983 18.5671 108.716 19.2705 108.716 20.0877C108.716 20.9048 108.983 21.6082 109.535 22.1969C110.087 22.7671 110.773 23.052 111.592 23.052L111.592 23.0526ZM107.592 16.2285C108.64 15.1637 109.973 14.632 111.592 14.632C113.21 14.632 114.544 15.1637 115.592 16.2285C116.639 17.2739 117.153 18.5668 117.153 20.0874C117.153 21.6264 116.639 22.9194 115.592 23.9648C114.544 25.0093 113.21 25.5424 111.592 25.5424C109.973 25.5424 108.64 25.0093 107.592 23.9648C106.544 22.9194 106.03 21.627 106.03 20.0874C106.03 18.5668 106.544 17.2739 107.592 16.2285ZM124.715 14.917H127.401V25.2763H124.715V21.7891C123.929 22.2373 123.078 22.4627 122.41 22.4627C121.173 22.4627 120.258 22.2345 119.439 21.6835C118.621 21.0945 118.164 19.9921 118.164 18.3948V14.9167L120.83 14.917V18.2057C120.83 19.4222 121.458 20.0303 122.716 20.0303C123.42 20.0303 124.021 19.9322 124.716 19.6548V14.9173L124.715 14.917ZM136.277 25.2763L132.144 20.4926V25.2763H129.458V14.9013H132.144V19.0116L135.915 14.917H139.306L134.677 19.715L139.573 25.2763H136.277ZM146.648 17.9772C146.096 17.3876 145.41 17.1027 144.572 17.1027C143.715 17.1027 143.029 17.3874 142.476 17.9772C141.943 18.5668 141.676 19.2693 141.676 20.0865C141.676 20.9231 141.943 21.6264 142.496 22.216C143.048 22.805 143.734 23.0897 144.572 23.0897C145.41 23.0897 146.096 22.805 146.648 22.216C147.2 21.6264 147.486 20.9231 147.486 20.0865C147.486 19.2693 147.2 18.5668 146.648 17.9772ZM147.448 14.917H150V25.2757H147.448V23.9077C146.556 24.9874 145.448 25.5233 144.134 25.5233C142.648 25.5233 141.41 25.0101 140.439 23.9648C139.468 22.9194 138.992 21.6079 138.992 20.0494C138.992 18.4903 139.487 17.198 140.458 16.1906C141.43 15.1645 142.668 14.6514 144.134 14.6514C145.429 14.6514 146.572 15.2388 147.448 16.2754V14.917ZM87.9541 12.3131C87.9541 11.4201 88.6588 10.7546 89.5727 10.7546C90.468 10.7546 91.1542 11.458 91.1542 12.3131C91.1542 13.2447 90.468 13.9286 89.5727 13.9286C88.6588 13.9286 87.9541 13.2447 87.9541 12.3131ZM84.6401 19.042H89.9161C89.6686 17.6917 88.6968 16.8754 87.3257 16.8754C85.9726 16.8754 84.9636 17.6917 84.6401 19.0411V19.042ZM85.4208 10.7549C86.3161 10.7549 87.0208 11.4583 87.0208 12.3134C87.0208 13.245 86.3354 13.9289 85.4208 13.9289C84.5061 13.9289 83.8207 13.245 83.8207 12.3134C83.8207 11.4583 84.5254 10.7549 85.4208 10.7549ZM92.4301 21.0377H84.6401C85.0208 22.5009 86.0306 23.2423 87.6683 23.2423C88.7918 23.2423 90.0431 22.8222 90.9918 22.0713L92.0729 23.7686C90.762 24.9933 89.2684 25.5039 87.5539 25.5039C85.7248 25.5039 84.3346 24.9722 83.3635 23.9268C82.3926 22.8815 81.9159 21.5885 81.9159 20.0874C81.9159 18.5098 82.4111 17.2174 83.4208 16.1914C84.4304 15.1645 85.7256 14.6509 87.3257 14.6509C88.8306 14.6509 90.0872 15.1261 91.0581 16.0576C92.0299 16.9892 92.525 18.2436 92.525 19.8586C92.525 20.22 92.4879 20.6199 92.4298 21.0377H92.4301Z" fill="#EB2316"/>
<path fill-rule="evenodd" clip-rule="evenodd" d="M17.506 0C7.85293 0 0 7.85294 0 17.506C0 27.1591 7.85293 35.012 17.506 35.012C27.1582 35.012 35.012 27.1591 35.012 17.506C35.012 7.85294 27.1582 0 17.506 0Z" fill="white"/>
<path fill-rule="evenodd" clip-rule="evenodd" d="M26.3405 4.94922C25.0043 8.37618 21.9625 9.08914 17.5566 9.08914C17.0836 9.08914 16.6152 9.08181 16.1633 9.07509L14.9075 9.0624C14.5475 9.0624 14.1847 9.06693 13.8273 9.08234C14.4444 7.56714 15.4296 6.53724 16.8318 5.9128C18.7866 5.04281 21.3278 5.03412 23.5703 5.02732C24.5473 5.02369 25.4826 5.02007 26.3405 4.94922Z" fill="#008F32"/>
<path fill-rule="evenodd" clip-rule="evenodd" d="M27.7129 6.04835C25.7366 10.3532 21.332 10.7845 17.5566 10.7845C16.7276 10.7845 15.9335 10.7646 15.1981 10.7601L14.2471 14.479C19.1171 10.5086 25.5573 14.4447 24.8688 20.4359C24.4049 24.471 21.5282 27.1097 18.4851 27.8682C15.1697 28.6949 11.4969 27.4576 9.84984 24.0793C9.67505 23.7224 9.37096 23.0072 9.25494 22.625L12.751 21.7269C12.8128 21.9284 12.9176 22.1231 13.0275 22.301C15.3681 26.0759 20.111 24.1881 20.6463 20.2721C21.1912 16.2884 15.6016 14.1663 13.0542 18.8224L9.95377 17.5011L9.90014 17.4771L11.3954 11.4747C11.4876 11.0478 11.7984 9.85608 11.852 9.66052C13.5421 3.44614 19.0091 3.3481 23.3944 3.33178C21.581 2.57697 19.5928 2.15942 17.5057 2.15942C9.02954 2.15942 2.15961 9.02959 2.15961 17.5055C2.15961 25.9815 9.02984 32.8517 17.5057 32.8517C25.9816 32.8517 32.8519 25.9815 32.8519 17.5055C32.8519 12.9492 30.8651 8.85934 27.7127 6.04865L27.7129 6.04835Z" fill="#EB2316"/>
</svg>
