<svg width="210" height="210" viewBox="0 0 210 210" fill="none" xmlns="http://www.w3.org/2000/svg">
<circle cx="105" cy="105" r="105" fill="#F39F15"/>
<circle cx="105" cy="105" r="105" fill="url(#paint0_linear_1079_3700)"/>
<circle cx="105" cy="105" r="105" fill="url(#paint1_linear_1079_3700)"/>
<mask id="mask0_1079_3700" style="mask-type:alpha" maskUnits="userSpaceOnUse" x="0" y="0" width="210" height="210">
<circle cx="105" cy="105" r="105" fill="#F39F15"/>
</mask>
<g mask="url(#mask0_1079_3700)">
<path d="M112.184 120.309C116.048 143.597 109.744 164.05 97.9484 166.075C86.1529 168.1 73.3405 150.685 69.4765 127.397C65.6124 104.108 71.9169 83.6554 83.7124 81.6304C95.5079 79.8078 108.32 97.0208 112.184 120.309Z" fill="#C67822"/>
<path d="M68.4596 115.044C68.4596 115.044 79.0349 103.704 92.0506 110.791C96.3214 113.424 100.185 115.246 95.5079 114.031C90.8304 112.816 73.3405 115.044 69.0697 121.119C68.8664 121.322 67.8495 117.879 68.4596 115.044Z" fill="#754C24"/>
<path d="M71.5101 134.889C71.5101 134.889 80.0517 122.941 93.0674 127.801C97.3382 129.624 101.202 130.839 96.7281 130.434C92.2539 129.826 75.9843 134.282 72.7303 140.559C72.7303 140.559 71.3067 137.522 71.5101 134.889Z" fill="#754C24"/>
<path d="M48.1223 158.786L39.5808 127.195L20.8706 113.02L16.3965 128.005L22.4976 150.686L48.1223 158.786Z" fill="#F4D6D8"/>
<path d="M69.3039 119.077L39.4766 127.16L48.1282 158.815L77.9555 150.731L69.3039 119.077Z" fill="#D4145A"/>
<path d="M74.1525 136.776L44.3252 144.855L48.1155 158.729L77.9429 150.649L74.1525 136.776Z" fill="#FF7BAC"/>
<path d="M20.8706 113.02L48.529 105.527L69.2729 119.095L39.5807 127.195L20.8706 113.02Z" fill="#9E005D"/>
<path d="M46.3348 97.6718L18.666 105.17L20.8022 112.986L48.471 105.488L46.3348 97.6718Z" fill="#D4145A"/>
<path d="M44.4619 144.814L19.0405 137.727L22.4978 150.687L48.1225 158.787L44.4619 144.814Z" fill="white"/>
<path d="M48.9357 112.006C50.5626 114.234 50.5626 117.271 48.5289 118.891C46.4952 120.309 43.648 119.701 41.8177 117.271C40.1907 115.044 40.1907 112.006 42.2244 110.386C44.2581 108.968 47.1053 109.576 48.9357 112.006Z" fill="black"/>
<path d="M50.5627 110.387C52.1897 112.615 51.9863 115.45 50.156 116.867C48.3256 118.285 45.4785 117.677 43.6481 115.45C42.0212 113.222 42.2245 110.387 44.0549 108.97C46.0886 107.552 48.9358 108.16 50.5627 110.387Z" fill="white"/>
<path opacity="0.2" d="M20.8709 144.813L19.854 140.966C19.854 140.966 41.0046 151.496 54.427 147.648C68.0529 144.003 74.9675 139.953 74.9675 139.953L76.1877 144.611C76.1877 144.813 44.4619 160.811 20.8709 144.813Z" fill="black"/>
<path d="M110.557 122.132C99.1684 141.572 70.4932 146.432 70.4932 146.432C70.4932 146.432 43.4449 156.558 23.7179 145.622C23.7179 145.622 13.5493 140.56 15.1763 144.812L54.0201 246.268L94.6943 235.332L135.979 224.194L117.879 117.272C116.862 112.614 110.557 122.132 110.557 122.132Z" fill="#B89562"/>
<path opacity="0.2" d="M86.3561 141.369C86.3561 141.369 80.0516 119.296 69.6797 120.511L76.3909 144.812C76.1876 144.812 80.0516 144.407 86.3561 141.369Z" fill="black"/>
<path d="M188.041 112.816C184.38 142.786 168.924 165.67 153.671 163.847C138.215 162.024 128.86 136.104 132.724 106.133C136.385 76.1623 151.841 53.2792 167.094 55.1017C182.347 56.9243 191.702 82.845 188.041 112.816Z" fill="#E0922E"/>
<path d="M135.978 90.3376C135.978 90.3376 153.265 80.2123 166.484 93.7802C170.755 98.6403 174.822 102.285 169.534 99.0453C164.247 95.8052 141.876 92.1601 134.351 98.2353C134.148 98.2353 134.351 93.5777 135.978 90.3376Z" fill="#754C24"/>
<path d="M132.521 115.854C132.521 115.854 147.367 104.311 161.603 114.841C166.281 118.892 170.551 121.524 165.06 119.297C159.569 117.069 138.215 116.664 131.708 123.144C131.911 123.347 131.301 119.094 132.521 115.854Z" fill="#754C24"/>
<path d="M95.1006 136.712L96.1174 94.5909L78.2208 70.6953L67.2388 87.3007L66.4253 117.677L95.1006 136.712Z" fill="#F4D6D8"/>
<path d="M96.0264 94.721L95.0234 136.627L134.466 137.563L135.469 95.657L96.0264 94.721Z" fill="#D4145A"/>
<path d="M95.6026 118.199L95.1621 136.621L134.604 137.556L135.045 119.134L95.6026 118.199Z" fill="#FF7BAC"/>
<path d="M78.2207 70.6953L115.031 71.5053L135.571 95.6035L96.1173 94.5909L78.2207 70.6953Z" fill="#9E005D"/>
<path d="M78.4199 60.1291L78.167 70.6562L115.169 71.5378L115.422 61.0106L78.4199 60.1291Z" fill="#D4145A"/>
<path d="M95.5073 118.285L66.832 100.262L66.4253 117.677L95.1006 136.713L95.5073 118.285Z" fill="white"/>
<path d="M113.2 79.4023C114.421 82.8449 113.2 86.4899 110.15 87.705C107.099 88.7175 103.845 86.895 102.422 83.4524C101.201 80.0098 102.422 76.3647 105.472 75.1497C108.523 74.1371 111.777 75.9597 113.2 79.4023Z" fill="black"/>
<path d="M115.844 78.1874C117.065 81.4275 115.844 85.0726 112.997 86.0851C110.15 87.0976 106.896 85.2751 105.676 81.8325C104.456 78.5924 105.676 74.9473 108.523 73.9348C111.37 72.9223 114.624 74.7448 115.844 78.1874Z" fill="white"/>
<path opacity="0.2" d="M66.6289 109.777L66.8323 104.512C66.8323 104.512 88.9997 124.965 106.896 125.572C124.793 125.977 134.961 123.547 134.961 123.547L134.758 129.825C134.758 129.825 89.8132 137.925 66.6289 109.777Z" fill="black"/>
<path d="M185.194 114.435C164.044 134.078 126.827 129.623 126.827 129.623C126.827 129.623 90.0166 132.255 69.6795 111.6C69.6795 111.6 59.1042 101.677 59.511 107.55L69.8829 246.468L123.979 247.683L178.89 248.898L195.973 110.79C196.583 105.12 185.194 114.435 185.194 114.435Z" fill="#E6BA7B"/>
<g clip-path="url(#clip0_1079_3700)">
<path d="M92.5581 178.3C92.6595 177.272 92.9131 176.296 93.4203 175.319C94.0797 173.982 95.0941 172.851 96.21 172.029C96.3114 171.926 96.5143 171.926 96.6664 171.978C96.8693 172.08 96.9708 172.337 96.8693 172.543L96.7679 172.646C96.1592 173.16 95.652 173.828 95.2463 174.599C95.0941 174.908 94.9927 175.216 94.8912 175.525L94.8405 175.679L94.9419 175.627C96.21 175.216 97.2751 174.291 97.9344 173.006C98.3909 172.029 98.5938 171.052 98.4416 170.024C98.4416 169.921 98.4416 169.87 98.4924 169.767C98.5938 169.562 98.8474 169.51 99.0503 169.562C99.101 169.613 99.1517 169.664 99.2024 169.716C99.9632 171.412 99.9632 173.417 99.101 175.216C98.2388 176.913 96.7679 178.095 95.0434 178.506C94.9419 178.506 94.8405 178.557 94.7391 178.609C94.6376 178.66 94.5362 178.763 94.4347 178.917L94.4855 179.02C94.4347 179.123 94.4347 179.226 94.4347 179.277C94.4347 179.277 94.4347 179.534 94.5362 179.74V179.843C94.5362 179.997 94.4347 180.1 94.2826 180.1C94.2319 180.1 94.1811 180.1 94.1304 180.048L92.8117 179.072C92.7103 178.969 92.6595 178.866 92.6088 178.712C92.5581 178.66 92.5581 178.352 92.5581 178.3Z" fill="white"/>
<path d="M92.5072 182.722C92.355 181.026 91.8985 179.329 91.087 177.736C89.9712 175.525 88.2974 173.623 86.4715 172.287C86.2686 172.132 85.9643 172.081 85.7614 172.235C85.4064 172.39 85.2542 172.852 85.4571 173.212C85.5078 173.263 85.5585 173.366 85.6092 173.418C86.6236 174.292 87.4859 175.371 88.1452 176.656C88.3988 177.17 88.551 177.684 88.7032 178.198L88.7539 178.404L88.551 178.353C86.4715 177.633 84.6456 176.142 83.5804 173.932C82.7689 172.287 82.4646 170.642 82.7182 168.945C82.7182 168.791 82.7182 168.688 82.6675 168.534C82.5153 168.174 82.1096 168.071 81.7545 168.226C81.6531 168.277 81.5516 168.38 81.5009 168.483C80.2836 171.259 80.1822 174.651 81.6531 177.633C83.0732 180.512 85.5585 182.414 88.3988 183.185C88.6017 183.236 88.7539 183.287 88.9061 183.339C89.1089 183.442 89.2611 183.596 89.4133 183.802L89.464 183.904C89.5147 184.059 89.5654 184.213 89.5654 184.367C89.5654 184.367 89.5654 184.83 89.4133 185.087C89.4133 185.138 89.4133 185.19 89.4133 185.241C89.4133 185.498 89.6161 185.652 89.819 185.652C89.9205 185.652 89.9712 185.601 90.0726 185.549L92.3043 183.904C92.5072 183.75 92.6086 183.545 92.6086 183.287C92.5579 183.287 92.5072 182.825 92.5072 182.722Z" fill="white"/>
<path d="M87.6887 165.657C87.5872 164.628 87.3336 163.652 86.8264 162.675C86.1671 161.338 85.1527 160.208 84.0368 159.385C83.9354 159.282 83.7325 159.282 83.5804 159.334C83.3775 159.436 83.276 159.694 83.3775 159.899L83.4789 160.002C84.0876 160.516 84.5948 161.184 85.0005 161.955C85.1527 162.264 85.2541 162.572 85.3556 162.881L85.4063 162.983L85.3048 162.932C84.0368 162.521 82.9717 161.596 82.3124 160.31C81.8559 159.334 81.653 158.357 81.8052 157.329C81.8052 157.226 81.8052 157.175 81.7544 157.072C81.653 156.866 81.3994 156.815 81.1965 156.866C81.1458 156.918 81.0951 156.969 81.0444 157.02C80.2836 158.717 80.2836 160.722 81.1458 162.521C82.008 164.217 83.4789 165.4 85.2034 165.811C85.3048 165.811 85.4063 165.862 85.5077 165.914C85.6092 165.965 85.7106 166.068 85.812 166.222L85.8628 166.273C85.9135 166.376 85.9135 166.479 85.9135 166.53C85.9135 166.53 85.9135 166.787 85.812 166.993V167.096C85.812 167.25 85.9135 167.353 86.0656 167.353C86.1164 167.353 86.1671 167.353 86.2178 167.302L87.5365 166.325C87.638 166.222 87.6887 166.119 87.7394 165.965C87.6887 165.965 87.6887 165.708 87.6887 165.657Z" fill="white"/>
<path d="M87.7391 170.078C87.8913 168.381 88.3478 166.685 89.1593 165.091C90.2244 162.881 91.9489 160.979 93.7748 159.642C93.9777 159.488 94.282 159.437 94.4849 159.591C94.8399 159.745 94.9921 160.208 94.7892 160.567C94.7385 160.619 94.6878 160.722 94.6371 160.773C93.6227 161.647 92.7604 162.726 92.1011 164.012C91.8475 164.526 91.6953 165.04 91.5431 165.554L91.4924 165.759L91.6953 165.708C93.7748 164.988 95.6007 163.498 96.6659 161.287C97.4774 159.642 97.7817 157.997 97.5281 156.301C97.5281 156.147 97.5281 156.044 97.5788 155.89C97.731 155.53 98.1368 155.427 98.4918 155.581C98.5932 155.633 98.6947 155.735 98.7454 155.838C99.9627 158.614 100.064 162.007 98.5932 164.988C97.1731 167.867 94.6878 169.769 91.8475 170.54C91.6446 170.592 91.4924 170.643 91.3403 170.694C91.1374 170.797 90.9852 170.951 90.8331 171.157L90.7823 171.26C90.7316 171.414 90.6809 171.568 90.6809 171.722C90.6809 171.722 90.6809 172.185 90.8331 172.442V172.596C90.8331 172.853 90.6302 173.008 90.4273 173.008C90.3259 173.008 90.2751 172.956 90.1737 172.905L87.942 171.26C87.7391 171.106 87.6377 170.9 87.6377 170.643C87.6884 170.643 87.7391 170.18 87.7391 170.078Z" fill="white"/>
<path d="M85.609 153.267C85.609 153.627 85.254 153.935 84.8482 153.935C84.4425 153.935 84.0874 153.627 84.0874 153.267V142.575C84.0874 142.215 84.4425 141.906 84.8482 141.906C85.254 141.906 85.609 142.215 85.609 142.575V153.267Z" fill="white"/>
<path d="M95.3981 153.267C95.3981 153.627 95.0431 153.935 94.6373 153.935C94.2316 153.935 93.8765 153.627 93.8765 153.267V142.575C93.8765 142.215 94.2316 141.906 94.6373 141.906C95.0431 141.906 95.3981 142.215 95.3981 142.575V153.267Z" fill="white"/>
<path d="M90.4781 156.711C90.4781 157.071 90.1231 157.379 89.7173 157.379C89.3116 157.379 88.9565 157.071 88.9565 156.711V142.575C88.9565 142.215 89.3116 141.906 89.7173 141.906C90.1231 141.906 90.4781 142.215 90.4781 142.575V156.711Z" fill="white"/>
<path d="M110.107 150.235C110.107 149.875 110.005 149.618 109.853 149.413C109.65 149.207 109.397 149.104 109.042 149.104V151.572C109.802 151.572 110.158 151.16 110.158 150.338V150.235H110.107ZM106.962 150.338C106.962 150.749 107.064 151.058 107.216 151.263C107.368 151.469 107.672 151.572 108.027 151.572V149.104C107.672 149.104 107.368 149.207 107.216 149.413C107.013 149.618 106.962 149.875 106.962 150.235V150.338ZM108.078 152.394C107.723 152.394 107.469 152.343 107.165 152.24C106.911 152.137 106.709 151.983 106.506 151.829C106.354 151.674 106.201 151.417 106.1 151.16C105.998 150.903 105.948 150.646 105.948 150.338V150.235C105.948 149.978 105.998 149.721 106.1 149.464C106.201 149.207 106.303 149.053 106.506 148.847C106.658 148.693 106.911 148.539 107.165 148.436C107.419 148.333 107.723 148.282 108.078 148.282V147.922H109.042V148.333C109.346 148.333 109.65 148.385 109.904 148.487C110.158 148.59 110.36 148.693 110.563 148.899C110.766 149.053 110.868 149.258 110.969 149.515C111.07 149.772 111.121 150.03 111.121 150.287V150.389C111.121 150.698 111.07 150.955 110.969 151.212C110.868 151.469 110.715 151.674 110.563 151.88C110.36 152.034 110.158 152.189 109.904 152.291C109.65 152.394 109.346 152.446 109.042 152.446V152.857H108.078V152.394Z" fill="white"/>
<path d="M113.81 151.879C113.962 151.879 114.114 151.879 114.215 151.828C114.367 151.776 114.469 151.673 114.57 151.57C114.672 151.468 114.773 151.313 114.824 151.108C114.875 150.902 114.925 150.697 114.925 150.388V150.234C114.925 149.977 114.875 149.771 114.824 149.566C114.773 149.411 114.672 149.257 114.57 149.154C114.469 149.052 114.367 148.949 114.215 148.897C114.063 148.846 113.962 148.846 113.81 148.846C113.657 148.846 113.505 148.846 113.404 148.897C113.252 148.949 113.15 149.052 113.049 149.154C112.947 149.257 112.846 149.411 112.795 149.566C112.744 149.72 112.694 149.977 112.694 150.234V150.388C112.694 150.645 112.744 150.902 112.795 151.108C112.846 151.313 112.947 151.468 113.049 151.57C113.15 151.673 113.252 151.776 113.404 151.828C113.505 151.828 113.657 151.879 113.81 151.879ZM113.81 152.701C113.556 152.701 113.252 152.65 112.998 152.599C112.744 152.496 112.542 152.393 112.339 152.187C112.136 151.982 111.984 151.776 111.882 151.468C111.781 151.159 111.73 150.851 111.73 150.44V150.285C111.73 149.874 111.781 149.566 111.882 149.257C111.984 149 112.136 148.743 112.339 148.589C112.542 148.435 112.744 148.281 112.998 148.178C113.252 148.075 113.505 148.023 113.81 148.023C114.063 148.023 114.367 148.075 114.621 148.178C114.875 148.281 115.078 148.383 115.28 148.589C115.483 148.743 115.635 149 115.737 149.257C115.838 149.514 115.889 149.874 115.889 150.285V150.44C115.889 150.851 115.838 151.211 115.737 151.468C115.635 151.776 115.483 151.982 115.28 152.187C115.078 152.393 114.875 152.496 114.621 152.599C114.317 152.65 114.063 152.701 113.81 152.701Z" fill="white"/>
<path d="M116.701 148.125H117.664V149.873H119.541V148.125H120.505V152.597H119.541V150.695H117.664V152.597H116.701V148.125Z" fill="white"/>
<path d="M124.156 151.826V148.947H122.888V149.307C122.888 149.873 122.838 150.387 122.787 150.798C122.736 151.209 122.635 151.569 122.533 151.878H124.156V151.826ZM121.113 151.826H121.62C121.671 151.672 121.722 151.518 121.773 151.261C121.823 151.055 121.823 150.849 121.874 150.592C121.925 150.335 121.925 150.13 121.925 149.873C121.925 149.616 121.925 149.359 121.925 149.153V148.125H125.069V151.826H125.526V153.471H124.664V152.649H121.925V153.471H121.062V151.826H121.113Z" fill="white"/>
<path d="M106.202 155.58H109.955V160.104H108.991V156.403H107.165V160.104H106.202V155.58Z" fill="white"/>
<path d="M112.541 157.739C112.897 157.739 113.099 157.688 113.252 157.585C113.404 157.482 113.454 157.277 113.454 157.071C113.454 156.865 113.404 156.66 113.252 156.557C113.099 156.454 112.897 156.403 112.541 156.403H111.882V157.739H112.541ZM110.969 155.58H112.694C113.302 155.58 113.759 155.734 114.012 155.991C114.317 156.248 114.469 156.608 114.469 157.071C114.469 157.534 114.317 157.893 114.012 158.15C113.708 158.407 113.252 158.562 112.694 158.562H111.933V160.104H110.969V155.58Z" fill="white"/>
<path d="M117.056 159.331C117.208 159.331 117.36 159.331 117.461 159.28C117.614 159.229 117.715 159.126 117.816 159.023C117.918 158.92 118.019 158.766 118.07 158.56C118.121 158.355 118.171 158.149 118.171 157.841V157.738C118.171 157.481 118.121 157.275 118.07 157.07C118.019 156.915 117.918 156.761 117.816 156.658C117.715 156.555 117.614 156.453 117.461 156.401C117.309 156.35 117.208 156.35 117.056 156.35C116.903 156.35 116.751 156.35 116.65 156.401C116.498 156.453 116.396 156.555 116.295 156.658C116.193 156.761 116.092 156.915 116.041 157.07C115.99 157.224 115.94 157.481 115.94 157.738V157.841C115.94 158.098 115.99 158.355 116.041 158.56C116.092 158.766 116.193 158.92 116.295 159.023C116.396 159.126 116.498 159.229 116.65 159.28C116.751 159.331 116.903 159.331 117.056 159.331ZM117.056 160.154C116.802 160.154 116.498 160.102 116.244 160C115.99 159.897 115.788 159.794 115.585 159.588C115.382 159.383 115.23 159.177 115.128 158.869C115.027 158.56 114.976 158.252 114.976 157.841V157.738C114.976 157.327 115.027 157.018 115.128 156.71C115.23 156.453 115.382 156.196 115.585 156.041C115.788 155.887 115.99 155.733 116.244 155.63C116.498 155.527 116.751 155.527 117.056 155.527C117.309 155.527 117.614 155.579 117.867 155.63C118.121 155.733 118.324 155.836 118.526 156.041C118.729 156.196 118.882 156.453 118.983 156.71C119.084 156.967 119.135 157.327 119.135 157.738V157.841C119.135 158.252 119.084 158.612 118.983 158.869C118.882 159.177 118.729 159.383 118.526 159.588C118.324 159.794 118.121 159.897 117.867 160C117.614 160.102 117.309 160.154 117.056 160.154Z" fill="white"/>
<path d="M122.432 159.281V156.403H121.164V156.762C121.164 157.328 121.113 157.842 121.062 158.253C121.012 158.664 120.91 159.024 120.809 159.333H122.432V159.281ZM119.439 159.281H119.947C119.997 159.127 120.048 158.973 120.099 158.716C120.149 158.51 120.2 158.305 120.2 158.048C120.251 157.791 120.251 157.585 120.251 157.328C120.251 157.071 120.251 156.814 120.251 156.608V155.58H123.396V159.281H123.852V160.926H122.99V160.104H120.251V160.926H119.389V159.281H119.439Z" fill="white"/>
<path d="M126.388 159.331C126.54 159.331 126.692 159.331 126.794 159.28C126.946 159.229 127.047 159.126 127.149 159.023C127.25 158.92 127.352 158.766 127.403 158.56C127.453 158.355 127.504 158.149 127.504 157.841V157.738C127.504 157.481 127.453 157.275 127.403 157.07C127.352 156.915 127.25 156.761 127.149 156.658C127.047 156.555 126.946 156.453 126.794 156.401C126.642 156.35 126.54 156.35 126.388 156.35C126.236 156.35 126.084 156.35 125.982 156.401C125.83 156.453 125.729 156.555 125.627 156.658C125.526 156.761 125.424 156.915 125.374 157.07C125.323 157.224 125.272 157.481 125.272 157.738V157.841C125.272 158.098 125.323 158.355 125.374 158.56C125.424 158.766 125.526 158.92 125.627 159.023C125.729 159.126 125.83 159.229 125.982 159.28C126.084 159.331 126.236 159.331 126.388 159.331ZM126.388 160.154C126.135 160.154 125.83 160.102 125.577 160C125.323 159.897 125.12 159.794 124.917 159.588C124.714 159.383 124.562 159.177 124.461 158.869C124.359 158.56 124.309 158.252 124.309 157.841V157.738C124.309 157.327 124.359 157.018 124.461 156.71C124.562 156.453 124.714 156.196 124.917 156.041C125.12 155.887 125.323 155.733 125.577 155.63C125.83 155.527 126.084 155.527 126.388 155.527C126.692 155.527 126.946 155.579 127.2 155.63C127.453 155.733 127.656 155.836 127.859 156.041C128.062 156.196 128.214 156.453 128.315 156.71C128.417 156.967 128.468 157.327 128.468 157.738V157.841C128.468 158.252 128.417 158.612 128.315 158.869C128.214 159.177 128.062 159.383 127.859 159.588C127.656 159.794 127.453 159.897 127.2 160C126.946 160.102 126.642 160.154 126.388 160.154Z" fill="white"/>
<path d="M131.105 159.333C131.41 159.333 131.612 159.281 131.714 159.178C131.815 159.076 131.866 158.921 131.866 158.716C131.866 158.51 131.815 158.356 131.714 158.253C131.612 158.15 131.41 158.099 131.105 158.099H130.243V159.333H131.105ZM131.004 157.431C131.257 157.431 131.46 157.379 131.562 157.276C131.663 157.174 131.714 157.019 131.714 156.865C131.714 156.711 131.663 156.557 131.562 156.454C131.46 156.351 131.257 156.3 131.004 156.3H130.243V157.431H131.004ZM129.279 155.58H131.156C131.663 155.58 132.018 155.683 132.272 155.889C132.525 156.094 132.627 156.403 132.627 156.762C132.627 157.019 132.576 157.174 132.475 157.379C132.373 157.533 132.221 157.688 132.018 157.739C132.272 157.791 132.475 157.945 132.627 158.099C132.779 158.305 132.83 158.51 132.83 158.819C132.83 159.024 132.779 159.178 132.728 159.333C132.678 159.487 132.576 159.641 132.475 159.744C132.373 159.847 132.17 159.95 131.967 160.001C131.765 160.052 131.511 160.104 131.257 160.104H129.279V155.58Z" fill="white"/>
<path d="M135.467 159.331C135.619 159.331 135.772 159.331 135.873 159.28C136.025 159.229 136.127 159.126 136.228 159.023C136.329 158.92 136.431 158.766 136.482 158.56C136.532 158.355 136.583 158.149 136.583 157.841V157.738C136.583 157.481 136.532 157.275 136.482 157.07C136.431 156.915 136.329 156.761 136.228 156.658C136.127 156.555 136.025 156.453 135.873 156.401C135.721 156.35 135.619 156.35 135.467 156.35C135.315 156.35 135.163 156.35 135.061 156.401C134.909 156.453 134.808 156.555 134.706 156.658C134.605 156.761 134.504 156.915 134.453 157.07C134.402 157.224 134.351 157.481 134.351 157.738V157.841C134.351 158.098 134.402 158.355 134.453 158.56C134.504 158.766 134.605 158.92 134.706 159.023C134.808 159.126 134.909 159.229 135.061 159.28C135.163 159.331 135.315 159.331 135.467 159.331ZM135.467 160.154C135.214 160.154 134.909 160.102 134.656 160C134.402 159.897 134.199 159.794 133.996 159.588C133.793 159.383 133.641 159.177 133.54 158.869C133.438 158.56 133.388 158.252 133.388 157.841V157.738C133.388 157.327 133.438 157.018 133.54 156.71C133.641 156.453 133.793 156.196 133.996 156.041C134.199 155.887 134.402 155.733 134.656 155.63C134.909 155.527 135.163 155.527 135.467 155.527C135.772 155.527 136.025 155.579 136.279 155.63C136.532 155.733 136.735 155.836 136.938 156.041C137.141 156.196 137.293 156.453 137.395 156.71C137.496 156.967 137.547 157.327 137.547 157.738V157.841C137.547 158.252 137.496 158.612 137.395 158.869C137.293 159.177 137.141 159.383 136.938 159.588C136.735 159.794 136.532 159.897 136.279 160C136.025 160.102 135.772 160.154 135.467 160.154Z" fill="white"/>
<path d="M138.307 160.157C138.257 160.157 138.257 160.157 138.206 160.157C138.155 160.157 138.104 160.157 138.054 160.157V159.283H138.155C138.257 159.283 138.358 159.283 138.409 159.231C138.51 159.18 138.561 159.077 138.612 158.923C138.662 158.769 138.713 158.512 138.713 158.203C138.713 157.895 138.764 157.432 138.764 156.918V155.633H142.01V160.105H141.046V156.404H139.626V157.021C139.626 157.689 139.575 158.255 139.525 158.666C139.474 159.077 139.372 159.385 139.271 159.642C139.17 159.848 139.017 160.002 138.865 160.105C138.713 160.105 138.51 160.157 138.307 160.157Z" fill="white"/>
<path d="M144.597 159.281C144.952 159.281 145.155 159.23 145.307 159.127C145.459 159.024 145.51 158.87 145.51 158.664C145.51 158.459 145.459 158.305 145.307 158.202C145.155 158.099 144.952 158.048 144.597 158.048H143.937V159.333H144.597V159.281ZM142.974 155.58H143.937V157.174H144.698C145.002 157.174 145.256 157.225 145.459 157.276C145.662 157.328 145.865 157.431 146.017 157.585C146.169 157.688 146.27 157.842 146.321 158.048C146.372 158.202 146.423 158.407 146.423 158.664C146.423 158.87 146.372 159.076 146.321 159.281C146.27 159.436 146.118 159.59 146.017 159.744C145.865 159.847 145.662 159.95 145.459 160.052C145.256 160.104 144.952 160.155 144.698 160.155H142.974V155.58Z" fill="white"/>
<path d="M148.959 160.154C148.654 160.154 148.401 160.102 148.147 160C147.893 159.897 147.691 159.794 147.538 159.588C147.386 159.383 147.234 159.177 147.133 158.869C147.031 158.56 146.98 158.252 146.98 157.841V157.738C146.98 157.327 147.031 157.018 147.133 156.71C147.234 156.453 147.386 156.196 147.538 156.041C147.741 155.887 147.944 155.733 148.147 155.63C148.401 155.527 148.654 155.527 148.908 155.527C149.161 155.527 149.415 155.579 149.618 155.63C149.821 155.682 150.024 155.784 150.176 155.887C150.328 155.99 150.48 156.196 150.582 156.35C150.683 156.555 150.734 156.761 150.784 157.07H149.821C149.77 156.812 149.669 156.607 149.516 156.504C149.364 156.401 149.161 156.35 148.959 156.35C148.806 156.35 148.705 156.35 148.604 156.401C148.502 156.453 148.401 156.504 148.299 156.658C148.198 156.761 148.147 156.915 148.096 157.07C148.046 157.224 147.995 157.481 147.995 157.738V157.841C147.995 158.098 148.046 158.355 148.096 158.56C148.147 158.766 148.248 158.92 148.35 159.023C148.451 159.126 148.553 159.229 148.654 159.28C148.756 159.331 148.908 159.331 149.009 159.331C149.263 159.331 149.466 159.28 149.618 159.126C149.77 158.972 149.872 158.817 149.922 158.56H150.886C150.886 158.817 150.784 159.074 150.683 159.28C150.582 159.486 150.429 159.64 150.277 159.743C150.125 159.845 149.922 159.948 149.719 160C149.466 160.154 149.212 160.154 148.959 160.154Z" fill="white"/>
<path d="M152.509 156.403H151.089V155.58H154.893V156.403H153.473V160.104H152.509V156.403Z" fill="white"/>
<path d="M157.327 159.333C157.632 159.333 157.835 159.281 157.936 159.179C158.037 159.076 158.088 158.922 158.088 158.716C158.088 158.51 158.037 158.356 157.936 158.253C157.835 158.15 157.632 158.099 157.327 158.099H156.465V159.333H157.327ZM157.226 157.431C157.48 157.431 157.682 157.379 157.784 157.277C157.885 157.174 157.936 157.019 157.936 156.865C157.936 156.711 157.885 156.557 157.784 156.454C157.682 156.351 157.48 156.3 157.226 156.3H156.465V157.431H157.226ZM155.501 155.58H157.378C157.885 155.58 158.24 155.683 158.494 155.889C158.748 156.094 158.849 156.403 158.849 156.762C158.849 157.019 158.798 157.174 158.697 157.379C158.595 157.534 158.443 157.688 158.24 157.739C158.494 157.791 158.697 157.945 158.849 158.099C159.001 158.305 159.052 158.51 159.052 158.819C159.052 159.024 159.001 159.179 158.95 159.333C158.9 159.487 158.798 159.641 158.697 159.744C158.595 159.847 158.393 159.95 158.19 160.001C157.987 160.052 157.733 160.104 157.48 160.104H155.501V155.58Z" fill="white"/>
<path d="M159.813 155.58H160.777V158.562L162.704 155.58H163.617V160.104H162.653V157.122L160.726 160.104H159.813V155.58Z" fill="white"/>
<path d="M165.493 157.018C165.493 157.121 165.493 157.224 165.544 157.275C165.595 157.378 165.645 157.429 165.696 157.481C165.747 157.532 165.848 157.584 166 157.584C166.102 157.635 166.254 157.635 166.457 157.635H167.116V156.35H166.457C166.305 156.35 166.153 156.35 166 156.401C165.899 156.453 165.798 156.453 165.696 156.504C165.645 156.555 165.595 156.607 165.544 156.71C165.493 156.812 165.493 156.915 165.493 157.018ZM165.493 158.355C165.189 158.252 164.935 158.098 164.783 157.841C164.631 157.635 164.53 157.327 164.53 157.018C164.53 156.812 164.58 156.607 164.631 156.401C164.682 156.247 164.783 156.093 164.935 155.939C165.087 155.836 165.24 155.733 165.443 155.63C165.645 155.579 165.899 155.527 166.153 155.527H167.979V160H167.015V158.355H166.305L165.341 160H164.327L165.493 158.355Z" fill="white"/>
<path d="M113.252 174.652C114.773 174.652 115.483 173.624 115.483 172.184C115.483 170.745 114.722 169.768 113.302 169.768H111.121V174.652H113.252ZM106.81 166.016H114.164C117.613 166.016 119.947 168.586 119.947 172.184C119.947 175.783 117.613 178.404 114.164 178.404H111.121V183.956H106.81V166.016Z" fill="white"/>
<path d="M123.598 179.638C124.055 180.049 124.714 180.563 125.576 180.563C126.287 180.563 126.743 180.255 126.997 179.638L120.149 166.016H124.917L127.859 172.441C128.468 173.726 128.823 174.857 128.823 174.857H128.873C128.873 174.857 129.127 173.726 129.583 172.493L131.764 166.016H136.329L131.105 179.484C130.293 181.592 128.924 184.265 125.83 184.265C124.258 184.265 123.04 183.802 121.772 182.928L123.598 179.638Z" fill="white"/>
<path d="M146.22 165.758C148.604 165.758 151.14 166.58 152.864 168.277L150.835 171.618C149.719 170.59 147.995 169.767 146.423 169.767C142.872 169.767 141.401 172.286 141.401 174.908C141.401 177.581 142.974 180.306 146.423 180.306C148.198 180.306 149.922 179.329 151.14 178.095L153.371 181.282C151.799 182.927 149.466 184.264 146.22 184.264C140.539 184.264 136.938 180.306 136.938 174.959C136.938 169.767 140.742 165.758 146.22 165.758Z" fill="white"/>
<path d="M162.044 180.204C163.465 180.204 164.225 179.227 164.225 177.788C164.225 176.348 163.465 175.32 161.994 175.32H159.863V180.204H162.044ZM155.552 166.016H159.863V171.567H162.907C166.356 171.567 168.689 174.189 168.689 177.788C168.689 181.386 166.356 183.956 162.907 183.956H155.552V166.016Z" fill="white"/>
</g>
<path opacity="0.2" d="M148.18 129.422C148.18 129.422 148.587 99.8565 135.571 97.6289L134.758 129.827C134.758 129.827 139.639 130.637 148.18 129.422Z" fill="black"/>
</g>
<defs>
<linearGradient id="paint0_linear_1079_3700" x1="105" y1="0" x2="105" y2="210" gradientUnits="userSpaceOnUse">
<stop stop-color="#9B3145"/>
<stop offset="1" stop-color="#F15722"/>
</linearGradient>
<linearGradient id="paint1_linear_1079_3700" x1="105" y1="0" x2="105" y2="210" gradientUnits="userSpaceOnUse">
<stop stop-color="#219EBC"/>
<stop offset="1" stop-color="#04668B"/>
</linearGradient>
<clipPath id="clip0_1079_3700">
<rect width="98" height="56.5773" fill="white" transform="translate(80.5 134)"/>
</clipPath>
</defs>
</svg>
