<svg width="69" height="20" viewBox="0 0 69 20" fill="none" xmlns="http://www.w3.org/2000/svg">
<path d="M18.4172 3.70979e-07V0.00851565C18.4088 0.00851565 15.7476 4.76837e-07 15.0379 2.5631C14.3874 4.91332 12.5541 11.402 12.5034 11.5808H11.9966C11.9966 11.5808 10.121 4.94738 9.46207 2.55459C8.75241 -0.00851464 6.08276 3.70979e-07 6.08276 3.70979e-07L0 1.84557e-07V19.5H6.08276V7.91921H6.33621H6.58965L10.1379 19.5H14.3621L17.9103 7.92773H18.4172V19.5H24.5V1.84557e-07L18.4172 3.70979e-07Z" fill="#30A344"/>
<path d="M40.6842 0C40.6842 0 38.8796 0.16179 38.0329 2.04367L33.6711 11.5808H33.1579V0H27V19.5H32.8158C32.8158 19.5 34.7059 19.3297 35.5526 17.4563L39.8289 7.91921H40.3421V19.5H46.5V0H40.6842Z" fill="#30A344"/>
<path d="M49 8.5V19.5H55.1071V13.076H61.7232C64.6071 13.076 67.05 11.1664 67.9576 8.5H49Z" fill="#30A344"/>
<path d="M61.385 0H47.5781C48.268 3.71064 51.088 6.68936 54.736 7.65957C55.5639 7.88085 56.4349 8 57.3317 8H67.9736C68.0685 7.55745 68.1116 7.10638 68.1116 6.6383C68.1116 2.97021 65.1019 0 61.385 0Z" fill="url(#paint0_linear_946_10344)"/>
<defs>
<linearGradient id="paint0_linear_946_10344" x1="68" y1="0" x2="48" y2="0" gradientUnits="userSpaceOnUse">
<stop stop-color="#007FC4"/>
<stop offset="1" stop-color="#00A1DF"/>
</linearGradient>
</defs>
</svg>
