<svg width="286" height="286" viewBox="0 0 286 286" fill="none" xmlns="http://www.w3.org/2000/svg">
<circle cx="143" cy="143" r="143" fill="#F39F15"/>
<circle cx="143" cy="143" r="143" fill="url(#paint0_linear_922_3959)"/>
<circle cx="143" cy="143" r="143" fill="url(#paint1_linear_922_3959)"/>
<mask id="mask0_922_3959" style="mask-type:alpha" maskUnits="userSpaceOnUse" x="0" y="0" width="286" height="286">
<circle cx="143" cy="143" r="143" fill="#219EBC"/>
</mask>
<g mask="url(#mask0_922_3959)">
<path d="M135.778 110.849C135.778 114.41 132.834 117.352 129.269 117.352C125.705 117.352 122.761 114.41 122.761 110.849C122.761 107.287 125.705 104.346 129.269 104.346C132.834 104.191 135.778 107.133 135.778 110.849Z" fill="#F6DF9F"/>
<path d="M244.72 110.849C244.72 114.41 241.776 117.352 238.212 117.352C234.648 117.352 231.703 114.41 231.703 110.849C231.703 107.287 234.648 104.346 238.212 104.346C241.776 104.191 244.72 107.133 244.72 110.849Z" fill="#F6DF9F"/>
<path d="M238.987 106.359C238.987 136.861 214.192 161.634 183.663 161.634C153.135 161.634 128.34 136.861 128.34 106.359C128.34 75.8572 153.135 51.084 183.663 51.084C214.192 51.084 238.987 75.8572 238.987 106.359Z" fill="#F6DF9F"/>
<path d="M156.079 73.6893C156.079 73.6893 145.386 91.9596 128.495 112.552C128.495 112.552 124.62 50 181.494 50C238.367 50 238.987 100.166 238.987 112.552C237.592 106.204 217.291 74.6183 215.432 76.0118C207.373 82.2051 190.017 83.289 185.523 84.0631C174.985 85.6114 163.982 80.9665 156.079 73.6893Z" fill="black"/>
<path d="M170.181 107.753C170.181 110.385 168.012 112.553 165.377 112.553C162.743 112.553 160.573 110.385 160.573 107.753C160.573 105.121 162.743 102.953 165.377 102.953C168.012 102.953 170.181 105.121 170.181 107.753Z" fill="black"/>
<path d="M208.148 107.753C208.148 110.385 205.978 112.553 203.344 112.553C200.71 112.553 198.54 110.385 198.54 107.753C198.54 105.121 200.71 102.953 203.344 102.953C205.978 102.953 208.148 105.121 208.148 107.753Z" fill="black"/>
<path opacity="0.1" d="M186.917 123.546C186.917 124.629 186.142 125.558 185.213 125.558H179.324C178.394 125.558 177.619 124.629 177.619 123.546V123.081C177.619 121.997 178.394 121.068 179.324 121.068H185.213C186.142 121.068 186.917 121.997 186.917 123.081V123.546Z" fill="black"/>
<path d="M205.513 156.68H166.771V165.97H205.513V156.68Z" fill="#F6DF9F"/>
<path d="M253.708 201.581C253.708 223.412 221.94 259.178 183.818 259.178C145.696 259.178 115.632 223.412 115.632 201.581C115.632 179.75 146.471 162.099 184.593 162.099C222.87 162.099 253.708 179.75 253.708 201.581Z" fill="#22B573"/>
<path d="M170.181 136.551H197.3C197.3 136.551 184.748 156.679 170.181 136.551Z" fill="#F7931E"/>
<path d="M18.1575 149.093C18.1575 149.093 15.0582 165.66 20.3271 183.001C20.3271 183.001 51.0107 169.376 64.4929 183.001C78.13 196.627 61.3935 137.171 61.3935 137.171L18.1575 149.093Z" fill="black"/>
<path d="M108.659 149.093C108.659 149.093 111.758 165.66 106.489 183.001C106.489 183.001 75.8058 169.376 62.3237 183.001C48.6865 196.627 65.423 137.171 65.423 137.171L108.659 149.093Z" fill="black"/>
<path d="M23.5816 143.519C23.5816 146.461 21.1021 148.938 18.1578 148.938C15.2134 148.938 12.7339 146.461 12.7339 143.519C12.7339 140.577 15.2134 138.1 18.1578 138.1C21.2571 138.1 23.5816 140.577 23.5816 143.519Z" fill="#F6DF9F"/>
<path d="M113.928 143.519C113.928 146.461 111.448 148.938 108.504 148.938C105.56 148.938 103.08 146.461 103.08 143.519C103.08 140.577 105.56 138.1 108.504 138.1C111.448 138.1 113.928 140.577 113.928 143.519Z" fill="#F6DF9F"/>
<path d="M109.124 139.803C109.124 165.041 88.6682 185.633 63.2535 185.633C37.9938 185.633 17.5381 165.196 17.5381 139.803C17.5381 114.565 37.9938 93.9727 63.4085 93.9727C88.6682 94.1275 109.124 114.565 109.124 139.803Z" fill="#F6DF9F"/>
<path d="M52.0954 141.041C52.0954 143.209 50.2358 145.067 48.0663 145.067C45.8967 145.067 44.0371 143.209 44.0371 141.041C44.0371 138.874 45.8967 137.016 48.0663 137.016C50.3908 137.17 52.0954 138.874 52.0954 141.041Z" fill="black"/>
<path d="M83.5539 141.041C83.5539 143.209 81.6943 145.067 79.5248 145.067C77.3552 145.067 75.4956 143.209 75.4956 141.041C75.4956 138.874 77.3552 137.016 79.5248 137.016C81.6943 137.17 83.5539 138.874 83.5539 141.041Z" fill="black"/>
<path opacity="0.1" d="M64.493 153.428C64.493 154.357 63.8731 155.131 63.0982 155.131H59.8439C59.0691 155.131 58.4492 154.357 58.4492 153.428V152.189C58.4492 151.26 59.0691 150.486 59.8439 150.486H63.0982C63.8731 150.486 64.493 151.26 64.493 152.189V153.428Z" fill="black"/>
<path d="M79.9896 183.001H48.9961V186.098H79.9896V183.001Z" fill="#F6DF9F"/>
<path d="M121.366 218.767C121.366 236.883 94.7117 259.024 63.0983 259.024C31.4849 259.024 7 236.728 7 218.767C7 200.652 32.5697 186.098 64.183 186.098C95.7964 186.098 121.366 200.652 121.366 218.767Z" fill="#00A99D"/>
<path d="M52.0957 165.97H74.566C74.566 165.97 64.1832 176.808 52.0957 165.97Z" fill="#9E005D"/>
<path d="M81.3844 127.417C81.3844 127.417 68.677 106.205 51.9405 111.004C35.0491 115.804 16.7629 139.958 16.7629 139.958C16.7629 139.958 15.988 107.443 30.71 97.5339C45.4319 87.6247 69.7618 81.5862 89.5977 94.2825C109.434 106.979 109.124 135.623 108.659 143.984C108.659 143.984 103.545 118.901 80.4546 113.017C57.3644 106.979 82.9341 111.624 81.3844 127.417Z" fill="black"/>
<path d="M196.68 198.639C196.68 201.116 194.666 203.284 192.031 203.284C189.552 203.284 187.382 201.271 187.382 198.639C187.382 196.162 189.397 193.994 192.031 193.994C194.511 193.994 196.68 196.162 196.68 198.639Z" fill="#F6DF9F"/>
<path d="M272.925 198.639C272.925 201.116 270.91 203.284 268.275 203.284C265.641 203.284 263.626 201.271 263.626 198.639C263.626 196.162 265.641 193.994 268.275 193.994C270.91 193.994 272.925 196.162 272.925 198.639Z" fill="#F6DF9F"/>
<path d="M268.895 195.542C268.895 216.909 251.539 234.25 230.154 234.25C208.768 234.25 191.412 216.909 191.412 195.542C191.412 174.175 208.768 156.834 230.154 156.834C251.539 156.834 268.895 174.175 268.895 195.542Z" fill="#F6DF9F"/>
<path d="M210.782 172.781C210.782 172.781 203.189 185.632 191.411 200.032C191.411 200.032 188.622 156.369 228.449 156.369C268.275 156.369 268.74 191.361 268.74 200.032C268.74 200.032 263.936 183.155 247.819 183.155C231.703 183 214.811 183.155 210.782 172.781Z" fill="black"/>
<path d="M220.7 196.625C220.7 198.483 219.151 200.031 217.291 200.031C215.432 200.031 213.882 198.483 213.882 196.625C213.882 194.767 215.432 193.219 217.291 193.219C219.151 193.219 220.7 194.767 220.7 196.625Z" fill="black"/>
<path d="M247.199 196.625C247.199 198.483 245.65 200.031 243.79 200.031C241.931 200.031 240.381 198.483 240.381 196.625C240.381 194.767 241.931 193.219 243.79 193.219C245.805 193.219 247.199 194.767 247.199 196.625Z" fill="black"/>
<path opacity="0.1" d="M231.858 210.716C231.858 211.645 231.083 212.419 230.153 212.419H227.209C226.279 212.419 225.504 211.645 225.504 210.716V209.322C225.504 208.393 226.279 207.619 227.209 207.619H230.153C231.083 207.619 231.858 208.393 231.858 209.322V210.716Z" fill="black"/>
<path d="M234.957 217.993C234.957 219.077 234.028 220.006 232.943 220.006H226.279C225.194 220.006 224.265 219.077 224.265 217.993V217.528C224.265 216.445 225.194 215.516 226.279 215.516H232.943C234.028 215.516 234.957 216.445 234.957 217.528V217.993Z" fill="#FF7BAC"/>
<path d="M244.255 230.998H219.46V238.74H244.255V230.998Z" fill="#F6DF9F"/>
<path d="M279.123 262.119C279.123 277.292 257.583 289.679 230.773 289.679C204.119 289.679 182.423 277.292 182.423 262.119C182.423 246.79 203.964 234.559 230.773 234.559C257.583 234.559 279.123 246.945 279.123 262.119Z" fill="#3FA9F5"/>
<path d="M137.328 169.066C137.328 176.498 131.439 182.691 124.156 182.691C116.872 182.691 110.983 176.652 110.983 169.066C110.983 161.634 116.872 155.44 124.156 155.44C131.439 155.44 137.328 161.479 137.328 169.066Z" fill="white"/>
<path d="M137.328 174.795C137.328 178.511 131.439 181.608 124.156 181.608C116.872 181.608 110.983 178.511 110.983 174.795C110.983 171.079 116.872 167.982 124.156 167.982C131.439 167.982 137.328 171.079 137.328 174.795Z" fill="#8EB9E4"/>
<path d="M198.23 268.933C198.23 291.538 166.152 309.963 126.48 309.963C86.8083 309.963 54.73 291.538 54.73 268.933C54.73 246.327 86.8083 227.902 126.48 227.902C166.152 227.902 198.23 246.173 198.23 268.933Z" fill="#8EB9E4"/>
<path d="M86.3433 227.128C86.3433 230.07 83.8639 232.547 80.9195 232.547C77.9751 232.547 75.4956 230.07 75.4956 227.128C75.4956 224.186 77.9751 221.709 80.9195 221.709C83.8639 221.709 86.3433 224.031 86.3433 227.128Z" fill="#F6DF9F"/>
<path d="M176.69 227.128C176.69 230.07 174.21 232.547 171.266 232.547C168.321 232.547 165.842 230.07 165.842 227.128C165.842 224.186 168.321 221.709 171.266 221.709C174.21 221.709 176.69 224.031 176.69 227.128Z" fill="#F6DF9F"/>
<path d="M171.885 223.412C171.885 248.65 151.43 269.243 126.015 269.243C100.755 269.243 80.1445 248.805 80.1445 223.412C80.1445 198.175 100.6 177.582 126.015 177.582C151.275 177.582 171.885 198.175 171.885 223.412Z" fill="#F6DF9F"/>
<path d="M114.857 224.651C114.857 226.818 112.998 228.676 110.828 228.676C108.658 228.676 106.799 226.818 106.799 224.651C106.799 222.483 108.658 220.625 110.828 220.625C112.998 220.625 114.857 222.483 114.857 224.651Z" fill="black"/>
<path d="M146.316 224.651C146.316 226.818 144.456 228.676 142.286 228.676C140.117 228.676 138.257 226.818 138.257 224.651C138.257 222.483 140.117 220.625 142.286 220.625C144.456 220.625 146.316 222.483 146.316 224.651Z" fill="black"/>
<path opacity="0.1" d="M128.03 240.133C128.03 241.062 127.41 241.836 126.635 241.836H123.381C122.606 241.836 121.986 241.062 121.986 240.133V238.895C121.986 237.966 122.606 237.191 123.381 237.191H126.635C127.41 237.191 128.03 237.966 128.03 238.895V240.133Z" fill="black"/>
<path d="M114.857 249.578H137.328C137.328 249.578 126.945 255.771 114.857 249.578Z" fill="#F7931E"/>
<path d="M99.6706 197.71C99.6706 197.71 103.39 201.426 99.6706 205.606C95.9514 209.786 80.1447 223.412 80.1447 223.412C80.1447 223.412 74.8758 168.911 123.846 170.924C172.815 172.936 171.266 206.999 171.731 223.412C171.886 223.412 140.737 190.897 99.6706 197.71Z" fill="white"/>
<path d="M173.125 223.722L171.886 219.697L159.488 223.567C158.868 215.361 152.205 209.168 143.836 209.168C135.778 209.168 128.96 214.123 128.185 223.413H123.846C123.071 214.123 116.407 209.168 108.194 209.168C99.9806 209.168 93.317 215.361 92.5421 223.413L81.2295 219.851L79.9897 223.877L92.8521 227.903C94.2468 235.025 100.6 239.36 108.194 239.36C115.942 239.36 122.451 232.857 123.691 225.116H128.34C129.579 232.857 136.088 239.36 143.836 239.36C151.275 239.36 157.474 234.715 159.178 227.748L173.125 223.722ZM108.504 235.954C102.15 235.954 97.0362 230.845 97.0362 224.496C97.0362 218.148 102.15 213.039 108.504 213.039C114.857 213.039 119.971 218.148 119.971 224.496C119.971 230.845 114.857 235.954 108.504 235.954ZM143.991 235.954C137.638 235.954 132.524 230.845 132.524 224.496C132.524 218.148 137.638 213.039 143.991 213.039C150.345 213.039 155.459 218.148 155.459 224.496C155.459 230.845 150.345 235.954 143.991 235.954Z" fill="#8EB9E4"/>
</g>
<defs>
<linearGradient id="paint0_linear_922_3959" x1="143" y1="0" x2="143" y2="286" gradientUnits="userSpaceOnUse">
<stop stop-color="#9B3145"/>
<stop offset="1" stop-color="#F15722"/>
</linearGradient>
<linearGradient id="paint1_linear_922_3959" x1="143" y1="0" x2="143" y2="286" gradientUnits="userSpaceOnUse">
<stop stop-color="#219EBC"/>
<stop offset="1" stop-color="#04668B"/>
</linearGradient>
</defs>
</svg>
