<svg width="65" height="68" viewBox="0 0 65 68" fill="none" xmlns="http://www.w3.org/2000/svg">
<path d="M20.4924 0.199219L11.6309 8.67277L15.7496 12.9965L18.7451 10.1886C19.1445 9.79098 19.469 9.41824 19.7436 9.09521L19.7186 10.3377V28.726H19.6937V34.7147H26.3835V0.199219H20.4924Z" fill="white"/>
<path d="M38.7646 18.4378V16.8226C38.8895 16.7978 38.9893 16.7729 39.0642 16.7481C39.1391 16.7232 39.2389 16.6487 39.3388 16.5742C39.4386 16.4748 39.5135 16.3754 39.5884 16.2263C39.6383 16.0772 39.7132 15.8784 39.7382 15.605C39.7881 15.3317 39.8131 15.0335 39.8131 14.6608V12.8965H44.3562V18.3881H42.484V14.3377H41.5604V14.6608C41.5604 15.8784 41.3607 16.7978 40.9364 17.4687C40.512 18.1148 39.7881 18.4378 38.7646 18.4378Z" fill="white"/>
<path d="M45.2798 15.6305C45.2798 14.8105 45.5294 14.1147 46.0536 13.5681C46.5778 13.0214 47.2768 12.748 48.1504 12.748C48.9492 12.748 49.5733 12.9965 50.0226 13.4935C50.4719 13.9905 50.6966 14.6366 50.6966 15.4069C50.6966 15.5312 50.6716 15.7299 50.6467 15.9784H47.152C47.2268 16.3015 47.3766 16.55 47.6013 16.7239C47.8509 16.8979 48.1255 16.9724 48.425 16.9724C48.8744 16.9724 49.3986 16.7985 49.9477 16.4257L50.6467 17.7179C50.3471 17.9664 49.9977 18.1652 49.5733 18.3143C49.1489 18.4634 48.7246 18.5379 48.3002 18.5379C47.3517 18.5379 46.6277 18.2646 46.0786 17.693C45.5544 17.0966 45.2798 16.4257 45.2798 15.6305ZM47.2268 14.9348H48.8744C48.8744 14.7111 48.7995 14.5123 48.6747 14.3384C48.5249 14.1893 48.3501 14.1148 48.1255 14.1148C47.6512 14.1148 47.3516 14.3881 47.2268 14.9348Z" fill="white"/>
<path d="M52.9181 18.3881V14.4371H51.2456V12.8965H56.4627V14.4371H54.7653V18.3881H52.9181Z" fill="white"/>
<path d="M2.64455 66.8193C2.64455 67.3908 2.09537 67.863 1.42139 67.863C0.747404 67.863 0.198242 67.3908 0.198242 66.8193V1.04366C0.198242 0.472133 0.747404 0 1.42139 0C2.09537 0 2.64455 0.472133 2.64455 1.04366V66.8193Z" fill="white"/>
<path d="M34.2217 25.3714C34.4963 25.3963 34.7459 25.4957 34.9955 25.6696C35.6445 26.1915 36.3435 26.6388 37.0923 27.0363C38.7898 27.9309 40.6869 28.4527 42.7588 28.6018C44.1816 28.7012 45.5795 28.6267 46.9275 28.3285C41.1862 27.9558 36.643 23.1847 36.643 17.3949C36.643 11.3565 41.5855 6.43641 47.6514 6.43641C53.7172 6.43641 58.6597 11.3565 58.6597 17.3949C58.6597 18.7864 58.3851 20.1034 57.9109 21.3459C58.9593 21.5447 59.9827 21.8429 60.9812 22.1908C61.805 22.4641 62.6287 22.812 63.4275 23.1847C63.5024 23.2096 63.6771 23.309 63.8519 23.4084C64.5508 21.5447 64.9252 19.5319 64.9252 17.4197C64.9252 7.92736 57.162 0.199279 47.6264 0.199279C38.1158 0.174429 30.3525 7.90251 30.3525 17.3949C30.3525 20.6253 31.2512 23.632 32.7988 26.2163C32.8737 26.0424 32.9736 25.8933 33.1233 25.769C33.3979 25.4708 33.8223 25.3218 34.2217 25.3714Z" fill="white"/>
<path d="M64.5259 24.8981C64.451 24.5751 64.2763 24.3017 64.0017 24.0781C63.802 23.9787 63.3028 23.7053 63.1779 23.6556C62.4041 23.2829 61.6053 22.9599 60.7816 22.6865C58.8595 22.0156 56.8375 21.618 54.8406 21.4689C54.4911 21.4441 54.1416 21.4192 53.7173 21.4192C50.1726 21.3198 46.4283 22.0404 43.1582 23.4569L43.0833 23.5065C42.7838 23.6308 42.5591 23.929 42.5342 24.2769C42.5092 24.5005 42.5841 24.749 42.7339 24.923C42.8836 25.0969 43.1083 25.2211 43.3579 25.246C43.4578 25.2708 43.5576 25.246 43.6575 25.2211C45.7293 24.5254 48.0009 24.2023 50.2225 24.3266C50.3474 24.3266 50.4971 24.3514 50.6219 24.3514C51.6454 24.426 52.569 24.6496 53.3678 24.8484L54.1666 25.0472L53.5675 25.6187C50.5221 28.2279 46.6529 29.4703 42.659 29.1722C40.5122 28.9982 38.5402 28.4515 36.7679 27.5321C35.9941 27.1345 35.2702 26.6624 34.5962 26.1157C34.4464 25.9915 34.2717 25.9418 34.1219 25.9169C34.0969 25.9169 34.072 25.9169 34.047 25.9169C33.8224 25.9169 33.6227 25.9915 33.4479 26.1654C33.2982 26.3145 33.1983 26.5133 33.1733 26.7369C33.1733 26.886 33.1983 27.06 33.2732 27.1842C35.5947 30.4892 39.0145 32.9492 42.9086 34.0426C44.0319 34.3656 45.1802 34.5644 46.3534 34.6638C51.3958 35.0614 56.3633 33.2474 59.9828 29.7188C60.2074 29.4703 60.4321 29.2467 60.6817 29.0728C61.0811 28.8243 61.5055 28.7 61.9798 28.6752H62.1795C62.479 28.7 62.7785 28.7746 63.0531 28.9237C63.0781 28.9485 63.6273 29.2964 64.0017 29.7188L64.0766 29.8182C64.1265 29.8679 64.1515 29.8928 64.1764 29.9176C64.2763 29.9673 64.4011 29.9922 64.5259 29.9673C64.6507 29.9425 64.7506 29.8679 64.8005 29.7685C64.8504 29.694 64.8504 29.6194 64.8504 29.52V29.4952L64.5259 24.8981Z" fill="white"/>
<path d="M15.9995 48.9511V42.4158H16.8233V42.8382L16.7983 43.1861H16.8233C16.973 42.9128 17.1977 42.6891 17.4723 42.54C17.7469 42.391 18.0714 42.3164 18.4208 42.3164C19.0449 42.3164 19.5441 42.54 19.9186 42.9873C20.293 43.4346 20.4677 44.031 20.4677 44.7516C20.4677 45.4971 20.268 46.0935 19.8686 46.5408C19.4693 46.9881 18.97 47.2117 18.346 47.2117C17.7219 47.2117 17.2227 46.9384 16.8981 46.4165H16.8732C16.8981 46.5159 16.8981 46.665 16.8981 46.8141V48.9511H15.9995V48.9511ZM16.8732 44.8013C16.8732 45.2486 16.998 45.6213 17.2227 45.9692C17.4723 46.2923 17.7968 46.4662 18.1962 46.4662C18.5706 46.4662 18.8951 46.3171 19.1697 46.0189C19.4193 45.7207 19.5691 45.3232 19.5691 44.8013C19.5691 44.3043 19.4443 43.8819 19.1947 43.5837C18.945 43.2855 18.6205 43.1364 18.2461 43.1364C17.8717 43.1364 17.5472 43.2855 17.2726 43.5589C16.998 43.8074 16.8732 44.2298 16.8732 44.8013Z" fill="white"/>
<path d="M21.1914 45.8441C21.1914 45.4962 21.2913 45.198 21.491 44.9744C21.6907 44.7508 21.9403 44.5768 22.2648 44.4774C22.5893 44.378 22.8888 44.3035 23.1634 44.2786C23.438 44.2538 23.7126 44.2289 24.0371 44.2289H24.2867V44.1295C24.2867 43.4337 23.9372 43.1107 23.2633 43.1107C22.8139 43.1107 22.3646 43.2598 21.9403 43.558L21.5658 42.9119C21.7655 42.7628 22.0152 42.6137 22.3397 42.5143C22.6642 42.4149 22.9887 42.3652 23.3132 42.3652C23.9123 42.3652 24.3616 42.5143 24.6861 42.8374C25.0106 43.1604 25.1604 43.6077 25.1604 44.2041V47.1611H24.3117V46.689L24.3366 46.3162H24.3117C24.1619 46.5896 23.9622 46.8132 23.6876 47.012C23.413 47.186 23.1135 47.2854 22.764 47.2854C22.3397 47.2854 21.9652 47.1611 21.6657 46.9126C21.3412 46.5896 21.1914 46.2417 21.1914 45.8441ZM22.0901 45.7696C22.0901 45.9684 22.1649 46.1423 22.3147 46.2914C22.4645 46.4405 22.6891 46.515 22.9637 46.515C23.3382 46.515 23.6377 46.3659 23.8624 46.0429C24.087 45.7447 24.2118 45.3968 24.2118 45.0241V44.8501H23.9872C22.7141 44.8501 22.0901 45.1483 22.0901 45.7696Z" fill="white"/>
<path d="M26.0093 46.5408L26.4336 45.9444C26.7831 46.3171 27.1825 46.4911 27.6568 46.4911C27.9314 46.4911 28.181 46.4165 28.3557 46.2923C28.5305 46.168 28.6303 45.9692 28.6303 45.7207C28.6303 45.2486 28.3058 45.0001 27.6568 45.0001H27.0827V44.354H27.5819C28.181 44.354 28.4805 44.1304 28.4805 43.6831C28.4805 43.4595 28.4056 43.3104 28.2559 43.1861C28.1061 43.0619 27.9064 43.0122 27.6318 43.0122C27.2324 43.0122 26.858 43.1364 26.4836 43.4098L26.1591 42.8134C26.6084 42.4655 27.1575 42.3164 27.7816 42.3164C28.2559 42.3164 28.6303 42.4158 28.9298 42.6394C29.2294 42.8631 29.3792 43.1613 29.3792 43.5837C29.3792 44.1055 29.1545 44.4534 28.6802 44.6522V44.6771C29.2544 44.851 29.5289 45.2238 29.5289 45.7704C29.5289 46.2426 29.3542 46.5905 29.0047 46.839C28.6553 47.0874 28.2309 47.2117 27.7067 47.2117C27.0577 47.2117 26.4836 46.988 26.0093 46.5408Z" fill="white"/>
<path d="M30.6274 47.113V42.4414H32.5745C33.0488 42.4414 33.4482 42.5408 33.7228 42.7396C33.9973 42.9384 34.1471 43.2366 34.1471 43.6342C34.1471 43.8578 34.0972 44.0566 33.9724 44.2554C33.8476 44.4293 33.6978 44.5784 33.4731 44.6778C33.7477 44.7524 33.9724 44.8766 34.1222 45.0754C34.2719 45.2742 34.3468 45.5227 34.3468 45.7712C34.3468 46.1936 34.197 46.5167 33.8725 46.7651C33.548 46.9888 33.1486 47.113 32.6244 47.113H30.6274V47.113ZM31.5261 44.4045H32.3998C32.6744 44.4045 32.874 44.3299 32.9989 44.2057C33.1237 44.0814 33.1986 43.9075 33.1986 43.6839C33.1986 43.2614 32.924 43.0378 32.3748 43.0378H31.5261V44.4045ZM31.5261 46.4918H32.4996C32.8241 46.4918 33.0488 46.4173 33.2235 46.293C33.3733 46.1688 33.4731 45.9948 33.4731 45.7463C33.4731 45.5227 33.3983 45.3239 33.2235 45.1997C33.0488 45.0754 32.8241 45.0009 32.4996 45.0009H31.551V46.4918H31.5261Z" fill="white"/>
<path d="M35.4448 47.113V42.4414H36.3185V45.2245C36.3185 45.5475 36.3185 45.7712 36.2935 45.8457H36.3185C36.3435 45.7712 36.4932 45.5724 36.7429 45.2245L38.7648 42.4414H39.6385V47.113H38.7648V44.3299C38.7648 44.2554 38.7648 44.1311 38.7898 43.9572C38.7898 43.8081 38.8147 43.7087 38.8147 43.7087H38.7898C38.7898 43.7336 38.64 43.9323 38.3904 44.3299L36.3684 47.113H35.4448V47.113Z" fill="white"/>
<path d="M40.9863 47.113V42.4414H42.9334C43.4077 42.4414 43.8071 42.5408 44.0817 42.7396C44.3563 42.9384 44.5061 43.2366 44.5061 43.6342C44.5061 43.8578 44.4561 44.0566 44.3313 44.2554C44.2065 44.4293 44.0567 44.5784 43.8321 44.6778C44.1066 44.7524 44.3313 44.8766 44.4811 45.0754C44.6309 45.2742 44.7057 45.5227 44.7057 45.7712C44.7057 46.1936 44.556 46.5167 44.2315 46.7651C43.9069 46.9888 43.5075 47.113 42.9833 47.113H40.9863V47.113ZM41.9099 44.4045H42.7836C43.0582 44.4045 43.2579 44.3299 43.3827 44.2057C43.5076 44.0814 43.5824 43.9075 43.5824 43.6839C43.5824 43.2614 43.3079 43.0378 42.7587 43.0378H41.9099V44.4045ZM41.9099 46.4918H42.8835C43.208 46.4918 43.4327 46.4173 43.6074 46.293C43.7572 46.1688 43.857 45.9948 43.857 45.7463C43.857 45.5227 43.7821 45.3239 43.6074 45.1997C43.4327 45.0754 43.208 45.0009 42.8835 45.0009H41.9349V46.4918H41.9099Z" fill="white"/>
<path d="M45.4297 45.8441C45.4297 45.4962 45.5295 45.198 45.7292 44.9744C45.9289 44.7507 46.1786 44.5768 46.5031 44.4774C46.8276 44.378 47.1271 44.3035 47.4017 44.2786C47.6763 44.2538 47.9509 44.2289 48.2754 44.2289H48.525V44.1295C48.525 43.4337 48.1755 43.1107 47.5016 43.1107C47.0522 43.1107 46.6029 43.2598 46.1786 43.558L45.8041 42.9119C46.0038 42.7628 46.2534 42.6137 46.5779 42.5143C46.9025 42.4149 47.227 42.3652 47.5515 42.3652C48.1506 42.3652 48.5999 42.5143 48.9244 42.8374C49.2489 43.1604 49.3987 43.6077 49.3987 44.2041V47.1611H48.55V46.689L48.5749 46.3162H48.55C48.4002 46.5896 48.2005 46.8132 47.9259 47.012C47.6513 47.186 47.3518 47.2854 47.0023 47.2854C46.5779 47.2854 46.2035 47.1611 45.904 46.9126C45.5795 46.5896 45.4297 46.2417 45.4297 45.8441ZM46.3283 45.7696C46.3283 45.9684 46.4032 46.1423 46.553 46.2914C46.7028 46.4405 46.9274 46.515 47.202 46.515C47.5764 46.515 47.876 46.3659 48.1006 46.0429C48.3253 45.7447 48.4501 45.3968 48.4501 45.0241V44.8501H48.2255C46.9773 44.8501 46.3283 45.1483 46.3283 45.7696Z" fill="white"/>
<path d="M50.3975 44.777C50.3975 44.0315 50.6221 43.46 51.0714 43.0127C51.5208 42.5654 52.0699 42.3418 52.7689 42.3418C53.4179 42.3418 53.8922 42.5406 54.2666 42.963C54.6161 43.3855 54.8158 43.9073 54.8158 44.5285C54.8158 44.6031 54.7908 44.7273 54.7908 44.9013H51.371C51.396 45.3982 51.5707 45.771 51.8702 46.0443C52.1698 46.3177 52.5442 46.4668 52.9935 46.4668C53.5177 46.4668 53.9671 46.2928 54.3664 45.9201L54.7409 46.5662C54.5162 46.765 54.2416 46.9389 53.9171 47.0631C53.5926 47.1874 53.2681 47.2371 52.9186 47.2371C52.1947 47.2371 51.5957 47.0134 51.1214 46.5413C50.6471 46.0692 50.3975 45.4728 50.3975 44.777ZM51.371 44.2552H53.8922C53.8672 43.8576 53.7674 43.5594 53.5427 43.3606C53.318 43.137 53.0684 43.0376 52.7439 43.0376C52.3944 43.0376 52.0949 43.137 51.8453 43.3606C51.5956 43.5594 51.4209 43.8576 51.371 44.2552Z" fill="white"/>
<path d="M55.6895 47.113L56.0888 42.4414H57.0873L58.2855 45.0754L58.5352 45.6966H58.5601C58.66 45.473 58.7349 45.2493 58.8097 45.0754L60.0329 42.4414H61.0064L61.4058 47.113H60.5322L60.3324 44.3299V43.5348H60.3075C60.2326 43.7584 60.1327 43.982 60.0079 44.2305L58.8846 46.5664H58.1108L57.0624 44.2305L56.7628 43.5348H56.7379V44.3299L56.5382 47.113H55.6895V47.113Z" fill="white"/>
<path d="M15.6997 54.8398C15.6997 54.144 15.9493 53.5725 16.4236 53.1252C16.8979 52.6779 17.522 52.4543 18.2459 52.4046V50.7148H19.1196V52.4046C19.8684 52.4294 20.4675 52.6779 20.9418 53.1004C21.4161 53.5476 21.6407 54.1192 21.6407 54.815C21.6407 55.5356 21.4161 56.1071 20.9418 56.5544C20.4675 57.0017 19.8684 57.2502 19.1196 57.275V59.0145H18.2459V57.275C17.497 57.2502 16.8979 57.0017 16.4236 56.5544C15.9493 56.1071 15.6997 55.5604 15.6997 54.8398ZM16.5984 54.8398C16.5984 55.3368 16.7481 55.7344 17.0477 56.0326C17.3472 56.3307 17.7466 56.5047 18.2459 56.5295V53.1252C17.7466 53.1501 17.3472 53.324 17.0477 53.6222C16.7481 53.9452 16.5984 54.3428 16.5984 54.8398ZM19.0946 56.5544C19.5938 56.5295 19.9932 56.3556 20.2928 56.0574C20.5923 55.7592 20.7421 55.3368 20.7421 54.8647C20.7421 54.3677 20.5923 53.9701 20.2928 53.6719C19.9932 53.3737 19.5938 53.1998 19.0946 53.1749V56.5544Z" fill="white"/>
<path d="M22.3397 58.1695C22.5144 58.2938 22.6892 58.3683 22.8889 58.3683C23.2633 58.3683 23.5629 58.1447 23.7376 57.6725L23.9623 57.1258L21.9902 52.5039H23.0137L24.1869 55.5604L24.3617 56.1319H24.3866C24.4365 55.9331 24.4865 55.7343 24.5364 55.5852L25.6847 52.5288H26.6582L24.4365 58.0453C24.3117 58.3932 24.0871 58.6665 23.8375 58.8653C23.5629 59.0641 23.2633 59.1386 22.9138 59.1386C22.7641 59.1386 22.6143 59.1138 22.4645 59.0641C22.3148 59.0144 22.2149 58.9647 22.14 58.915L22.0402 58.8404L22.3397 58.1695Z" fill="white"/>
<path d="M26.6333 56.4549H27.2074C27.7067 55.784 27.9313 54.7652 27.9313 53.3736V52.5039H31.1016V56.4301H31.7755V58.2689H30.9518V57.1507H27.482V58.2689H26.6333V56.4549V56.4549ZM28.131 56.4549H30.2029V53.2494H28.7801V53.4979C28.805 54.7652 28.5804 55.7591 28.131 56.4549Z" fill="white"/>
<path d="M32.7241 57.2004V52.5288H33.5978V56.4052H35.3452V52.5039H36.2188V56.4052H37.9662V52.5039H38.8399V57.1756H32.7241V57.2004Z" fill="white"/>
<path d="M39.8882 54.8649C39.8882 54.1194 40.1128 53.5479 40.5622 53.1006C41.0115 52.6533 41.5606 52.4297 42.2596 52.4297C42.9086 52.4297 43.3829 52.6285 43.7573 53.0509C44.1068 53.4734 44.3065 53.9952 44.3065 54.6164C44.3065 54.691 44.2815 54.8152 44.2815 54.9892H40.8617C40.8867 55.4861 41.0614 55.8589 41.3609 56.1322C41.6605 56.4056 42.0349 56.5547 42.4842 56.5547C43.0084 56.5547 43.4578 56.3807 43.8572 56.008L44.2316 56.654C44.0069 56.8528 43.7323 57.0268 43.4078 57.151C43.0833 57.2753 42.7588 57.325 42.4094 57.325C41.6855 57.325 41.0864 57.1013 40.6121 56.6292C40.1128 56.1322 39.8882 55.5607 39.8882 54.8649ZM40.8367 54.3182H43.3579C43.333 53.9206 43.2331 53.6224 43.0085 53.4237C42.7838 53.2 42.5342 53.1006 42.2097 53.1006C41.8602 53.1006 41.5607 53.2 41.311 53.4237C41.0614 53.6473 40.9116 53.9455 40.8367 54.3182Z" fill="white"/>
<path d="M45.355 59.039V52.5037H46.1788V52.9261L46.1538 53.274H46.1788C46.3285 53.0007 46.5532 52.777 46.8278 52.6279C47.1024 52.4788 47.4269 52.4043 47.7763 52.4043C48.4004 52.4043 48.8996 52.6279 49.2741 53.0752C49.6485 53.5225 49.8233 54.1189 49.8233 54.8395C49.8233 55.585 49.6236 56.1814 49.2242 56.6287C48.8248 57.0759 48.3255 57.2996 47.7015 57.2996C47.0774 57.2996 46.5781 57.0262 46.2536 56.5044H46.2287C46.2536 56.6038 46.2536 56.7529 46.2536 56.902V59.039H45.355V59.039ZM46.2287 54.8644C46.2287 55.3117 46.3535 55.6844 46.5781 56.0323C46.8278 56.3553 47.1523 56.5293 47.5517 56.5293C47.9261 56.5293 48.2506 56.3802 48.5252 56.082C48.7748 55.7838 48.9246 55.3862 48.9246 54.8644C48.9246 54.3674 48.7998 53.9449 48.5502 53.6468C48.3006 53.3486 47.976 53.1995 47.6016 53.1995C47.2272 53.1995 46.9027 53.3486 46.6281 53.6219C46.3535 53.8952 46.2287 54.3177 46.2287 54.8644Z" fill="white"/>
<path d="M50.9468 57.2009V52.5293H51.8205V55.3124C51.8205 55.6354 51.8205 55.8591 51.7955 55.9336H51.8205C51.8454 55.8591 51.9952 55.6603 52.2448 55.3124L54.2668 52.5293H55.1404V57.2009H54.2668V54.4178C54.2668 54.3433 54.2668 54.219 54.2917 54.0451C54.2917 53.896 54.3167 53.7966 54.3167 53.7966H54.2917C54.2917 53.8215 54.1419 54.0202 53.8923 54.4178L51.8704 57.2009H50.9468Z" fill="white"/>
<path d="M56.4883 57.2009V52.5293H57.3869V54.4427H59.7583V52.5293H60.657V57.2009H59.7583V55.1882H57.3869V57.2009H56.4883Z" fill="white"/>
<path d="M62.0547 57.2009V52.5293H65.0002V53.2996H62.9533V57.2009H62.0547V57.2009Z" fill="white"/>
<path d="M15.9995 67.2654V62.5938H17.9466C18.4208 62.5938 18.8202 62.6931 19.0948 62.8919C19.3694 63.0907 19.5192 63.3889 19.5192 63.7865C19.5192 64.0102 19.4693 64.209 19.3445 64.4077C19.2196 64.5817 19.0699 64.7308 18.8452 64.8302C19.1198 64.9047 19.3444 65.029 19.4942 65.2278C19.644 65.4266 19.7189 65.675 19.7189 65.9235C19.7189 66.346 19.5691 66.669 19.2446 66.9175C18.9201 67.1411 18.5207 67.2654 17.9965 67.2654H15.9995ZM16.8981 64.5817H17.7718C18.0464 64.5817 18.2461 64.5071 18.3709 64.3829C18.4957 64.2586 18.5706 64.0847 18.5706 63.8611C18.5706 63.4386 18.296 63.215 17.7469 63.215H16.8981V64.5817ZM16.8981 66.6442H17.8717C18.1962 66.6442 18.4209 66.5696 18.5956 66.4454C18.7454 66.3211 18.8452 66.1472 18.8452 65.8987C18.8452 65.6751 18.7703 65.4763 18.5956 65.352C18.4209 65.2278 18.1962 65.1532 17.8717 65.1532H16.9231V66.6442H16.8981Z" fill="white"/>
<path d="M23.313 67.2639V60.7285H25.7094C26.3085 60.7285 26.8077 60.9025 27.1822 61.2752C27.5566 61.6479 27.7563 62.1449 27.7563 62.7662C27.7563 63.3874 27.5566 63.8844 27.1822 64.2571C26.8077 64.6298 26.3085 64.8286 25.7094 64.8286H24.2116V67.239H23.313V67.2639ZM24.2366 64.0583H25.5846C25.984 64.0583 26.2835 63.9341 26.5082 63.7104C26.7328 63.4868 26.8576 63.1637 26.8576 62.7662C26.8576 62.3686 26.7328 62.0704 26.5082 61.8467C26.2835 61.6231 25.984 61.5237 25.5846 61.5237H24.2366V64.0583Z" fill="white"/>
<path d="M28.3057 64.9294C28.3057 64.2336 28.5553 63.6621 29.0296 63.1899C29.5288 62.7178 30.1279 62.4941 30.8269 62.4941C31.5508 62.4941 32.1498 62.7178 32.6241 63.1899C33.1234 63.6621 33.348 64.2336 33.348 64.9294C33.348 65.6251 33.0984 66.2215 32.6241 66.6936C32.1249 67.1658 31.5258 67.3894 30.8269 67.3894C30.1279 67.3894 29.5288 67.1658 29.0296 66.6936C28.5553 66.2215 28.3057 65.6251 28.3057 64.9294ZM29.2293 64.9294C29.2293 65.4263 29.379 65.8239 29.7036 66.147C30.0281 66.47 30.4025 66.6191 30.8518 66.6191C31.3011 66.6191 31.6756 66.47 32.0001 66.147C32.3246 65.8239 32.4744 65.4263 32.4744 64.9542C32.4744 64.4821 32.3246 64.0845 32.0001 63.7614C31.6756 63.4384 31.3011 63.2893 30.8518 63.2893C30.4025 63.2893 30.0281 63.4384 29.7036 63.7614C29.379 64.0596 29.2293 64.4572 29.2293 64.9294Z" fill="white"/>
<path d="M34.147 64.9294C34.147 64.2336 34.3716 63.6621 34.8459 63.1899C35.3202 62.7178 35.9193 62.4941 36.6432 62.4941C37.3921 62.4941 37.9662 62.7178 38.4155 63.1899L37.9911 63.8111C37.6417 63.4633 37.1924 63.2645 36.6931 63.2645C36.2188 63.2645 35.8444 63.4136 35.5199 63.7366C35.2203 64.0596 35.0456 64.4572 35.0456 64.9294C35.0456 65.4015 35.1954 65.7991 35.5199 66.1221C35.8444 66.4452 36.2188 66.5943 36.7181 66.5943C36.9677 66.5943 37.2423 66.5446 37.4919 66.4203C37.7665 66.2961 37.9662 66.147 38.1659 65.973L38.5403 66.6191C38.3157 66.8427 38.0411 67.0167 37.7166 67.1658C37.3921 67.29 37.0426 67.3646 36.6681 67.3646C35.9193 67.3646 35.3202 67.1409 34.8459 66.6688C34.3716 66.2215 34.147 65.65 34.147 64.9294Z" fill="white"/>
<path d="M39.0894 64.9294C39.0894 64.2336 39.314 63.6621 39.7883 63.1899C40.2626 62.7178 40.8617 62.4941 41.5856 62.4941C42.3344 62.4941 42.9086 62.7178 43.3579 63.1899L42.9335 63.8111C42.5841 63.4633 42.1347 63.2645 41.6355 63.2645C41.1612 63.2645 40.7868 63.4136 40.4623 63.7366C40.1627 64.0596 39.988 64.4572 39.988 64.9294C39.988 65.4015 40.1378 65.7991 40.4623 66.1221C40.7868 66.4452 41.1612 66.5943 41.6605 66.5943C41.9101 66.5943 42.1847 66.5446 42.4343 66.4203C42.7089 66.2961 42.9086 66.147 43.1083 65.973L43.4827 66.6191C43.258 66.8427 42.9835 67.0167 42.6589 67.1658C42.3344 67.29 41.985 67.3646 41.6105 67.3646C40.8617 67.3646 40.2626 67.1409 39.7883 66.6688C39.339 66.2215 39.0894 65.65 39.0894 64.9294Z" fill="white"/>
<path d="M44.4561 67.2654V62.5938H45.3297V65.3769C45.3297 65.6999 45.3297 65.9235 45.3048 65.9981H45.3297C45.3547 65.9235 45.5045 65.7247 45.7541 65.3769L47.776 62.5938H48.6497V67.2654H47.776V64.4823C47.776 64.4077 47.776 64.2835 47.801 64.1096C47.801 63.9605 47.826 63.8611 47.826 63.8611H47.801C47.801 63.8859 47.6512 64.0847 47.4016 64.4823L45.3797 67.2654H44.4561Z" fill="white"/>
<path d="M50.0225 67.2654V62.5938H50.8961V65.3769C50.8961 65.6999 50.8961 65.9235 50.8712 65.9981H50.8961C50.9211 65.9235 51.0709 65.7247 51.3205 65.3769L53.3424 62.5938H54.2161V67.2654H53.3175V64.4823C53.3175 64.4077 53.3175 64.2835 53.3424 64.1096C53.3424 63.9605 53.3674 63.8611 53.3674 63.8611H53.3175C53.3175 63.8859 53.1677 64.0847 52.9181 64.4823L50.8961 67.2654H50.0225Z" fill="white"/>
</svg>
