<svg width="28" height="28" viewBox="0 0 28 28" fill="none" xmlns="http://www.w3.org/2000/svg">
<path d="M18.5781 20.4219L20.875 9.59375C20.9688 9.13542 20.9141 8.80729 20.7109 8.60938C20.5078 8.41146 20.2396 8.375 19.9062 8.5L6.40625 13.7031C6.10417 13.8177 5.89844 13.9479 5.78906 14.0938C5.67969 14.2396 5.66667 14.3776 5.75 14.5078C5.83333 14.638 6 14.7396 6.25 14.8125L9.70312 15.8906L17.7188 10.8438C17.9375 10.6979 18.1042 10.6667 18.2188 10.75C18.2917 10.8021 18.2708 10.8802 18.1562 10.9844L11.6719 16.8438L11.4219 20.4062C11.6615 20.4062 11.8958 20.2917 12.125 20.0625L13.8125 18.4375L17.3125 21.0156C17.9792 21.3906 18.401 21.1927 18.5781 20.4219ZM28 14C28 15.8958 27.6302 17.7083 26.8906 19.4375C26.151 21.1667 25.1562 22.6562 23.9062 23.9062C22.6562 25.1562 21.1667 26.151 19.4375 26.8906C17.7083 27.6302 15.8958 28 14 28C12.1042 28 10.2917 27.6302 8.5625 26.8906C6.83333 26.151 5.34375 25.1562 4.09375 23.9062C2.84375 22.6562 1.84896 21.1667 1.10938 19.4375C0.369792 17.7083 0 15.8958 0 14C0 12.1042 0.369792 10.2917 1.10938 8.5625C1.84896 6.83333 2.84375 5.34375 4.09375 4.09375C5.34375 2.84375 6.83333 1.84896 8.5625 1.10938C10.2917 0.369792 12.1042 0 14 0C15.8958 0 17.7083 0.369792 19.4375 1.10938C21.1667 1.84896 22.6562 2.84375 23.9062 4.09375C25.1562 5.34375 26.151 6.83333 26.8906 8.5625C27.6302 10.2917 28 12.1042 28 14Z" fill="white"/>
</svg>
