<svg width="41" height="33" viewBox="0 0 41 33" fill="none" xmlns="http://www.w3.org/2000/svg">
<path d="M22.8511 8.27587C22.8511 6.33095 23.6267 4.62915 25.1778 3.17046C26.699 1.71177 28.5036 0.982423 30.5916 0.982423C33.8728 0.982422 36.3933 2.09163 38.1531 4.31006C39.913 6.52848 40.793 9.59781 40.793 13.518C40.793 17.1648 39.2866 20.8419 36.274 24.5494C33.2314 28.2569 29.5775 31.0679 25.312 32.9824L23.3433 29.746C26.7139 28.0745 29.3537 26.1296 31.2628 23.9112C33.1718 21.6928 34.2754 19.0033 34.5737 15.8428L32.0681 15.8428C30.2188 15.8428 28.7124 15.6301 27.5491 15.2046C26.3858 14.7792 25.4462 14.1866 24.7303 13.4269C24.0443 12.6975 23.567 11.8922 23.2986 11.0109C23.0003 10.1296 22.8511 9.21794 22.8511 8.27587ZM0.792967 8.27587C0.792966 6.33095 1.56851 4.62915 3.11959 3.17046C4.64084 1.71177 6.44547 0.982425 8.53346 0.982425C11.8146 0.982424 14.3351 2.09164 16.095 4.31006C17.8549 6.52848 18.7348 9.59781 18.7348 13.518C18.7348 17.1648 17.2285 20.8419 14.2158 24.5494C11.1733 28.2569 7.51929 31.0679 3.25382 32.9824L1.28514 29.746C4.65576 28.0745 7.29558 26.1296 9.2046 23.9112C11.1136 21.6928 12.2173 19.0033 12.5156 15.8428L10.01 15.8428C8.1606 15.8428 6.65426 15.6301 5.49095 15.2046C4.32764 14.7792 3.38804 14.1866 2.67216 13.4269C1.98611 12.6975 1.50885 11.8922 1.24039 11.0109C0.94211 10.1296 0.792967 9.21794 0.792967 8.27587Z" fill="#07678C"/>
</svg>
