<svg width="61" height="20" viewBox="0 0 61 20" fill="none" xmlns="http://www.w3.org/2000/svg">
<path d="M26.4441 19.4599H21.4666L24.5775 0.341616H29.5554L26.4441 19.4599ZM17.2792 0.341616L12.5339 13.4913L11.9724 10.6597L11.9729 10.6607L10.2981 2.06299C10.2981 2.06299 10.0956 0.341616 7.93696 0.341616H0.0920525L0 0.665333C0 0.665333 2.39899 1.16446 5.20658 2.85055L9.531 19.4604H14.7171L22.6362 0.341616H17.2792ZM56.4296 19.4599H61L57.0152 0.341105H53.014C51.1663 0.341105 50.7162 1.76587 50.7162 1.76587L43.2927 19.4599H48.4814L49.519 16.62H55.8466L56.4296 19.4599ZM50.9525 12.6971L53.5678 5.54257L55.0391 12.6971H50.9525ZM43.6819 4.93912L44.3922 0.833583C44.3922 0.833583 42.2004 0 39.9154 0C37.4454 0 31.5796 1.07957 31.5796 6.32911C31.5796 11.2682 38.4641 11.3296 38.4641 13.9239C38.4641 16.5183 32.2889 16.0534 30.2509 14.4174L29.511 18.7101C29.511 18.7101 31.7335 19.7897 35.1292 19.7897C38.5259 19.7897 43.6502 18.031 43.6502 13.2443C43.6502 8.27346 36.7038 7.81064 36.7038 5.64946C36.7043 3.48776 41.5519 3.76545 43.6819 4.93912Z" fill="#2566AF"/>
<path d="M11.9729 10.6589L10.2981 2.06122C10.2981 2.06122 10.0956 0.339844 7.93696 0.339844H0.0920525L0 0.663561C0 0.663561 3.77057 1.44498 7.3872 4.37276C10.8453 7.17115 11.9729 10.6589 11.9729 10.6589Z" fill="#E6A540"/>
</svg>
