<svg xmlns:dc="http://purl.org/dc/elements/1.1/" xmlns:cc="http://creativecommons.org/ns#" xmlns:rdf="http://www.w3.org/1999/02/22-rdf-syntax-ns#" xmlns:svg="http://www.w3.org/2000/svg" xmlns="http://www.w3.org/2000/svg" viewBox="0 0 1098.7635 108.093" height="108.093" width="1098.7635" xml:space="preserve" version="1.1" id="svg2"><metadata id="metadata8"><rdf:RDF><cc:Work rdf:about=""><dc:format>image/svg+xml</dc:format><dc:type rdf:resource="http://purl.org/dc/dcmitype/StillImage"/><dc:title/></cc:Work></rdf:RDF></metadata><defs id="defs6"><clipPath id="clipPath20" clipPathUnits="userSpaceOnUse"><path id="path22" d="M 0,700 1200,700 1200,0 0,0 0,700 Z"/></clipPath></defs><g transform="matrix(1.25,0,0,-1.25,-200.61812,491.5465)" id="g10"><g transform="translate(325.2797,371.7462)" id="g12"><path id="path14" style="fill:#1e1e1e;fill-opacity:1;fill-rule:nonzero;stroke:none" d="m 0,0 0,-42.808 -10.274,0 0,18.065 -18.15,0 0,-18.065 -10.274,0 0,42.808 10.274,0 0,-15.496 18.15,0 0,15.496 L 0,0 Z"/></g><g id="g16"><g clip-path="url(#clipPath20)" id="g18"><g transform="translate(383.4064,333.3048)" id="g24"><path id="path26" style="fill:#1e1e1e;fill-opacity:1;fill-rule:nonzero;stroke:none" d="m 0,0 c -3.339,-3.167 -7.791,-5.051 -13.185,-5.051 -5.822,0 -10.445,2.054 -13.784,5.479 -3.425,3.511 -5.479,8.219 -5.479,13.699 l 0,24.314 10.273,0 0,-24.743 c 0,-3.081 0.857,-5.222 2.483,-6.848 1.627,-1.798 3.853,-2.655 6.507,-2.655 2.654,0 4.709,0.857 6.336,2.569 1.455,1.626 2.397,3.767 2.397,6.934 l 0,24.743 10.274,0 0,-24.314 C 5.822,8.39 3.767,3.51 0,0"/></g><g transform="translate(425.0102,371.7462)" id="g28"><path id="path30" style="fill:#1e1e1e;fill-opacity:1;fill-rule:nonzero;stroke:none" d="M 0,0 13.27,-19.691 26.455,0 l 10.103,0 0,-42.808 -10.274,0 0,25.771 -0.343,0 -10.616,-16.181 -4.281,0 -10.787,16.181 -0.343,0 0,-25.771 -10.017,0 0,42.808 L 0,0 Z"/></g><g transform="translate(503.1706,345.5481)" id="g32"><path id="path34" style="fill:#1e1e1e;fill-opacity:1;fill-rule:nonzero;stroke:none" d="m 0,0 11.473,0 -5.395,14.383 -0.599,0 L 0,0 Z m 10.959,26.198 19.006,-42.808 -11.215,0 -3.168,7.363 -19.521,0 -3.167,-7.363 -10.959,0 19.007,42.808 10.017,0 z"/></g><g transform="translate(597.3414,371.7462)" id="g36"><path id="path38" style="fill:#1e1e1e;fill-opacity:1;fill-rule:nonzero;stroke:none" d="m 0,0 0,-42.808 -9.161,0 -21.404,25.856 0,-25.856 -10.102,0 0,42.808 9.16,0 21.49,-25.77 0,25.77 L 0,0 Z"/></g><g transform="translate(638.3454,328.9385)" id="g40"><path id="path42" style="fill:#1e1e1e;fill-opacity:1;fill-rule:nonzero;stroke:none" d="m 0,0 -17.466,42.808 11.302,0 11.558,-32.278 0.856,0 11.472,32.278 11.216,0 L 11.301,0 0,0 Z"/></g><g transform="translate(690.822,371.7462)" id="g44"><path id="path46" style="fill:#1e1e1e;fill-opacity:1;fill-rule:nonzero;stroke:none" d="m 0,0 34.503,0 0,-9.247 -24.229,0 0,-7.363 21.661,0 0,-9.16 -21.661,0 0,-7.877 24.999,0 0,-9.161 L 0,-42.808 0,0 Z"/></g><g transform="translate(791.5867,371.7462)" id="g48"><path id="path50" style="fill:#1e1e1e;fill-opacity:1;fill-rule:nonzero;stroke:none" d="m 0,0 0,-42.808 -9.161,0 -21.404,25.856 0,-25.856 -10.102,0 0,42.808 9.16,0 21.49,-25.77 0,25.77 L 0,0 Z"/></g><g transform="translate(815.1251,371.7462)" id="g52"><path id="path54" style="fill:#1e1e1e;fill-opacity:1;fill-rule:nonzero;stroke:none" d="m 0,0 39.64,0 0,-9.161 -14.726,0 0,-33.647 -10.274,0 0,33.647 L 0,-9.161 0,0 Z"/></g><g transform="translate(910.7517,333.3048)" id="g56"><path id="path58" style="fill:#1e1e1e;fill-opacity:1;fill-rule:nonzero;stroke:none" d="m 0,0 c -3.339,-3.167 -7.791,-5.051 -13.185,-5.051 -5.822,0 -10.445,2.054 -13.784,5.479 -3.425,3.511 -5.479,8.219 -5.479,13.699 l 0,24.314 10.273,0 0,-24.743 c 0,-3.081 0.857,-5.222 2.483,-6.848 1.627,-1.798 3.853,-2.655 6.507,-2.655 2.654,0 4.709,0.857 6.336,2.569 1.455,1.626 2.397,3.767 2.397,6.934 l 0,24.743 10.274,0 0,-24.314 C 5.822,8.39 3.767,3.51 0,0"/></g><g transform="translate(952.5265,348.9725)" id="g60"><path id="path62" style="fill:#1e1e1e;fill-opacity:1;fill-rule:nonzero;stroke:none" d="m 0,0 9.846,0 c 2.654,0 4.709,0.77 5.993,2.397 1.027,1.284 1.541,2.825 1.541,4.453 0,1.797 -0.514,3.338 -1.627,4.623 -1.284,1.284 -2.996,2.14 -5.822,2.14 L 0,13.613 0,0 Z m 25.685,-1.113 c -1.284,-2.226 -3.254,-4.109 -5.822,-5.565 l 7.448,-13.356 -11.815,0 -5.565,10.873 -9.931,0 0,-10.873 -10.274,0 0,42.808 20.976,0 c 6.164,0 10.788,-2.312 13.784,-6.164 2.055,-2.654 3.253,-6.079 3.253,-9.76 0,-2.997 -0.684,-5.651 -2.054,-7.963"/></g><g transform="translate(1004.2323,371.7462)" id="g64"><path id="path66" style="fill:#1e1e1e;fill-opacity:1;fill-rule:nonzero;stroke:none" d="m 0,0 34.503,0 0,-9.247 -24.229,0 0,-7.363 21.661,0 0,-9.16 -21.661,0 0,-7.877 24.999,0 0,-9.161 L 0,-42.808 0,0 Z"/></g><g transform="translate(210.7689,380.5818)" id="g68"><path id="path70" style="fill:#005e8a;fill-opacity:1;fill-rule:nonzero;stroke:none" d="m 0,0 c -0.562,-1.042 -1.422,-1.902 -2.449,-2.489 -1.788,-1.022 -3.602,-1.39 -5.276,-1.25 -1.934,0.161 -3.85,-0.454 -5.222,-1.826 l -1.595,-1.596 c -1.356,-1.355 -2.005,-3.245 -1.83,-5.154 0.179,-1.942 -0.323,-4.064 -1.731,-6.043 -0.489,-0.688 -1.132,-1.265 -1.87,-1.676 -7.922,-4.413 -16.004,3.688 -11.496,11.62 0.598,1.051 1.505,1.903 2.58,2.456 1.743,0.895 3.472,1.211 5.065,1.072 1.898,-0.166 3.782,0.421 5.129,1.768 l 1.706,1.706 c 1.348,1.347 1.935,3.234 1.77,5.133 -0.139,1.594 0.178,3.325 1.076,5.068 0.554,1.076 1.41,1.982 2.463,2.579 C -3.809,15.822 4.255,7.882 0,0"/></g><g transform="translate(245.8255,380.6421)" id="g72"><path id="path74" style="fill:#008eb5;fill-opacity:1;fill-rule:nonzero;stroke:none" d="m 0,0 c -0.531,-1 -1.331,-1.842 -2.299,-2.429 -1.848,-1.122 -3.731,-1.516 -5.464,-1.37 -1.927,0.163 -3.836,-0.457 -5.204,-1.824 l -1.515,-1.513 c -1.379,-1.378 -1.976,-3.309 -1.8,-5.252 0.158,-1.75 -0.236,-3.662 -1.357,-5.558 -0.49,-0.83 -1.192,-1.529 -2.023,-2.018 -1.893,-1.113 -3.8,-1.503 -5.547,-1.345 -1.938,0.176 -3.867,-0.418 -5.243,-1.795 l -1.631,-1.631 c -1.377,-1.376 -1.98,-3.299 -1.823,-5.239 0.141,-1.751 -0.271,-3.653 -1.403,-5.517 -0.48,-0.79 -1.151,-1.461 -1.942,-1.94 -1.863,-1.13 -3.764,-1.541 -5.513,-1.399 -1.938,0.157 -3.86,-0.446 -5.235,-1.821 l -2.715,-2.715 c -1.38,-1.379 -1.976,-3.311 -1.8,-5.253 0.158,-1.751 -0.236,-3.663 -1.356,-5.559 -0.491,-0.829 -1.192,-1.529 -2.023,-2.018 -1.894,-1.113 -3.801,-1.503 -5.548,-1.345 -1.938,0.176 -3.866,-0.419 -5.241,-1.796 l -0.432,-0.432 c -1.367,-1.37 -1.985,-3.281 -1.823,-5.21 0.144,-1.72 -0.245,-3.589 -1.347,-5.429 -0.584,-0.975 -1.427,-1.781 -2.43,-2.316 -7.873,-4.201 -15.782,3.834 -11.325,11.706 0.597,1.055 1.506,1.912 2.585,2.466 1.741,0.893 3.468,1.208 5.059,1.069 1.898,-0.165 3.782,0.422 5.129,1.768 l 0.549,0.55 c 1.365,1.365 1.972,3.269 1.831,5.194 -0.126,1.715 0.278,3.578 1.353,5.421 0.489,0.838 1.195,1.544 2.034,2.032 1.842,1.072 3.703,1.475 5.416,1.349 1.924,-0.141 3.827,0.465 5.192,1.829 l 2.787,2.787 c 1.374,1.375 1.985,3.295 1.825,5.233 -0.149,1.805 0.289,3.761 1.495,5.611 0.452,0.693 1.05,1.292 1.742,1.746 1.854,1.215 3.818,1.655 5.629,1.505 1.936,-0.16 3.855,0.452 5.229,1.826 l 1.699,1.699 c 1.365,1.365 1.972,3.269 1.831,5.194 -0.126,1.715 0.277,3.577 1.353,5.42 0.489,0.839 1.195,1.545 2.034,2.033 1.842,1.072 3.703,1.474 5.416,1.349 1.924,-0.141 3.827,0.465 5.191,1.829 l 1.637,1.637 c 1.347,1.347 1.935,3.232 1.769,5.13 -0.139,1.592 0.177,3.321 1.072,5.062 0.554,1.078 1.411,1.986 2.465,2.583 C -3.854,15.755 4.173,7.864 0,0"/></g><g transform="translate(228.2748,328.0382)" id="g76"><path id="path78" style="fill:#005e8a;fill-opacity:1;fill-rule:nonzero;stroke:none" d="m 0,0 c -0.561,-1.039 -1.419,-1.897 -2.444,-2.483 -1.786,-1.021 -3.599,-1.388 -5.272,-1.249 -1.934,0.161 -3.85,-0.454 -5.222,-1.826 l -1.596,-1.596 c -1.355,-1.355 -2.005,-3.246 -1.829,-5.155 0.178,-1.94 -0.322,-4.059 -1.727,-6.036 -0.488,-0.687 -1.128,-1.262 -1.863,-1.673 -7.913,-4.419 -15.962,3.625 -11.551,11.539 0.41,0.734 0.983,1.374 1.668,1.862 1.979,1.411 4.104,1.914 6.049,1.735 1.908,-0.176 3.797,0.475 5.152,1.83 l 1.596,1.595 c 1.372,1.373 1.986,3.29 1.825,5.224 -0.138,1.669 0.227,3.477 1.241,5.259 0.584,1.028 1.442,1.888 2.482,2.45 C -3.667,15.708 4.221,7.824 0,0"/></g><g transform="translate(176.9195,385.0242)" id="g80"><path id="path82" style="fill:#002851;fill-opacity:1;fill-rule:nonzero;stroke:none" d="m 0,0 c 0,-4.536 -3.677,-8.213 -8.213,-8.213 -4.535,0 -8.212,3.677 -8.212,8.213 0,4.536 3.677,8.213 8.212,8.213 C -3.677,8.213 0,4.536 0,0"/></g><g transform="translate(246.9678,314.9758)" id="g84"><path id="path86" style="fill:#002851;fill-opacity:1;fill-rule:nonzero;stroke:none" d="m 0,0 c 0,-4.536 -3.677,-8.213 -8.213,-8.213 -4.535,0 -8.212,3.677 -8.212,8.213 0,4.536 3.677,8.213 8.212,8.213 C -3.677,8.213 0,4.536 0,0"/></g></g></g></g></svg>
