<svg width="144" height="70" viewBox="0 0 144 70" fill="none" xmlns="http://www.w3.org/2000/svg">
<path d="M19.9059 58.2446C20.0806 56.6294 20.53 54.9894 21.3038 53.4487C22.3772 51.3365 23.9997 49.4977 25.822 48.2056C26.0217 48.0565 26.2962 48.0316 26.5459 48.1559C26.8704 48.3298 27.0201 48.7274 26.8454 49.0753C26.8204 49.1498 26.7705 49.1995 26.7206 49.2492C25.7221 50.0941 24.8734 51.1378 24.2743 52.3802C24.0247 52.8772 23.8749 53.3493 23.7002 53.8463L23.6502 54.0202L23.825 53.9706C25.8719 53.2996 27.6442 51.8335 28.6926 49.7462C29.4664 48.1807 29.766 46.5904 29.5413 44.9752C29.5164 44.8509 29.5413 44.7018 29.5913 44.5776C29.766 44.2545 30.1404 44.1303 30.4649 44.2794C30.5897 44.3291 30.6646 44.4285 30.7395 44.5279C31.9377 47.2116 32.0126 50.4668 30.5897 53.2996C29.2168 56.033 26.7705 57.8967 24.0247 58.6173C23.8499 58.6422 23.6752 58.6919 23.5254 58.7664C23.3257 58.8658 23.151 58.9901 23.0262 59.2137C23.0012 59.2386 23.0012 59.2634 22.9763 59.3131C22.9014 59.4622 22.8764 59.6113 22.8515 59.7604C22.8515 59.7852 22.8515 60.1828 22.9763 60.4562C23.0012 60.5059 23.0012 60.5307 23.0012 60.5804C23.0012 60.8041 22.8265 61.0029 22.5769 61.0029C22.477 61.0029 22.4021 60.978 22.3522 60.9283L20.1805 59.3628C20.0058 59.2137 19.9059 58.9901 19.8809 58.7416C19.856 58.7913 19.8809 58.344 19.9059 58.2446Z" fill="white"/>
<path d="M19.781 65.328C19.5064 62.6194 18.7575 59.9109 17.4595 57.3266C15.6871 53.7731 12.9413 50.7167 9.92087 48.5797C9.59636 48.3312 9.12208 48.2815 8.72268 48.4803C8.17351 48.7536 7.92389 49.4245 8.22344 50.0209C8.27336 50.1452 8.34825 50.2446 8.44809 50.344C10.0956 51.7355 11.5185 53.4998 12.5419 55.5623C12.9663 56.3823 13.2159 57.1775 13.4905 58.0223L13.5654 58.3205L13.2408 58.246C9.82102 57.1029 6.85051 54.6677 5.10315 51.1888C3.80512 48.6045 3.30587 45.9208 3.68031 43.2371C3.70527 43.0135 3.68031 42.7898 3.58046 42.591C3.30587 42.0444 2.65685 41.8456 2.10769 42.0941C1.90799 42.1935 1.75821 42.3425 1.65837 42.5165C-0.363577 46.9893 -0.488388 52.4313 1.90799 57.1775C4.20451 61.7497 8.29832 64.8559 12.8914 66.0486C13.1909 66.0983 13.4655 66.1977 13.7401 66.2971C14.0646 66.4462 14.3392 66.6947 14.5888 67.0674C14.6138 67.1171 14.6387 67.1668 14.6637 67.2165C14.7885 67.465 14.8384 67.7135 14.8634 67.962C14.8634 67.9868 14.8384 68.6578 14.6387 69.1299C14.6138 69.2045 14.5888 69.2542 14.5888 69.3287C14.5888 69.7263 14.8884 70.0245 15.2877 70.0245C15.4375 70.0245 15.5623 69.9748 15.6622 69.9002L19.2817 67.2911C19.5813 67.0426 19.756 66.6698 19.8059 66.2723C19.8309 66.2474 19.8059 65.5019 19.781 65.328Z" fill="white"/>
<path d="M11.8928 37.9937C11.718 36.3785 11.2687 34.7385 10.4949 33.1978C9.42149 31.0857 7.79895 29.2468 5.9767 27.9547C5.777 27.8056 5.50242 27.7807 5.2528 27.905C4.92829 28.0789 4.77852 28.4765 4.95325 28.8244C4.97821 28.899 5.02814 28.9486 5.07806 29.0232C6.07655 29.8681 6.92527 30.9117 7.52436 32.1542C7.77398 32.6512 7.92376 33.1233 8.09849 33.6203L8.14842 33.7942L7.94872 33.7445C5.90182 33.0736 4.1295 31.6075 3.08108 29.5202C2.30725 27.9795 2.00771 26.3643 2.23237 24.7491C2.25733 24.6249 2.23237 24.4758 2.18244 24.3764C2.03267 24.0534 1.63327 23.9291 1.30876 24.0782C1.18395 24.1279 1.10907 24.2273 1.03418 24.3267C-0.164009 27.0104 -0.238895 30.2657 1.18395 33.0985C2.55688 35.8319 5.00318 37.6955 7.74902 38.4162C7.92376 38.441 8.09849 38.4907 8.24827 38.5653C8.44797 38.6647 8.6227 38.7889 8.74751 39.0125C8.77247 39.0374 8.77247 39.0622 8.79744 39.1119C8.87232 39.261 8.89729 39.4101 8.92225 39.5592C8.92225 39.5841 8.92225 39.9817 8.79744 40.255C8.79744 40.3047 8.77247 40.3295 8.77247 40.3792C8.77247 40.6029 8.94721 40.8017 9.19683 40.8017C9.27172 40.8017 9.37157 40.7768 9.42149 40.7271L11.5932 39.1616C11.7679 39.0125 11.8678 38.7889 11.8928 38.5404C11.9177 38.5404 11.8928 38.0931 11.8928 37.9937Z" fill="white"/>
<path d="M11.9929 45.0755C12.2675 42.3669 13.0163 39.6584 14.3144 37.0741C16.0867 33.5206 18.8325 30.4642 21.853 28.3272C22.1775 28.0787 22.6518 28.029 23.0512 28.2278C23.6003 28.5011 23.85 29.172 23.5504 29.7436C23.5005 29.8678 23.4256 29.9672 23.3258 30.0666C21.6782 31.4582 20.2554 33.2225 19.2319 35.2849C18.8076 36.105 18.558 36.925 18.2834 37.745L18.1835 38.0432L18.508 37.9686C21.9279 36.8256 24.8984 34.3904 26.6457 30.9115C27.9438 28.3272 28.443 25.6435 28.0686 22.9598C28.0436 22.7361 28.0686 22.5125 28.1684 22.3137C28.443 21.767 29.092 21.5682 29.6412 21.8167C29.8409 21.9161 29.9907 22.0652 30.0905 22.2391C32.1125 26.712 32.2373 32.1539 29.8409 36.9001C27.5444 41.4724 23.4506 44.5785 18.8575 45.7713C18.558 45.821 18.2834 45.9204 18.0088 46.0198C17.6843 46.1689 17.4097 46.4173 17.185 46.7901C17.1601 46.8398 17.1351 46.8895 17.1102 46.9392C16.9853 47.1877 16.9354 47.4362 16.9105 47.6846C16.9105 47.7095 16.9354 48.3804 17.1351 48.8526C17.1601 48.9271 17.185 48.9768 17.185 49.0513C17.185 49.4489 16.8855 49.7471 16.4861 49.7471C16.3363 49.7471 16.2115 49.6974 16.1117 49.6229L12.4921 47.0137C12.1926 46.7652 12.0179 46.3925 11.9679 45.9949C11.943 45.9701 11.9929 45.2246 11.9929 45.0755Z" fill="white"/>
<path d="M8.49803 18.1399C8.49803 18.7114 7.94886 19.1835 7.27488 19.1835C6.6009 19.1835 6.07669 18.7114 6.07669 18.1399V1.04366C6.07669 0.472133 6.62586 0 7.27488 0C7.94886 0 8.49803 0.472133 8.49803 1.04366V18.1399Z" fill="white"/>
<path d="M24.4487 18.1399C24.4487 18.7114 23.8995 19.1835 23.2256 19.1835C22.5516 19.1835 22.0274 18.7114 22.0274 18.1399V1.04366C22.0274 0.472133 22.5765 0 23.2256 0C23.8995 0 24.4487 0.472133 24.4487 1.04366V18.1399Z" fill="white"/>
<path d="M16.4858 23.631C16.4858 24.2025 15.9367 24.6746 15.2627 24.6746C14.5887 24.6746 14.0395 24.2025 14.0395 23.631V1.01827C14.0395 0.446743 14.5887 -0.0253906 15.2627 -0.0253906C15.9367 -0.0253906 16.4858 0.446743 16.4858 1.01827V23.631Z" fill="white"/>
<path d="M45.1429 16.7478C44.5937 16.7478 44.1195 16.6733 43.6951 16.5242C43.2707 16.3751 42.9213 16.1514 42.6217 15.8532C42.3222 15.555 42.1225 15.232 41.9727 14.8096C41.8229 14.412 41.748 13.9647 41.748 13.4677V13.2689C41.748 12.8216 41.8229 12.4241 41.9727 12.0513C42.1225 11.6786 42.3471 11.3555 42.6217 11.0822C42.9213 10.8089 43.2707 10.6101 43.6951 10.4361C44.1195 10.287 44.5937 10.2125 45.1429 10.2125V9.56641H46.6906V10.2125C47.2148 10.2125 47.714 10.287 48.1384 10.4361C48.5627 10.5852 48.9122 10.8089 49.2118 11.0822C49.5113 11.3555 49.736 11.6786 49.8857 12.0513C50.0355 12.4241 50.1104 12.8465 50.1104 13.2689V13.4677C50.1104 13.9647 50.0355 14.412 49.8857 14.8096C49.736 15.2072 49.5113 15.555 49.2118 15.8532C48.9122 16.1514 48.5627 16.3502 48.1384 16.5242C47.714 16.6733 47.2397 16.7478 46.6906 16.7478V17.3939H45.1429V16.7478ZM43.3456 13.4926C43.3456 14.1635 43.4954 14.6605 43.77 14.9835C44.0695 15.3066 44.5189 15.4805 45.1429 15.4805V11.5046C44.5438 11.5046 44.0945 11.6537 43.7949 11.9768C43.4954 12.275 43.3456 12.7222 43.3456 13.2938V13.4926V13.4926ZM48.5128 13.2938C48.5128 12.7222 48.363 12.2998 48.0635 11.9768C47.7639 11.6786 47.3146 11.5046 46.7155 11.5046V15.4556C47.9137 15.4556 48.5128 14.8096 48.5128 13.4926V13.2938V13.2938Z" fill="white"/>
<path d="M54.4788 17.2209C54.0295 17.2209 53.6052 17.1464 53.1808 17.0221C52.7814 16.873 52.407 16.6742 52.1074 16.376C51.7829 16.0778 51.5333 15.7051 51.3586 15.233C51.1838 14.7608 51.084 14.2142 51.084 13.5432V13.3444C51.084 12.7232 51.1838 12.1765 51.3586 11.7292C51.5333 11.282 51.7829 10.9092 52.1074 10.6359C52.4319 10.3377 52.7814 10.1389 53.1808 9.98981C53.5802 9.86556 54.0295 9.79102 54.4788 9.79102C54.9282 9.79102 55.3775 9.86556 55.7769 9.98981C56.1763 10.1389 56.5507 10.3377 56.8503 10.6359C57.1748 10.9341 57.4244 11.282 57.5991 11.7292C57.7739 12.1765 57.8737 12.7232 57.8737 13.3444V13.5432C57.8737 14.1893 57.7739 14.7608 57.5991 15.233C57.4244 15.7051 57.1748 16.0778 56.8503 16.376C56.5257 16.6742 56.1763 16.8979 55.7769 17.0221C55.3775 17.1464 54.9531 17.2209 54.4788 17.2209ZM54.4788 15.9039C54.7035 15.9039 54.9282 15.8542 55.1528 15.7797C55.3775 15.7051 55.5522 15.5809 55.727 15.3821C55.9017 15.2081 56.0265 14.9596 56.1264 14.6614C56.2262 14.3633 56.2761 13.9905 56.2761 13.5432V13.3444C56.2761 12.922 56.2262 12.5741 56.1264 12.2759C56.0265 11.9777 55.9017 11.7541 55.727 11.5802C55.5522 11.4062 55.3775 11.282 55.1528 11.2074C54.9282 11.1329 54.7035 11.0832 54.4788 11.0832C54.2542 11.0832 54.0295 11.1329 53.8049 11.2074C53.5802 11.282 53.4055 11.4062 53.2307 11.5802C53.056 11.7541 52.9312 12.0026 52.8313 12.2759C52.7315 12.5741 52.6816 12.922 52.6816 13.3444V13.5432C52.6816 13.9905 52.7315 14.3633 52.8313 14.6614C52.9312 14.9596 53.056 15.2081 53.2307 15.3821C53.4055 15.556 53.5802 15.7051 53.8049 15.7797C54.0295 15.8791 54.2542 15.9039 54.4788 15.9039Z" fill="white"/>
<path d="M59.2466 9.88867H60.7942V12.7463H63.8896V9.88867H65.4372V17.0701H63.8896V14.0136H60.7942V17.0701H59.2466V9.88867Z" fill="white"/>
<path d="M66.4604 15.8028H67.2592C67.3591 15.5543 67.4589 15.2809 67.5089 14.933C67.5837 14.5852 67.6337 14.2373 67.6836 13.8645C67.7335 13.4918 67.7585 13.0942 67.7834 12.6966C67.8084 12.299 67.8084 11.9015 67.8084 11.5287V9.88867H72.9007V15.8028H73.6745V18.4119H72.3016V17.0701H67.8334V18.4119H66.4604V15.8028ZM71.353 15.8028V11.156H69.2812V11.7275C69.2812 12.6718 69.2312 13.4669 69.1564 14.113C69.0565 14.7591 68.9317 15.3306 68.7819 15.8028H71.353V15.8028Z" fill="white"/>
<path d="M42.0977 21.8926H48.1884V29.074H46.6408V23.1599H43.6453V29.074H42.0977V21.8926V21.8926Z" fill="white"/>
<path d="M49.8359 21.8926H52.6317C53.6052 21.8926 54.3291 22.1162 54.8034 22.5387C55.2777 22.9611 55.5273 23.5326 55.5273 24.2532C55.5273 24.9739 55.2777 25.5454 54.8034 25.9678C54.3291 26.3903 53.6052 26.6139 52.6317 26.6139H51.3836V29.074H49.8359V21.8926ZM52.4819 25.3466C53.0311 25.3466 53.4305 25.2472 53.6302 25.0733C53.8548 24.8993 53.9547 24.626 53.9547 24.2532C53.9547 23.9054 53.8548 23.632 53.6302 23.4581C53.4055 23.2593 53.0311 23.1847 52.4819 23.1847H51.4086V25.3715H52.4819V25.3466Z" fill="white"/>
<path d="M59.7957 29.1975C59.3464 29.1975 58.9221 29.1229 58.4977 28.9987C58.0983 28.8496 57.7239 28.6508 57.4243 28.3526C57.0998 28.0544 56.8502 27.6817 56.6755 27.2095C56.5007 26.7374 56.4009 26.1907 56.4009 25.5198V25.321C56.4009 24.6998 56.5007 24.1531 56.6755 23.7058C56.8502 23.2585 57.0998 22.8858 57.4243 22.6124C57.7488 22.3143 58.0983 22.1155 58.4977 21.9664C58.8971 21.8173 59.3464 21.7676 59.7957 21.7676C60.2451 21.7676 60.6694 21.8421 61.0938 21.9664C61.4932 22.1155 61.8676 22.3143 62.1672 22.6124C62.4917 22.9106 62.7413 23.2585 62.916 23.7058C63.0908 24.1531 63.1906 24.6998 63.1906 25.321V25.5198C63.1906 26.1659 63.0908 26.7374 62.916 27.2095C62.7413 27.6817 62.4917 28.0544 62.1672 28.3526C61.8427 28.6508 61.4932 28.8744 61.0938 28.9987C60.6944 29.1229 60.27 29.1975 59.7957 29.1975ZM59.7957 27.9053C60.0204 27.9053 60.2451 27.8556 60.4697 27.7811C60.6944 27.7065 60.8691 27.5823 61.0439 27.3835C61.2186 27.2095 61.3434 26.961 61.4433 26.6629C61.5431 26.3647 61.593 25.9919 61.593 25.5446V25.3459C61.593 24.9234 61.5431 24.5755 61.4433 24.2773C61.3434 23.9791 61.2186 23.7555 61.0439 23.5816C60.8691 23.4076 60.6944 23.2834 60.4697 23.2088C60.2451 23.1343 60.0204 23.0846 59.7957 23.0846C59.5711 23.0846 59.3464 23.1343 59.1218 23.2088C58.8971 23.2834 58.7224 23.4076 58.5476 23.5816C58.3729 23.7555 58.2481 24.004 58.1482 24.2773C58.0484 24.5755 57.9985 24.9234 57.9985 25.3459V25.5446C57.9985 25.9919 58.0484 26.3647 58.1482 26.6629C58.2481 26.961 58.3729 27.2095 58.5476 27.3835C58.7224 27.5574 58.8971 27.7065 59.1218 27.7811C59.3464 27.8556 59.5711 27.9053 59.7957 27.9053Z" fill="white"/>
<path d="M63.665 27.8067H64.4638C64.5637 27.5582 64.6635 27.2848 64.7135 26.937C64.7883 26.5891 64.8383 26.2412 64.8882 25.8684C64.9381 25.4957 64.9631 25.0981 64.988 24.7005C65.013 24.3029 65.013 23.9054 65.013 23.5326V21.8926H70.1053V27.8067H70.8791V30.4158H69.5062V29.074H65.038V30.4158H63.665V27.8067ZM68.5576 27.8067V23.1599H66.4858V23.7314C66.4858 24.6757 66.4358 25.4709 66.361 26.1169C66.2611 26.763 66.1363 27.3345 65.9865 27.8067H68.5576V27.8067Z" fill="white"/>
<path d="M75.0229 29.1975C74.5735 29.1975 74.1242 29.1229 73.7248 28.9987C73.3254 28.8496 72.951 28.6508 72.6514 28.3526C72.3269 28.0544 72.0773 27.6817 71.9026 27.2095C71.7278 26.7374 71.628 26.1907 71.628 25.5198V25.321C71.628 24.6998 71.7278 24.1531 71.9026 23.7058C72.0773 23.2585 72.3269 22.8858 72.6514 22.6124C72.976 22.3143 73.3254 22.1155 73.7248 21.9664C74.1242 21.8173 74.5735 21.7676 75.0229 21.7676C75.4722 21.7676 75.9215 21.8421 76.3209 21.9664C76.7203 22.1155 77.0947 22.3143 77.3943 22.6124C77.7188 22.9106 77.9684 23.2585 78.1432 23.7058C78.3179 24.1531 78.4177 24.6998 78.4177 25.321V25.5198C78.4177 26.1659 78.3179 26.7374 78.1432 27.2095C77.9684 27.6817 77.7188 28.0544 77.3943 28.3526C77.0698 28.6508 76.7203 28.8744 76.3209 28.9987C75.8965 29.1229 75.4722 29.1975 75.0229 29.1975ZM75.0229 27.9053C75.2475 27.9053 75.4722 27.8556 75.6969 27.7811C75.9215 27.7065 76.0962 27.5823 76.271 27.3835C76.4457 27.2095 76.5705 26.961 76.6704 26.6629C76.7702 26.3647 76.8202 25.9919 76.8202 25.5446V25.3459C76.8202 24.9234 76.7702 24.5755 76.6704 24.2773C76.5705 23.9791 76.4457 23.7555 76.271 23.5816C76.0962 23.4076 75.9215 23.2834 75.6969 23.2088C75.4722 23.1343 75.2475 23.0846 75.0229 23.0846C74.7982 23.0846 74.5735 23.1343 74.3489 23.2088C74.1242 23.2834 73.9495 23.4076 73.7748 23.5816C73.6 23.7555 73.4752 24.004 73.3754 24.2773C73.2755 24.5755 73.2256 24.9234 73.2256 25.3459V25.5446C73.2256 25.9919 73.2755 26.3647 73.3754 26.6629C73.4752 26.961 73.6 27.2095 73.7748 27.3835C73.9495 27.5574 74.1242 27.7065 74.3489 27.7811C74.5486 27.8556 74.7732 27.9053 75.0229 27.9053Z" fill="white"/>
<path d="M79.7656 21.8926H82.8609C83.6847 21.8926 84.2838 22.0665 84.6582 22.3896C85.0327 22.7374 85.2324 23.2096 85.2324 23.806C85.2324 24.1787 85.1325 24.5017 84.9578 24.7502C84.783 25.0236 84.5334 25.1975 84.2089 25.3218C84.6333 25.4212 84.9578 25.6199 85.1824 25.8933C85.4321 26.1915 85.5319 26.5642 85.5319 27.0363C85.5319 27.3345 85.482 27.6327 85.3821 27.8812C85.2823 28.1297 85.1325 28.3533 84.9328 28.5273C84.7331 28.7012 84.4585 28.8503 84.134 28.9497C83.8095 29.0491 83.4101 29.0988 82.9608 29.0988H79.7656V21.8926ZM82.5614 24.8496C82.9858 24.8496 83.2853 24.7751 83.4351 24.6011C83.6098 24.4272 83.6847 24.2035 83.6847 23.9302C83.6847 23.632 83.6098 23.4332 83.4351 23.2841C83.2603 23.135 82.9858 23.0605 82.5614 23.0605H81.3133V24.8496H82.5614ZM82.7112 27.9061C83.1855 27.9061 83.5349 27.8315 83.7097 27.6576C83.8844 27.4836 83.9842 27.26 83.9842 26.9369C83.9842 26.6139 83.8844 26.3654 83.7097 26.1915C83.5349 26.0175 83.1855 25.9181 82.6862 25.9181H81.2883V27.9309H82.7112V27.9061Z" fill="white"/>
<path d="M89.8255 29.1975C89.3762 29.1975 88.9518 29.1229 88.5275 28.9987C88.1281 28.8496 87.7537 28.6508 87.4541 28.3526C87.1296 28.0544 86.88 27.6817 86.7052 27.2095C86.5305 26.7374 86.4307 26.1907 86.4307 25.5198V25.321C86.4307 24.6998 86.5305 24.1531 86.7052 23.7058C86.88 23.2585 87.1296 22.8858 87.4541 22.6124C87.7786 22.3143 88.1281 22.1155 88.5275 21.9664C88.9269 21.8173 89.3762 21.7676 89.8255 21.7676C90.2748 21.7676 90.6992 21.8421 91.1236 21.9664C91.5229 22.1155 91.8974 22.3143 92.1969 22.6124C92.5214 22.9106 92.7711 23.2585 92.9458 23.7058C93.1205 24.1531 93.2204 24.6998 93.2204 25.321V25.5198C93.2204 26.1659 93.1205 26.7374 92.9458 27.2095C92.7711 27.6817 92.5214 28.0544 92.1969 28.3526C91.8724 28.6508 91.5229 28.8744 91.1236 28.9987C90.7242 29.1229 90.2748 29.1975 89.8255 29.1975ZM89.8255 27.9053C90.0502 27.9053 90.2748 27.8556 90.4995 27.7811C90.7242 27.7065 90.8989 27.5823 91.0736 27.3835C91.2484 27.2095 91.3732 26.961 91.473 26.6629C91.5729 26.3647 91.6228 25.9919 91.6228 25.5446V25.3459C91.6228 24.9234 91.5729 24.5755 91.473 24.2773C91.3732 23.9791 91.2484 23.7555 91.0736 23.5816C90.8989 23.4076 90.7242 23.2834 90.4995 23.2088C90.2748 23.1343 90.0502 23.0846 89.8255 23.0846C89.6009 23.0846 89.3762 23.1343 89.1515 23.2088C88.9269 23.2834 88.7521 23.4076 88.5774 23.5816C88.4027 23.7555 88.2779 24.004 88.178 24.2773C88.0782 24.5755 88.0282 24.9234 88.0282 25.3459V25.5446C88.0282 25.9919 88.0782 26.3647 88.178 26.6629C88.2779 26.961 88.4027 27.2095 88.5774 27.3835C88.7521 27.5574 88.9269 27.7065 89.1515 27.7811C89.3762 27.8556 89.6009 27.9053 89.8255 27.9053Z" fill="white"/>
<path d="M94.4184 29.1977C94.3685 29.1977 94.2936 29.1977 94.2187 29.1977C94.1439 29.1977 94.069 29.1977 94.019 29.1728V27.8061C94.044 27.8061 94.0939 27.8061 94.1688 27.8061C94.3436 27.8061 94.4933 27.7564 94.6181 27.6819C94.7429 27.6073 94.8428 27.4334 94.9177 27.1601C94.9926 26.8867 95.0425 26.514 95.0924 25.9921C95.1174 25.4703 95.1423 24.7994 95.1423 23.9297V21.8672H100.409V29.0734H98.8617V23.1593H96.6151V24.1533C96.6151 25.2467 96.5652 26.1164 96.4653 26.7873C96.3655 27.4582 96.2157 27.9552 96.041 28.328C95.8663 28.6758 95.6166 28.9243 95.342 29.0486C95.0924 29.148 94.7679 29.1977 94.4184 29.1977Z" fill="white"/>
<path d="M102.057 21.8926H103.605V24.452H104.853C105.352 24.452 105.777 24.5017 106.126 24.626C106.5 24.7254 106.8 24.8993 107.025 25.0981C107.274 25.2969 107.449 25.5454 107.549 25.8187C107.674 26.0921 107.724 26.4151 107.724 26.763C107.724 27.1109 107.674 27.4339 107.549 27.7073C107.424 27.9806 107.249 28.2291 107.025 28.4279C106.8 28.6267 106.475 28.7758 106.126 28.9C105.752 28.9994 105.327 29.074 104.853 29.074H102.057V21.8926ZM104.703 27.8067C105.252 27.8067 105.652 27.7073 105.876 27.5333C106.101 27.3594 106.201 27.086 106.201 26.763C106.201 26.44 106.101 26.1915 105.876 25.9927C105.652 25.8187 105.277 25.7193 104.703 25.7193H103.63V27.8067H104.703V27.8067Z" fill="white"/>
<path d="M111.817 29.1975C111.343 29.1975 110.919 29.1229 110.519 28.9987C110.12 28.8496 109.77 28.6508 109.496 28.3526C109.196 28.0544 108.972 27.6817 108.822 27.2095C108.672 26.7374 108.572 26.1907 108.572 25.5198V25.321C108.572 24.6998 108.647 24.1531 108.822 23.7058C108.997 23.2585 109.221 22.8858 109.521 22.6124C109.82 22.3143 110.17 22.1155 110.544 21.9664C110.944 21.8173 111.368 21.7676 111.817 21.7676C112.217 21.7676 112.616 21.8173 112.966 21.9167C113.315 22.0161 113.64 22.1652 113.914 22.364C114.189 22.5628 114.413 22.8361 114.563 23.1343C114.738 23.4573 114.838 23.8301 114.863 24.2525H113.24C113.165 23.8301 112.991 23.5319 112.741 23.3579C112.491 23.1591 112.167 23.0597 111.792 23.0597C111.568 23.0597 111.368 23.1094 111.168 23.184C110.969 23.2585 110.794 23.3828 110.644 23.5567C110.494 23.7307 110.37 23.9791 110.27 24.2525C110.17 24.5507 110.12 24.8986 110.12 25.321V25.5198C110.12 25.9671 110.17 26.3398 110.27 26.6629C110.37 26.961 110.494 27.2095 110.644 27.3835C110.794 27.5574 110.969 27.7065 111.168 27.7811C111.368 27.8556 111.568 27.9053 111.767 27.9053C112.167 27.9053 112.491 27.8059 112.741 27.6071C112.991 27.4083 113.14 27.1101 113.215 26.7126H114.838C114.813 27.1598 114.713 27.5574 114.538 27.8556C114.364 28.1787 114.164 28.4271 113.889 28.6259C113.615 28.8247 113.315 28.9738 112.941 29.0484C112.616 29.1478 112.217 29.1975 111.817 29.1975Z" fill="white"/>
<path d="M117.608 23.1599H115.287V21.8926H121.477V23.1599H119.156V29.074H117.608V23.1599Z" fill="white"/>
<path d="M122.526 21.8926H125.621C126.445 21.8926 127.019 22.0665 127.419 22.3896C127.793 22.7374 127.993 23.2096 127.993 23.806C127.993 24.1787 127.893 24.5017 127.718 24.7502C127.543 25.0236 127.294 25.1975 126.969 25.3218C127.394 25.4212 127.718 25.6199 127.943 25.8933C128.167 26.1915 128.292 26.5642 128.292 27.0363C128.292 27.3345 128.242 27.6327 128.142 27.8812C128.043 28.1297 127.893 28.3533 127.693 28.5273C127.493 28.7012 127.219 28.8503 126.894 28.9497C126.57 29.0491 126.17 29.0988 125.721 29.0988H122.501V21.8926H122.526ZM125.297 24.8496C125.721 24.8496 126.021 24.7751 126.17 24.6011C126.345 24.4272 126.42 24.2035 126.42 23.9302C126.42 23.632 126.345 23.4332 126.17 23.2841C125.996 23.135 125.721 23.0605 125.297 23.0605H124.049V24.8496H125.297ZM125.471 27.9061C125.946 27.9061 126.295 27.8315 126.47 27.6576C126.645 27.4836 126.745 27.26 126.745 26.9369C126.745 26.6139 126.645 26.3654 126.47 26.1915C126.295 26.0175 125.946 25.9181 125.447 25.9181H124.049V27.9309H125.471V27.9061Z" fill="white"/>
<path d="M129.54 21.8926H131.088V26.6636L134.233 21.8926H135.731V29.074H134.183V24.3029L131.013 29.074H129.515V21.8926H129.54Z" fill="white"/>
<path d="M138.776 26.2909C138.252 26.1169 137.878 25.8684 137.628 25.4957C137.379 25.123 137.254 24.7005 137.254 24.2035C137.254 23.8557 137.304 23.5326 137.428 23.2593C137.553 22.9859 137.728 22.7374 137.953 22.5387C138.177 22.3399 138.452 22.1908 138.801 22.0665C139.151 21.9671 139.55 21.8926 140 21.8926H142.945V29.074H141.397V26.44H140.249L138.652 29.074H136.929L138.776 26.2909ZM138.776 24.2035C138.776 24.3775 138.801 24.5266 138.851 24.6508C138.901 24.7751 138.976 24.8993 139.101 24.9739C139.226 25.0484 139.375 25.123 139.55 25.1727C139.75 25.2224 139.975 25.2472 140.274 25.2472H141.348V23.1599H140.274C139.975 23.1599 139.75 23.1847 139.55 23.2344C139.351 23.2841 139.201 23.3338 139.101 23.4332C138.976 23.5078 138.901 23.632 138.851 23.7563C138.801 23.8805 138.776 24.0296 138.776 24.2035Z" fill="white"/>
<path d="M43.0708 38.5898H55.0527C60.6692 38.5898 64.4635 42.69 64.4635 48.4798C64.4635 54.2448 60.6692 58.4443 55.0527 58.4443H50.1351V67.3154H43.0708V38.5898ZM53.6049 52.406C56.0512 52.406 57.2743 50.7659 57.2743 48.4798C57.2743 46.1937 56.0512 44.6033 53.7297 44.6033H50.1351V52.406H53.6049Z" fill="white"/>
<path d="M70.5043 60.3825C71.2781 61.0286 72.3515 61.8238 73.6994 61.8238C74.8227 61.8238 75.5966 61.3019 75.996 60.3328L64.8628 38.5898H72.6261L77.4188 48.9271C78.3923 50.9896 78.9914 52.7787 78.9914 52.7787H79.0663C79.0663 52.7787 79.5156 50.9647 80.1896 48.9768L83.7343 38.6147H91.173L82.6609 60.134C81.3379 63.5135 79.1162 67.7876 74.0239 67.7876C71.4778 67.7876 69.4559 67.0421 67.4339 65.6257L70.5043 60.3825Z" fill="white"/>
<path d="M107.349 38.1172C111.218 38.1172 115.337 39.3845 118.158 42.1676L114.887 47.4853C113.04 45.8701 110.244 44.5531 107.673 44.5531C101.907 44.5531 99.5107 48.6284 99.5107 52.7533C99.5107 57.0274 102.082 61.4008 107.673 61.4008C110.544 61.4008 113.365 59.8353 115.337 57.8722L118.981 63.016C116.435 65.6252 112.641 67.8367 107.349 67.8367C98.0629 67.8367 92.2218 61.4505 92.2218 52.9273C92.1968 44.5531 98.4124 38.1172 107.349 38.1172Z" fill="white"/>
<path d="M122.551 38.5898H129.615V47.461H134.533C140.149 47.461 143.943 51.6356 143.943 57.4255C143.943 63.2153 140.149 67.3154 134.533 67.3154H122.551V38.5898ZM133.21 61.3019C135.556 61.3019 136.754 59.7365 136.754 57.4503C136.754 55.1642 135.556 53.5242 133.085 53.5242H129.615V61.3019H133.21Z" fill="white"/>
</svg>
