<svg width="257" height="256" viewBox="0 0 257 256" fill="none" xmlns="http://www.w3.org/2000/svg">
<circle cx="131.407" cy="129.931" r="125.502" fill="#22B573"/>
<mask id="mask0_922_5101" style="mask-type:alpha" maskUnits="userSpaceOnUse" x="5" y="4" width="252" height="252">
<circle cx="131.407" cy="129.931" r="125.502" fill="#22B573"/>
<circle cx="131.407" cy="129.931" r="125.502" fill="url(#paint0_linear_922_5101)"/>
</mask>
<g mask="url(#mask0_922_5101)">
<circle cx="131.407" cy="129.931" r="125.502" fill="#22B573"/>
<circle cx="131.407" cy="129.931" r="125.502" fill="url(#paint1_linear_922_5101)"/>
<path d="M206.481 139.295C200.638 179.067 179.854 209.883 160.677 208.316C141.499 206.75 130.78 173.109 136.624 133.337C142.467 93.5652 163.251 62.7493 182.428 64.3156C201.921 66.0047 212.64 99.6457 206.481 139.295Z" fill="#E0922E"/>
<path d="M140.077 112.447C140.077 112.447 162.879 97.8752 179.665 115.322C184.858 121.79 190.138 126.27 183.444 122.452C176.75 118.634 147.684 115.003 137.758 123.267C137.433 123.141 137.841 116.831 140.077 112.447Z" fill="#754C24"/>
<path d="M135.743 145.829C135.743 145.829 155.541 129.374 173.57 142.819C179.336 147.876 185.041 151.3 177.925 148.535C171.133 145.896 142.945 146.615 134.516 155.817C134.516 155.817 134.159 150.446 135.743 145.829Z" fill="#754C24"/>
<path d="M84.1788 172.778L87.8014 116.785L66.6427 85.9759L51.6218 108.918L48.8656 149.303L84.1788 172.778Z" fill="#F4D6D8"/>
<path d="M139.42 117.743L90.3752 119.27L86.7083 173.61L135.753 172.083L139.42 117.743Z" fill="#D4145A"/>
<path d="M139.011 148.756L88.509 150.262L86.8417 173.934L137.344 172.428L139.011 148.756Z" fill="#FF7BAC"/>
<path d="M65.1946 87.2358L113.136 85.9425L138.365 117.428L86.9126 119.015L65.1946 87.2358Z" fill="#9E005D"/>
<path d="M112.418 72.5923L64.9646 73.9746L63.9995 87.3596L111.453 85.9773L112.418 72.5923Z" fill="#D4145A"/>
<path d="M86.9128 147.649L51.2039 125.397L49.3844 148.757L85.4546 172.78L86.9128 147.649Z" fill="white"/>
<path d="M109.743 96.9545C111.107 101.483 109.346 106.42 105.31 108.082C101.59 109.866 97.1382 107.362 95.7735 102.834C94.4087 98.3047 96.1701 93.3683 100.207 91.7058C104.095 90.3874 108.378 92.4257 109.743 96.9545Z" fill="black"/>
<path d="M113.463 95.3962C114.827 99.9236 112.898 104.394 109.18 106.177C105.461 107.96 101.327 105.578 99.9631 101.051C98.5988 96.5232 100.528 92.0531 104.246 90.2702C107.817 88.8311 111.95 91.2127 113.463 95.3962Z" fill="white"/>
<path opacity="0.2" d="M49.791 138.633L50.1713 131.384C50.1713 131.384 78.3863 158.49 101.885 157.852C125.384 157.213 138.779 153.43 138.779 153.43L138.132 162.218C138.132 162.218 78.6976 175.874 49.791 138.633Z" fill="black"/>
<path d="M206.253 137.188C178.13 164.833 130.943 161.589 130.943 161.589C130.943 161.589 83.6754 167.913 59.2489 141.773C59.2489 141.773 46.2654 129.209 46.6105 136.941L51.5848 321.637L120.555 319.611L190.305 317.484L220.047 131.663C221.114 124.072 206.253 137.188 206.253 137.188Z" fill="#E6BA7B"/>
<path d="M168.916 245.365C162.732 268.242 140.364 283.33 118.938 279.145C97.5111 274.959 85.2164 253.03 91.4006 230.152C97.5848 207.274 119.952 192.187 141.379 196.372C162.805 200.557 175.1 222.487 168.916 245.365Z" fill="#B89562"/>
<path opacity="0.2" d="M155.1 162.568C155.1 162.568 156.946 123.363 140.091 121.171L137.9 163.8C137.9 163.8 144.203 164.664 155.1 162.568Z" fill="black"/>
</g>
<circle cx="47.2477" cy="47.2477" r="44.7477" fill="white"/>
<circle cx="47.2477" cy="47.2477" r="44.7477" stroke="#22B573" stroke-width="5"/>
<circle cx="47.2477" cy="47.2477" r="44.7477" stroke="url(#paint2_linear_922_5101)" stroke-width="5"/>
<rect x="22.147" y="48.6562" width="8.25571" height="26.4265" transform="rotate(-45 22.147 48.6562)" fill="#22B573"/>
<rect x="22.147" y="48.6562" width="8.25571" height="26.4265" transform="rotate(-45 22.147 48.6562)" fill="url(#paint3_linear_922_5101)"/>
<rect x="67.5298" y="28.0547" width="8.90161" height="46.6579" transform="rotate(45 67.5298 28.0547)" fill="#22B573"/>
<rect x="67.5298" y="28.0547" width="8.90161" height="46.6579" transform="rotate(45 67.5298 28.0547)" fill="url(#paint4_linear_922_5101)"/>
<defs>
<linearGradient id="paint0_linear_922_5101" x1="167.906" y1="266.015" x2="64.7142" y2="0.477989" gradientUnits="userSpaceOnUse">
<stop stop-color="#257557"/>
<stop offset="1" stop-color="#22B573"/>
</linearGradient>
<linearGradient id="paint1_linear_922_5101" x1="136.5" y1="255" x2="99.4855" y2="9.5826" gradientUnits="userSpaceOnUse">
<stop stop-color="#257557"/>
<stop offset="1" stop-color="#22B573"/>
</linearGradient>
<linearGradient id="paint2_linear_922_5101" x1="47.2477" y1="0" x2="47.2477" y2="94.4953" gradientUnits="userSpaceOnUse">
<stop stop-color="#22B573"/>
<stop offset="1" stop-color="#277B5B"/>
</linearGradient>
<linearGradient id="paint3_linear_922_5101" x1="27.4753" y1="76.1969" x2="11.7618" y2="63.565" gradientUnits="userSpaceOnUse">
<stop stop-color="#257557"/>
<stop offset="1" stop-color="#22B573"/>
</linearGradient>
<linearGradient id="paint4_linear_922_5101" x1="73.275" y1="76.6797" x2="50.7999" y2="65.6459" gradientUnits="userSpaceOnUse">
<stop stop-color="#257557"/>
<stop offset="1" stop-color="#22B573"/>
</linearGradient>
</defs>
</svg>
