<svg width="57" height="35" viewBox="0 0 57 35" fill="none" xmlns="http://www.w3.org/2000/svg">
<path fill-rule="evenodd" clip-rule="evenodd" d="M28.4194 29.7708C31.4142 32.5303 35.436 34.2042 39.8106 34.2042C49.2057 34.2042 56.8097 26.5413 56.8097 17.1166C56.8097 7.66316 49.2057 0 39.8106 0C35.436 0 31.4142 1.67348 28.4194 4.43335C24.9843 7.5747 22.8115 12.0962 22.8115 17.1166C22.8119 22.137 24.9843 26.6588 28.4194 29.7708Z" fill="#E9B040"/>
<path fill-rule="evenodd" clip-rule="evenodd" d="M54.5498 26.6299C54.5498 26.3362 54.7848 26.1016 55.0781 26.1016C55.4009 26.1016 55.6355 26.3365 55.6355 26.6299C55.6355 26.9533 55.4005 27.188 55.0781 27.188C54.7848 27.188 54.5498 26.9533 54.5498 26.6299ZM55.0781 27.0708C55.3131 27.0708 55.518 26.8649 55.518 26.6302C55.518 26.3956 55.3128 26.2194 55.0781 26.2194C54.8722 26.2194 54.6673 26.3956 54.6673 26.6302C54.6673 26.8649 54.8725 27.0708 55.0781 27.0708ZM55.0194 26.8946H54.9019V26.3953H55.1072C55.1369 26.3953 55.1956 26.3953 55.2247 26.425C55.2834 26.454 55.2834 26.4837 55.2834 26.5425C55.2834 26.6012 55.2544 26.66 55.1956 26.66L55.3131 26.8949H55.1659L55.1072 26.689H55.0194V26.8946V26.6009H55.1369C55.1659 26.6009 55.1659 26.5712 55.1659 26.5421C55.1659 26.5124 55.1659 26.5124 55.1369 26.4834H55.0194V26.8946Z" fill="#E9B040"/>
<path fill-rule="evenodd" clip-rule="evenodd" d="M33.9101 15.2966C33.8514 14.6802 33.7339 14.0931 33.6164 13.4763H23.2231C23.3406 12.8598 23.5168 12.2727 23.6927 11.6853H33.1174C32.9128 11.0672 32.6777 10.4597 32.4129 9.86497H24.427C24.7207 9.24309 25.044 8.63562 25.3959 8.04464H31.4149C31.0276 7.41761 30.596 6.81909 30.1233 6.25368H26.6879C27.2193 5.60473 27.7983 4.99626 28.4201 4.43335C25.3962 1.70285 21.4031 0 16.9991 0C7.63344 0 0 7.66316 0 17.1166C0 26.5413 7.63344 34.2042 16.9991 34.2042C21.4031 34.2042 25.3959 32.5303 28.4201 29.7708C29.0324 29.2177 29.6018 28.6189 30.1233 27.9795H26.6879C26.2179 27.3924 25.8071 26.8053 25.3959 26.1592H31.4149C31.7934 25.5786 32.1271 24.9701 32.4132 24.3388H24.427C24.1626 23.7518 23.8986 23.1647 23.6927 22.5475H33.1174C33.3227 21.9604 33.4699 21.3443 33.616 20.7272C33.7335 20.1401 33.851 19.524 33.9098 18.9069C33.9693 18.3116 33.9988 17.7138 33.9982 17.1156C33.9982 16.5001 33.9688 15.8837 33.9101 15.2966Z" fill="#CC2131"/>
<path fill-rule="evenodd" clip-rule="evenodd" d="M54.5498 21.0808C54.5498 20.7581 54.7848 20.5234 55.0781 20.5234C55.4009 20.5234 55.6355 20.7584 55.6355 21.0808C55.6355 21.3745 55.4005 21.6389 55.0781 21.6389C54.7848 21.6389 54.5498 21.3742 54.5498 21.0808ZM55.0781 21.4917C55.3131 21.4917 55.518 21.3154 55.518 21.0808C55.518 20.8462 55.3128 20.67 55.0781 20.67C54.8722 20.67 54.6673 20.8462 54.6673 21.0808C54.6673 21.3154 54.8725 21.4917 55.0781 21.4917ZM55.0194 21.3154H54.9019V20.8458H55.2247C55.2834 20.8755 55.2834 20.9343 55.2834 20.993C55.2834 21.0221 55.2544 21.0808 55.1956 21.1105L55.3131 21.3158H55.1659L55.1072 21.1395H55.0194V21.3154V21.0514H55.0781C55.1072 21.0514 55.1369 21.0514 55.1369 21.0217C55.1659 21.0217 55.1659 20.9927 55.1659 20.963C55.1659 20.963 55.1659 20.9339 55.1369 20.9339C55.1369 20.9042 55.1072 20.9339 55.0781 20.9339H55.0194V21.3154Z" fill="white"/>
<path fill-rule="evenodd" clip-rule="evenodd" d="M22.6359 22.0485C22.0782 22.195 21.667 22.2834 21.2561 22.2834C20.3753 22.2834 19.8466 21.7254 19.8466 20.7271C19.8466 20.5218 19.876 20.3162 19.9054 20.0813L20.0229 19.4064L20.111 18.8484L20.9037 14.0335H22.6653L22.4597 15.0906H23.5754L23.3111 16.8521H22.1953L21.7257 19.7292C21.6964 19.8764 21.6964 19.9641 21.6964 20.0229C21.6964 20.4047 21.8726 20.5512 22.3128 20.5512C22.5184 20.5512 22.6943 20.5222 22.8705 20.4925L22.6359 22.0485ZM28.3319 21.9897C27.686 22.1659 27.099 22.2537 26.4528 22.2537C24.4562 22.2537 23.3111 21.1967 23.3111 19.1127C23.3111 16.6756 24.6618 14.914 26.5406 14.914C28.0378 14.914 29.0067 15.9123 29.0067 17.4679C29.0067 17.9969 28.948 18.4959 28.8015 19.2005H25.1314C25.102 19.318 25.102 19.3767 25.102 19.4354C25.102 20.2575 25.6598 20.6683 26.7168 20.6683C27.392 20.6683 27.9791 20.5218 28.6252 20.2285L28.3319 21.9897ZM27.2455 17.7913V17.4389C27.2455 16.8518 26.9224 16.5287 26.3647 16.5287C25.7772 16.5287 25.3664 16.9689 25.1902 17.791H27.2455V17.7913ZM8.54316 22.1362H6.72282L7.77985 15.472L5.4018 22.1362H4.13952L3.99267 15.5014L2.8769 22.1362H1.08594L2.52444 13.4755H5.1962L5.25495 18.8193L7.04591 13.4755H9.98201L8.54316 22.1362ZM12.9769 18.9952C12.8006 18.9655 12.7419 18.9655 12.6244 18.9655C11.5674 18.9655 11.039 19.3764 11.039 20.0225C11.039 20.4631 11.3034 20.7568 11.7142 20.7568C12.595 20.7568 12.9471 20.0225 12.9769 18.9952ZM14.4447 22.1362H12.8594L12.8887 21.4026C12.4775 21.96 11.9198 22.2537 10.9509 22.2537C10.0701 22.2537 9.30681 21.4614 9.30681 20.3162C9.30681 19.9935 9.36556 19.7001 9.45367 19.4064C9.74704 18.3197 10.8334 17.6448 12.5069 17.6151C12.7125 17.6151 13.0353 17.6151 13.329 17.6448C13.3874 17.4099 13.3874 17.3214 13.3874 17.1749C13.3874 16.7049 13.0059 16.5581 12.1545 16.5581C11.6261 16.5581 11.0387 16.6462 10.6278 16.7931L10.3635 16.8518L10.246 16.8808L10.5103 15.2955C11.3618 15.0311 11.9782 14.914 12.6538 14.914C14.2391 14.914 15.0906 15.6479 15.0906 16.9983C15.0906 17.3508 15.1199 17.6151 15.0024 18.3784L14.5916 20.9033L14.5328 21.3439L14.5035 21.6963L14.4741 21.9313L14.4447 22.1362ZM37.1986 15.1489C37.7269 15.1489 38.1968 15.2958 38.8427 15.6185L39.1654 13.7395C38.9892 13.6514 38.9304 13.6514 38.6958 13.5632L37.9622 13.3576C37.7272 13.2989 37.4339 13.2695 37.1105 13.2695C36.1999 13.2695 35.6716 13.2989 35.1142 13.622C34.8205 13.8276 34.4387 14.0919 34.0275 14.5615L33.7925 14.5028L31.9134 15.8238L32.0019 15.0899H30.0637L28.9193 22.1359H30.7693L31.4442 18.349C31.4442 18.349 31.7089 17.82 31.826 17.6445C32.1785 17.2039 32.4718 17.2039 32.8533 17.2039H33.0005C32.9389 17.6514 32.9093 18.1026 32.9121 18.5543C32.9121 20.8442 34.2037 22.2831 36.2003 22.2831C36.6996 22.2831 37.1405 22.2243 37.8154 22.0481L38.1388 20.0519C37.5517 20.3746 37.023 20.5215 36.5825 20.5215C35.4964 20.5215 34.8499 19.6994 34.8499 18.4078C34.8492 16.4993 35.8185 15.1489 37.1986 15.1489ZM52.7879 13.4755L52.3773 15.9416C51.9368 15.2664 51.4081 14.9434 50.7035 14.9434C49.7343 14.9434 48.8244 15.5011 48.2664 16.5581V16.5291L47.0922 15.8241L47.2097 15.0902H45.2425L44.1268 22.1362H45.9471L46.5639 18.3494C46.5639 18.3494 47.0335 17.8204 47.151 17.6448C47.4447 17.2924 47.7381 17.2333 47.973 17.2043C47.7678 17.7913 47.6503 18.4959 47.6503 19.2889C47.6503 21.0505 48.5601 22.2247 49.9105 22.2247C50.586 22.2247 51.1144 21.9897 51.6133 21.4317L51.5256 22.1362H53.2581L54.6673 13.4755H52.7879ZM50.5276 20.4631C49.9108 20.4631 49.5881 19.9935 49.5881 19.083C49.5881 17.7029 50.1752 16.7049 51.0263 16.7049C51.6721 16.7049 51.9955 17.2043 51.9955 18.085C51.9955 19.4942 51.4084 20.4631 50.5276 20.4631ZM42.0431 18.9952C41.8669 18.9655 41.8081 18.9655 41.6907 18.9655C40.6329 18.9655 40.1046 19.3764 40.1046 20.0225C40.1046 20.4631 40.3693 20.7568 40.7801 20.7568C41.6609 20.7568 42.0134 20.0225 42.0431 18.9952ZM43.511 22.1362H41.8959L41.9547 21.4026C41.5438 21.96 40.9854 22.2537 40.0172 22.2537C39.1067 22.2537 38.3143 21.4904 38.3143 20.3162C38.3143 18.6431 39.5763 17.6155 41.5728 17.6155C41.7788 17.6155 42.1012 17.6155 42.3659 17.6452C42.4246 17.4102 42.4543 17.3217 42.4543 17.1752C42.4543 16.7053 42.0725 16.5584 41.1917 16.5584C40.6924 16.5584 40.0759 16.6465 39.6651 16.7934L39.4301 16.8521L39.3126 16.8812L39.5766 15.2958C40.4284 15.0315 41.0452 14.9143 41.72 14.9143C43.3054 14.9143 44.1274 15.6483 44.1274 16.9987C44.1274 17.3511 44.1862 17.6155 44.0397 18.3788L43.6578 20.9037L43.5991 21.3442L43.5404 21.6967L43.5113 21.9317V22.1362H43.511ZM18.2907 16.5875C18.6431 16.5875 19.1421 16.6168 19.6708 16.7049L19.9351 15.0608C19.4064 15.0021 18.7019 14.914 18.2907 14.914C16.2357 14.914 15.5605 16.0297 15.5605 17.3214C15.5605 18.1732 15.942 18.7893 16.9403 19.2589C17.6742 19.6113 17.7917 19.6697 17.7917 19.9931C17.7917 20.433 17.4102 20.6977 16.7053 20.6977C16.1476 20.6977 15.6189 20.6093 15.0318 20.404L14.8262 22.0184L14.8552 22.0481L15.2077 22.1068C15.3252 22.1359 15.472 22.1656 15.6776 22.1946C16.1179 22.2243 16.4997 22.2534 16.7347 22.2534C18.79 22.2534 19.6414 21.461 19.6414 19.9047C19.6414 18.9361 19.1714 18.349 18.2613 17.9382C17.4686 17.5854 17.3805 17.5273 17.3805 17.2039C17.3805 16.8812 17.7329 16.5875 18.2907 16.5875Z" fill="#1B3771"/>
<path fill-rule="evenodd" clip-rule="evenodd" d="M39.6648 13.1824L39.3413 15.0615C38.6955 14.7384 38.2256 14.5919 37.6972 14.5919C36.3171 14.5919 35.3485 15.9423 35.3485 17.8507C35.3485 19.1721 35.9944 19.9644 37.0811 19.9644C37.521 19.9644 38.0497 19.8179 38.6368 19.5246L38.314 21.4911C37.6385 21.6673 37.1983 21.7558 36.6989 21.7558C34.7027 21.7558 33.4695 20.3169 33.4695 17.9979C33.4695 14.915 35.1723 12.7422 37.6091 12.7422C37.9318 12.7422 38.2252 12.7716 38.4602 12.8303L39.1945 13.0065C39.4298 13.0946 39.4885 13.124 39.6648 13.1824ZM33.7338 14.4744H33.5576C32.9415 14.4744 32.589 14.7681 32.031 15.6192L32.2072 14.5328H30.5334L29.3889 21.5792H31.239C31.9138 17.2633 32.0901 16.5294 32.9709 16.5294H33.0883C33.2646 15.6779 33.4992 15.0611 33.7929 14.5034L33.7338 14.4744ZM23.1059 21.4911C22.6069 21.6673 22.1957 21.726 21.7849 21.726C20.8453 21.726 20.3166 21.1977 20.3166 20.1704C20.3166 19.9942 20.346 19.7595 20.3754 19.5536L20.4929 18.849L20.581 18.2917L21.3737 13.4761H23.194L22.9884 14.5332H23.9279L23.693 16.2654H22.7534L22.2544 19.2015C22.2251 19.319 22.2251 19.4074 22.2251 19.4952C22.2251 19.8476 22.4013 19.9945 22.8415 19.9945C23.0471 19.9945 23.223 19.9945 23.3405 19.9358L23.1059 21.4911ZM16.0301 16.7643C16.0301 17.6455 16.441 18.2616 17.4099 18.7315C18.1732 19.084 18.2907 19.2011 18.2907 19.4948C18.2907 19.9354 17.9676 20.1407 17.2337 20.1407C16.676 20.1407 16.1766 20.0529 15.5896 19.8767L15.3252 21.4911L15.4133 21.5208L15.7364 21.5795C15.8536 21.6085 16.0008 21.6383 16.2354 21.6383C16.6462 21.697 16.9987 21.697 17.2337 21.697C19.1711 21.697 20.0817 20.9627 20.0817 19.3483C20.0817 18.3791 19.7002 17.821 18.79 17.3811C17.9973 17.0287 17.9092 16.9409 17.9092 16.6178C17.9092 16.2363 18.2323 16.0601 18.8194 16.0601C19.1718 16.0601 19.6708 16.0895 20.1407 16.1482L20.4047 14.5335C19.9351 14.4454 19.2012 14.3866 18.79 14.3866C16.7347 14.3863 16.0008 15.4727 16.0301 16.7643ZM53.7281 21.5795H51.9955L52.084 20.904C51.5847 21.4323 51.056 21.6673 50.3805 21.6673C49.0301 21.6673 48.1493 20.5228 48.1493 18.7613C48.1493 16.4122 49.5294 14.4157 51.1438 14.4157C51.8781 14.4157 52.4064 14.7388 52.9061 15.3846L53.3169 12.9184H55.1373L53.7281 21.5795ZM51.0266 19.9354C51.8784 19.9354 52.4655 18.9371 52.4655 17.557C52.4655 16.6469 52.1421 16.1769 51.4962 16.1769C50.6742 16.1769 50.0581 17.1458 50.0581 18.5259C50.0581 19.4658 50.3808 19.9354 51.0266 19.9354ZM28.7428 21.4323C28.0966 21.6383 27.5095 21.726 26.8343 21.726C24.779 21.726 23.722 20.64 23.722 18.5553C23.722 16.1479 25.0727 14.3569 26.9224 14.3569C28.449 14.3569 29.4176 15.3552 29.4176 16.9112C29.4176 17.4399 29.3589 17.9392 29.1826 18.6728H25.5427C25.5133 18.7613 25.5133 18.82 25.5133 18.8787C25.5133 19.7008 26.0713 20.1116 27.128 20.1116C27.8032 20.1116 28.3903 19.9942 29.0365 19.6711L28.7428 21.4323ZM27.7151 17.2339V16.8818C27.7151 16.2947 27.392 15.9717 26.8343 15.9717C26.2472 15.9717 25.836 16.4122 25.6598 17.2339H27.7151ZM9.01315 21.5795H7.19281L8.24984 14.9146L5.87179 21.5795H4.60917L4.46231 14.9734L3.34689 21.5795H1.64404L3.08255 12.9184H5.72494L5.81305 18.2913L7.5743 12.9184H10.4517L9.01315 21.5795ZM13.564 18.4378C13.3878 18.4378 13.2996 18.4088 13.1528 18.4088C12.1251 18.4088 11.5968 18.7903 11.5968 19.4948C11.5968 19.9354 11.8318 20.1994 12.2426 20.1994C13.0059 20.1994 13.5346 19.4948 13.564 18.4378ZM14.9144 21.5795H13.3874L13.4168 20.8452C12.9468 21.4323 12.3304 21.697 11.479 21.697C10.4807 21.697 9.80548 20.9337 9.80548 19.7886C9.80548 18.0567 10.9796 17.0584 13.0349 17.0584C13.2405 17.0584 13.5049 17.0878 13.7983 17.1168C13.857 16.8822 13.857 16.7941 13.857 16.6766C13.857 16.207 13.5339 16.0307 12.6825 16.0307C12.1542 16.0307 11.5667 16.0895 11.1559 16.207L10.8915 16.2951L10.7153 16.3245L10.9796 14.7391C11.8898 14.4748 12.5063 14.3866 13.1818 14.3866C14.7672 14.3866 15.6186 15.0912 15.6186 16.4416C15.6186 16.7941 15.5892 17.0584 15.4717 17.8511L15.0605 20.347L15.0018 20.7868L14.9724 21.1393L14.9431 21.404L14.9144 21.5795ZM42.6302 18.4378C42.4243 18.4378 42.3365 18.4088 42.2194 18.4088C41.1624 18.4088 40.6333 18.7903 40.6333 19.4948C40.6333 19.9354 40.898 20.1994 41.3089 20.1994C42.0431 20.1994 42.6005 19.4948 42.6302 18.4378ZM43.9806 21.5795H42.454L42.483 20.8452C42.0134 21.4323 41.397 21.697 40.5456 21.697C39.5473 21.697 38.8717 20.9337 38.8717 19.7886C38.8717 18.0567 40.0459 17.0584 42.1012 17.0584C42.3071 17.0584 42.5715 17.0878 42.8355 17.1168C42.8942 16.8822 42.9239 16.7941 42.9239 16.6766C42.9239 16.207 42.6005 16.0307 41.7498 16.0307C41.2207 16.0307 40.6046 16.0895 40.1934 16.207L39.9585 16.2951L39.7822 16.3245L40.0462 14.7391C40.9568 14.4748 41.5729 14.3866 42.2484 14.3866C43.8338 14.3866 44.6558 15.0912 44.6558 16.4416C44.6558 16.7941 44.6558 17.0584 44.5093 17.8511L44.1275 20.347L44.0687 20.7868L44.01 21.1393L43.981 21.404V21.5795H43.9806ZM48.9129 14.4744H48.7367C48.1206 14.4744 47.7681 14.7681 47.2101 15.6192L47.3863 14.5328H45.7125L44.5967 21.5792H46.4171C47.0926 17.2633 47.2688 16.5294 48.1496 16.5294H48.2671C48.4433 15.6779 48.678 15.0611 48.9717 14.5034L48.9129 14.4744Z" fill="white"/>
</svg>
