<svg width="284" height="135" viewBox="0 0 284 135" fill="none" xmlns="http://www.w3.org/2000/svg">
<path d="M21.7552 86.0885V102.41C23.5279 102.303 25.0857 101.823 26.536 101.077C27.9327 100.33 29.1144 99.2631 30.135 97.8763C31.1557 96.4895 31.854 94.836 32.3911 92.8625C32.9283 90.889 33.1969 88.5954 33.1969 86.0352H55.3819C55.3819 92.0091 54.5761 96.9162 53.0183 100.757C51.4606 104.597 49.0433 107.851 45.6592 110.411C48.9359 112.918 51.5143 116.171 53.3944 120.172C55.2744 124.172 56.4025 129.133 56.7785 134.947H33.2506C32.7135 123.319 28.8996 117.345 21.809 117.078V134.947H0V86.0352H21.7552V86.0885Z" fill="white"/>
<path d="M106.359 86.0886L123.441 135H101.686L98.8387 126.733H82.8311L79.9841 135H58.1752L75.2571 86.0886H106.359ZM86.8062 115.158H94.8637L90.8886 103.21H90.7812L86.8062 115.158Z" fill="white"/>
<path d="M176.137 102.623C176.137 105.61 175.385 108.384 173.935 110.944C172.43 113.505 170.443 115.531 167.918 116.918C165.394 118.358 162.654 119.105 159.753 119.105C157.82 119.105 155.939 118.785 154.221 118.145C152.448 117.452 150.568 116.385 148.527 114.838V134.947H126.771V86.0352H156.96C158.733 86.0352 160.452 86.1952 162.117 86.5152C163.728 86.8352 165.286 87.3153 166.737 87.9553C168.187 88.5954 169.476 89.3955 170.658 90.3556C171.84 91.3157 172.86 92.4891 173.666 93.7693C175.277 96.4362 176.137 99.3698 176.137 102.623ZM148.473 107.264C149.117 107.424 149.708 107.531 150.299 107.531C151.105 107.531 151.857 107.371 152.502 107.104C153.2 106.837 153.737 106.464 154.221 105.984C154.704 105.504 155.08 104.917 155.349 104.224C155.617 103.53 155.725 102.783 155.725 101.93C155.725 100.277 155.295 98.9431 154.435 98.0363C153.576 97.1296 152.34 96.6495 150.783 96.6495H148.419V107.264H148.473Z" fill="white"/>
<path d="M221.635 86.0886V107.744H210.677V134.947H188.868V107.744H177.91V86.0886H221.635Z" fill="white"/>
<path d="M266.918 86.0886L284 135H262.245L259.398 126.733H243.39L240.543 135H218.734L235.816 86.0886H266.918ZM247.365 115.158H255.423L251.448 103.21H251.34L247.365 115.158Z" fill="white"/>
<path d="M0 77.3943H27.2881V31.6298H39.1057V77.3943H66.3938V16.2683H0V77.3943Z" fill="white"/>
<path d="M127.308 21.6555C125.858 20.4287 124.193 19.4153 122.42 18.6152C120.648 17.8151 118.714 17.2284 116.673 16.855C114.631 16.4817 112.483 16.2683 110.28 16.2683H72.5175V77.3943H99.7518V52.2185C102.33 54.1387 104.694 55.4722 106.896 56.3256C109.099 57.1257 111.408 57.5524 113.826 57.5524C117.478 57.5524 120.862 56.6456 124.032 54.8321C127.147 53.0186 129.672 50.565 131.552 47.3647C133.432 44.2177 134.345 40.7507 134.345 37.017C134.345 32.9633 133.271 29.3363 131.122 25.9759C130.048 24.2691 128.759 22.8823 127.308 21.6555ZM108.346 38.9906C108.024 39.844 107.541 40.5907 106.95 41.1774C106.359 41.7642 105.607 42.2442 104.747 42.5642C103.888 42.8843 102.975 43.0443 102.008 43.0443C101.31 43.0443 100.558 42.9376 99.7518 42.7243V29.4963H102.706C104.64 29.4963 106.144 30.083 107.218 31.2565C108.293 32.4299 108.83 34.0834 108.83 36.1636C108.83 37.177 108.669 38.1371 108.346 38.9906Z" fill="white"/>
<path d="M174.203 35.7368C171.786 35.3101 169.959 33.3899 169.637 30.9897C169.583 30.5629 168.831 23.2556 171.464 15.4148C170.604 15.3614 169.745 15.3081 168.831 15.3081C163.03 15.3081 157.658 16.7482 152.77 19.5752C147.882 22.4555 144.068 26.2425 141.329 31.0963C138.589 35.9501 137.246 41.1773 137.246 46.7779C137.246 52.5384 138.643 57.819 141.382 62.6728C144.175 67.5799 147.989 71.367 152.824 74.1939C157.712 77.0209 163.03 78.4077 168.778 78.4077C174.525 78.4077 179.897 77.0209 184.785 74.1939C189.674 71.367 193.434 67.5266 196.227 62.6728C199.02 57.819 200.363 52.5385 200.363 46.8312C200.363 41.1773 199.02 36.0035 196.334 31.2563C189.62 35.3634 182.583 36.1102 178.5 36.1102C176.137 36.0568 174.525 35.7901 174.203 35.7368ZM173.236 49.7648C172.054 50.9383 170.604 51.525 168.885 51.525C167.166 51.525 165.716 50.9383 164.534 49.7648C163.352 48.5914 162.815 47.0446 162.815 45.1244C162.815 43.2042 163.406 41.7107 164.534 40.5373C165.716 39.3105 167.112 38.7238 168.831 38.7238C169.745 38.7238 170.55 38.8838 171.302 39.2038C172.054 39.5238 172.699 39.9505 173.236 40.5373C173.773 41.124 174.203 41.7641 174.525 42.5641C174.848 43.3642 175.009 44.2176 175.009 45.1244C175.009 46.9912 174.418 48.5381 173.236 49.7648Z" fill="white"/>
<path d="M279.918 52.0052H276.426V15.3616H219.755C219.755 22.0822 219.701 27.8428 219.755 32.6966C219.755 32.6966 219.862 39.7907 218.519 44.2178C217.929 46.2446 217.338 47.8981 216.317 49.0716C215.35 50.245 214.061 50.9918 212.449 51.4185C210.838 51.8452 208.85 52.0052 206.433 52.0052H205.52H202.834L206.594 77.8211H223.623L226.308 67.4734H260.526L263.212 77.8211H280.24L284 52.0052H279.918ZM243.337 38.8306C243.444 37.7104 243.659 31.3632 243.659 31.3632H249.675V53.9787H239.576C240.006 53.0186 240.382 52.0052 240.758 50.9384C241.832 47.5781 242.746 43.5244 243.337 38.8306Z" fill="white"/>
<path d="M205.681 0C205.681 0 205.305 0 204.714 0C201.276 0 189.674 0.586725 182.261 7.89411C173.505 16.6416 175.116 30.403 175.116 30.403C175.116 30.403 176.459 30.6164 178.554 30.6164C183.174 30.6164 191.5 29.5496 198.161 22.9889C207.883 13.3346 205.681 0 205.681 0Z" fill="white"/>
</svg>
