<svg width="210" height="210" viewBox="0 0 210 210" fill="none" xmlns="http://www.w3.org/2000/svg">
<circle cx="105" cy="105" r="105" fill="#F39F15"/>
<circle cx="105" cy="105" r="105" fill="url(#paint0_linear_1079_3701)"/>
<circle cx="105" cy="105" r="105" fill="url(#paint1_linear_1079_3701)"/>
<mask id="mask0_1079_3701" style="mask-type:alpha" maskUnits="userSpaceOnUse" x="0" y="0" width="210" height="210">
<circle cx="105" cy="105" r="105" fill="#F39F15"/>
</mask>
<g mask="url(#mask0_1079_3701)">
<g opacity="0.3" filter="url(#filter0_d_1079_3701)">
<path d="M161.394 39.2962L45.3818 69.3965L87.9739 225.549L203.986 195.449L161.394 39.2962Z" fill="white"/>
<path d="M85.213 72.0546L62.0434 78.1639L62.478 79.8191L85.6476 73.7098L85.213 72.0546Z" fill="#754C24"/>
<path d="M112.827 72.3892L63.9766 85.4218L64.1928 86.2564L113.043 73.2238L112.827 72.3892Z" fill="#754C24"/>
<path d="M113.596 75.2582L64.7451 88.2909L64.9613 89.1255L113.812 76.0928L113.596 75.2582Z" fill="#754C24"/>
<path d="M114.387 78.2074L65.5366 91.2401L65.7528 92.0747L114.603 79.042L114.387 78.2074Z" fill="#754C24"/>
<path d="M90.4824 91.6753L67.3018 97.8358L67.5175 98.6642L90.6982 92.5036L90.4824 91.6753Z" fill="#754C24"/>
<path d="M116.153 84.7917L96.8507 89.9141L97.0665 90.7415L116.369 85.6191L116.153 84.7917Z" fill="#754C24"/>
<path d="M91.3341 94.8569L68.1533 101.017L68.3691 101.846L91.5498 95.6853L91.3341 94.8569Z" fill="#754C24"/>
<path d="M117.004 87.9772L97.7018 93.0996L97.9176 93.927L117.22 88.8046L117.004 87.9772Z" fill="#754C24"/>
<path d="M92.1865 98.0366L69.0059 104.197L69.2216 105.025L92.4023 98.8649L92.1865 98.0366Z" fill="#754C24"/>
<path d="M117.857 91.149L98.5537 96.2715L98.7696 97.0989L118.072 91.9764L117.857 91.149Z" fill="#754C24"/>
<path d="M93.0385 101.216L69.8579 107.377L70.0737 108.205L93.2543 102.045L93.0385 101.216Z" fill="#754C24"/>
<path d="M118.709 94.3285L99.4065 99.451L99.6223 100.278L118.925 95.156L118.709 94.3285Z" fill="#754C24"/>
<path d="M93.8706 104.32L70.6899 110.48L70.9057 111.309L94.0863 105.148L93.8706 104.32Z" fill="#754C24"/>
<path d="M119.541 97.4321L100.238 102.555L100.454 103.382L119.756 98.2595L119.541 97.4321Z" fill="#754C24"/>
<path d="M94.721 107.501L71.5405 113.662L71.7563 114.49L94.9368 108.33L94.721 107.501Z" fill="#754C24"/>
<path d="M120.392 100.616L101.09 105.738L101.305 106.566L120.608 101.443L120.392 100.616Z" fill="#754C24"/>
<path d="M95.8642 111.763L72.6836 117.924L72.8994 118.752L96.08 112.592L95.8642 111.763Z" fill="#754C24"/>
<path d="M121.535 104.876L102.232 109.998L102.448 110.825L121.751 105.703L121.535 104.876Z" fill="#754C24"/>
<path d="M96.7168 114.941L73.5361 121.101L73.7519 121.93L96.9325 115.769L96.7168 114.941Z" fill="#754C24"/>
<path d="M122.388 108.055L103.085 113.177L103.301 114.005L122.604 108.882L122.388 108.055Z" fill="#754C24"/>
<path d="M97.5683 118.126L74.3877 124.287L74.6034 125.115L97.7841 118.955L97.5683 118.126Z" fill="#754C24"/>
<path d="M123.24 111.241L103.937 116.363L104.153 117.191L123.456 112.068L123.24 111.241Z" fill="#754C24"/>
<path d="M98.4204 121.302L75.2397 127.463L75.4555 128.291L98.6361 122.13L98.4204 121.302Z" fill="#754C24"/>
<path d="M124.091 114.415L104.788 119.537L105.004 120.365L124.307 115.242L124.091 114.415Z" fill="#754C24"/>
<path d="M99.2736 124.482L76.093 130.642L76.3088 131.471L99.4894 125.31L99.2736 124.482Z" fill="#754C24"/>
<path d="M124.944 117.592L105.641 122.715L105.857 123.542L125.16 118.42L124.944 117.592Z" fill="#754C24"/>
<path d="M100.125 127.664L76.9443 133.824L77.1601 134.653L100.341 128.492L100.125 127.664Z" fill="#754C24"/>
<path d="M125.795 120.776L106.492 125.898L106.708 126.726L126.011 121.603L125.795 120.776Z" fill="#754C24"/>
<path d="M112.59 64.7188L89.4199 70.828L89.8545 72.4832L113.024 66.374L112.59 64.7188Z" fill="#754C24"/>
<path d="M127.73 60.8774L118.72 63.1582L121.314 72.4808L130.324 70.2L127.73 60.8774Z" fill="#E9D18F"/>
<path d="M140.139 57.5531L131.129 59.834L133.722 69.1565L142.732 66.8756L140.139 57.5531Z" fill="#E9D18F"/>
<path d="M152.548 54.2289L143.538 56.5098L146.131 65.8323L155.141 63.5514L152.548 54.2289Z" fill="#E9D18F"/>
<path d="M131.054 73.2893L122.044 75.5702L124.638 84.8927L133.648 82.6119L131.054 73.2893Z" fill="#E9D18F"/>
<path d="M143.465 69.9632L134.455 72.244L137.048 81.5666L146.058 79.2858L143.465 69.9632Z" fill="#E9D18F"/>
<path d="M155.874 66.639L146.864 68.9198L149.457 78.2425L158.467 75.9616L155.874 66.639Z" fill="#E9D18F"/>
<path d="M134.381 85.6957L125.371 87.9766L127.964 97.2992L136.974 95.0183L134.381 85.6957Z" fill="#E9D18F"/>
<path d="M146.789 82.3715L137.779 84.6523L140.373 93.9749L149.383 91.694L146.789 82.3715Z" fill="#E9D18F"/>
<path d="M159.198 79.0473L150.188 81.3281L152.781 90.6507L161.791 88.3699L159.198 79.0473Z" fill="#E9D18F"/>
<path d="M137.685 98.0198L128.675 100.301L131.269 109.623L140.279 107.342L137.685 98.0198Z" fill="#E9D18F"/>
<path d="M150.094 94.6956L141.084 96.9764L143.677 106.299L152.687 104.018L150.094 94.6956Z" fill="#E9D18F"/>
<path d="M162.502 91.3715L153.491 93.6523L156.085 102.975L165.095 100.694L162.502 91.3715Z" fill="#E9D18F"/>
<path d="M158.311 105.569L156.688 105.988L153.443 106.827L144.323 109.183L131.958 112.379L134.53 121.884L146.895 118.688L156.014 116.332L159.26 115.493L160.883 115.074L168.302 113.156L165.73 103.651L158.311 105.569Z" fill="#E9D18F"/>
<path d="M80.3406 146.599L79.5757 146.793L79.7938 147.583L80.5587 147.389L80.3406 146.599Z" fill="#B4C9D6"/>
<path d="M93.2785 194.848L92.5315 195.04L92.1149 193.488L92.862 193.297L93.2785 194.848ZM92.4245 191.668L91.6775 191.859L91.261 190.307L92.008 190.116L92.4245 191.668ZM91.5706 188.487L90.8235 188.678L90.407 187.127L91.154 186.935L91.5706 188.487ZM90.7374 185.384L89.9904 185.575L89.5738 184.023L90.3208 183.832L90.7374 185.384ZM89.8834 182.203L89.1364 182.394L88.7198 180.843L89.4669 180.651L89.8834 182.203ZM89.0294 179.022L88.2824 179.213L87.8658 177.662L88.6129 177.47L89.0294 179.022ZM88.1755 175.841L87.4284 176.033L87.0119 174.481L87.7589 174.289L88.1755 175.841ZM87.3215 172.66L86.5745 172.852L86.1579 171.3L86.9049 171.109L87.3215 172.66ZM86.4883 169.557L85.7413 169.748L85.3247 168.197L86.0717 168.005L86.4883 169.557ZM85.6343 166.376L84.8873 166.568L84.4707 165.016L85.2178 164.824L85.6343 166.376ZM84.7804 163.195L84.0333 163.387L83.6168 161.835L84.3638 161.644L84.7804 163.195ZM83.9264 160.014L83.1794 160.206L82.7628 158.654L83.5098 158.463L83.9264 160.014ZM83.0724 156.834L82.3254 157.025L81.9088 155.473L82.6558 155.282L83.0724 156.834ZM82.2184 153.653L81.4714 153.844L81.0548 152.293L81.8018 152.101L82.2184 153.653ZM81.3852 150.549L80.6382 150.741L80.2216 149.189L80.9687 148.998L81.3852 150.549Z" fill="#B4C9D6"/>
<path d="M93.7029 196.467L92.938 196.66L93.1561 197.45L93.921 197.257L93.7029 196.467Z" fill="#B4C9D6"/>
<path d="M90.424 143.888L89.6592 144.082L89.8773 144.872L90.6421 144.679L90.424 143.888Z" fill="#B4C9D6"/>
<path d="M103.36 192.143L102.613 192.335L102.197 190.783L102.944 190.592L103.36 192.143ZM102.506 188.962L101.759 189.154L101.343 187.602L102.09 187.411L102.506 188.962ZM101.653 185.782L100.906 185.973L100.489 184.422L101.236 184.23L101.653 185.782ZM100.819 182.678L100.072 182.87L99.6558 181.318L100.403 181.127L100.819 182.678ZM99.9654 179.498L99.2184 179.689L98.8018 178.137L99.5488 177.946L99.9654 179.498ZM99.1114 176.317L98.3644 176.508L97.9478 174.957L98.6948 174.765L99.1114 176.317ZM98.2574 173.136L97.5104 173.327L97.0939 171.776L97.8409 171.584L98.2574 173.136ZM97.4035 169.955L96.6565 170.147L96.2399 168.595L96.9869 168.403L97.4035 169.955ZM96.5703 166.852L95.8233 167.043L95.4067 165.492L96.1538 165.3L96.5703 166.852ZM95.7164 163.671L94.9693 163.863L94.5528 162.311L95.2998 162.119L95.7164 163.671ZM94.8624 160.49L94.1154 160.682L93.6988 159.13L94.4458 158.939L94.8624 160.49ZM94.0084 157.309L93.2614 157.501L92.8448 155.949L93.5918 155.758L94.0084 157.309ZM93.1544 154.129L92.4074 154.32L91.9908 152.768L92.7378 152.577L93.1544 154.129ZM92.3004 150.948L91.5534 151.139L91.1369 149.588L91.8839 149.396L92.3004 150.948ZM91.4673 147.844L90.7203 148.036L90.3037 146.484L91.0507 146.293L91.4673 147.844Z" fill="#B4C9D6"/>
<path d="M103.785 193.756L103.02 193.949L103.238 194.739L104.003 194.546L103.785 193.756Z" fill="#B4C9D6"/>
<path d="M100.508 141.189L99.7427 141.383L99.9608 142.173L100.726 141.98L100.508 141.189Z" fill="#B4C9D6"/>
<path d="M113.443 189.44L112.696 189.632L112.279 188.08L113.026 187.889L113.443 189.44ZM112.589 186.26L111.842 186.451L111.425 184.899L112.172 184.708L112.589 186.26ZM111.735 183.079L110.988 183.27L110.571 181.719L111.318 181.527L111.735 183.079ZM110.902 179.976L110.154 180.167L109.738 178.615L110.485 178.424L110.902 179.976ZM110.048 176.795L109.301 176.986L108.884 175.435L109.631 175.243L110.048 176.795ZM109.194 173.614L108.447 173.805L108.03 172.254L108.777 172.062L109.194 173.614ZM108.34 170.433L107.593 170.624L107.176 169.073L107.923 168.881L108.34 170.433ZM107.486 167.252L106.739 167.444L106.322 165.892L107.069 165.701L107.486 167.252ZM106.652 164.149L105.905 164.34L105.489 162.789L106.236 162.597L106.652 164.149ZM105.798 160.968L105.051 161.16L104.635 159.608L105.382 159.416L105.798 160.968ZM104.944 157.787L104.197 157.979L103.781 156.427L104.528 156.236L104.944 157.787ZM104.091 154.606L103.344 154.798L102.927 153.246L103.674 153.055L104.091 154.606ZM103.237 151.426L102.49 151.617L102.073 150.065L102.82 149.874L103.237 151.426ZM102.383 148.245L101.636 148.436L101.219 146.885L101.966 146.693L102.383 148.245ZM101.549 145.141L100.802 145.333L100.386 143.781L101.133 143.59L101.549 145.141Z" fill="#B4C9D6"/>
<path d="M113.866 191.056L113.102 191.25L113.32 192.04L114.085 191.847L113.866 191.056Z" fill="#B4C9D6"/>
<path d="M110.59 138.488L109.825 138.682L110.043 139.472L110.808 139.278L110.59 138.488Z" fill="#B4C9D6"/>
<path d="M123.524 186.743L122.777 186.934L122.36 185.383L123.107 185.191L123.524 186.743ZM122.67 183.562L121.923 183.754L121.506 182.202L122.253 182.01L122.67 183.562ZM121.816 180.381L121.069 180.573L120.652 179.021L121.399 178.83L121.816 180.381ZM120.983 177.278L120.236 177.47L119.819 175.918L120.566 175.726L120.983 177.278ZM120.129 174.097L119.382 174.289L118.965 172.737L119.712 172.546L120.129 174.097ZM119.275 170.916L118.528 171.108L118.111 169.556L118.858 169.365L119.275 170.916ZM118.421 167.736L117.674 167.927L117.257 166.375L118.004 166.184L118.421 167.736ZM117.567 164.555L116.82 164.746L116.403 163.195L117.15 163.003L117.567 164.555ZM116.734 161.451L115.987 161.643L115.57 160.091L116.317 159.9L116.734 161.451ZM115.88 158.271L115.133 158.462L114.716 156.91L115.463 156.719L115.88 158.271ZM115.026 155.09L114.279 155.281L113.862 153.73L114.609 153.538L115.026 155.09ZM114.172 151.909L113.425 152.1L113.008 150.549L113.755 150.357L114.172 151.909ZM113.318 148.728L112.571 148.92L112.154 147.368L112.901 147.177L113.318 148.728ZM112.464 145.547L111.717 145.739L111.3 144.187L112.047 143.996L112.464 145.547ZM111.631 142.444L110.884 142.636L110.467 141.084L111.214 140.892L111.631 142.444Z" fill="#B4C9D6"/>
<path d="M123.948 188.355L123.184 188.549L123.402 189.339L124.167 189.145L123.948 188.355Z" fill="#B4C9D6"/>
<path d="M120.592 135.804L119.827 135.998L120.045 136.788L120.81 136.595L120.592 135.804Z" fill="#B4C9D6"/>
<path d="M133.529 184.059L132.782 184.251L132.365 182.699L133.112 182.508L133.529 184.059ZM132.675 180.878L131.928 181.07L131.511 179.518L132.258 179.327L132.675 180.878ZM131.821 177.698L131.074 177.889L130.657 176.338L131.404 176.146L131.821 177.698ZM130.988 174.594L130.241 174.786L129.824 173.234L130.571 173.043L130.988 174.594ZM130.134 171.414L129.387 171.605L128.97 170.053L129.717 169.862L130.134 171.414ZM129.28 168.233L128.533 168.424L128.116 166.873L128.863 166.681L129.28 168.233ZM128.426 165.052L127.679 165.243L127.262 163.692L128.009 163.5L128.426 165.052ZM127.572 161.871L126.825 162.063L126.408 160.511L127.155 160.319L127.572 161.871ZM126.739 158.768L125.992 158.959L125.575 157.408L126.322 157.216L126.739 158.768ZM125.885 155.587L125.138 155.779L124.721 154.227L125.468 154.035L125.885 155.587ZM125.031 152.406L124.284 152.598L123.867 151.046L124.614 150.855L125.031 152.406ZM124.177 149.225L123.43 149.417L123.013 147.865L123.76 147.674L124.177 149.225ZM123.323 146.045L122.576 146.236L122.159 144.684L122.906 144.493L123.323 146.045ZM122.469 142.864L121.722 143.055L121.305 141.504L122.052 141.312L122.469 142.864ZM121.636 139.76L120.888 139.952L120.472 138.4L121.219 138.209L121.636 139.76Z" fill="#B4C9D6"/>
<path d="M133.953 185.672L133.188 185.865L133.406 186.655L134.171 186.462L133.953 185.672Z" fill="#B4C9D6"/>
<path d="M130.675 133.103L129.91 133.297L130.128 134.087L130.893 133.893L130.675 133.103Z" fill="#B4C9D6"/>
<path d="M143.611 181.358L142.864 181.55L142.447 179.998L143.194 179.807L143.611 181.358ZM142.757 178.177L142.01 178.369L141.593 176.817L142.34 176.626L142.757 178.177ZM141.903 174.997L141.156 175.188L140.739 173.636L141.486 173.445L141.903 174.997ZM141.07 171.893L140.323 172.085L139.906 170.533L140.653 170.342L141.07 171.893ZM140.216 168.712L139.469 168.904L139.052 167.352L139.799 167.161L140.216 168.712ZM139.362 165.532L138.615 165.723L138.198 164.171L138.945 163.98L139.362 165.532ZM138.508 162.351L137.761 162.542L137.344 160.991L138.091 160.799L138.508 162.351ZM137.654 159.17L136.907 159.361L136.49 157.81L137.237 157.618L137.654 159.17ZM136.821 156.067L136.074 156.258L135.657 154.707L136.404 154.515L136.821 156.067ZM135.967 152.886L135.22 153.077L134.803 151.526L135.55 151.334L135.967 152.886ZM135.113 149.705L134.366 149.897L133.949 148.345L134.696 148.153L135.113 149.705ZM134.259 146.524L133.512 146.716L133.095 145.164L133.842 144.973L134.259 146.524ZM133.405 143.343L132.658 143.535L132.241 141.983L132.988 141.792L133.405 143.343ZM132.551 140.163L131.804 140.354L131.387 138.802L132.134 138.611L132.551 140.163ZM131.718 137.059L130.971 137.251L130.554 135.699L131.301 135.508L131.718 137.059Z" fill="#B4C9D6"/>
<path d="M144.035 182.971L143.271 183.164L143.489 183.954L144.254 183.761L144.035 182.971Z" fill="#B4C9D6"/>
<path d="M140.756 130.402L139.991 130.596L140.209 131.386L140.974 131.192L140.756 130.402Z" fill="#B4C9D6"/>
<path d="M153.692 178.657L152.945 178.848L152.529 177.297L153.276 177.105L153.692 178.657ZM152.838 175.476L152.091 175.668L151.675 174.116L152.422 173.925L152.838 175.476ZM151.984 172.295L151.237 172.487L150.821 170.935L151.568 170.744L151.984 172.295ZM151.151 169.192L150.404 169.384L149.987 167.832L150.734 167.64L151.151 169.192ZM150.297 166.011L149.55 166.203L149.134 164.651L149.881 164.46L150.297 166.011ZM149.443 162.83L148.696 163.022L148.28 161.47L149.027 161.279L149.443 162.83ZM148.589 159.65L147.842 159.841L147.426 158.289L148.173 158.098L148.589 159.65ZM147.735 156.469L146.988 156.66L146.572 155.109L147.319 154.917L147.735 156.469ZM146.902 153.366L146.155 153.557L145.738 152.005L146.485 151.814L146.902 153.366ZM146.048 150.185L145.301 150.376L144.885 148.825L145.632 148.633L146.048 150.185ZM145.194 147.004L144.447 147.195L144.031 145.644L144.778 145.452L145.194 147.004ZM144.34 143.823L143.593 144.015L143.177 142.463L143.924 142.271L144.34 143.823ZM143.486 140.642L142.739 140.834L142.323 139.282L143.07 139.091L143.486 140.642ZM142.632 137.461L141.885 137.653L141.469 136.101L142.216 135.91L142.632 137.461ZM141.799 134.358L141.052 134.55L140.635 132.998L141.383 132.806L141.799 134.358Z" fill="#B4C9D6"/>
<path d="M154.116 180.269L153.352 180.463L153.57 181.253L154.335 181.059L154.116 180.269Z" fill="#B4C9D6"/>
<path d="M150.837 127.711L150.073 127.904L150.291 128.694L151.055 128.501L150.837 127.711Z" fill="#B4C9D6"/>
<path d="M163.774 175.968L163.027 176.159L162.611 174.607L163.358 174.416L163.774 175.968ZM162.92 172.787L162.173 172.978L161.757 171.427L162.504 171.235L162.92 172.787ZM162.066 169.606L161.319 169.797L160.903 168.246L161.65 168.054L162.066 169.606ZM161.233 166.503L160.486 166.694L160.069 165.143L160.816 164.951L161.233 166.503ZM160.379 163.322L159.632 163.513L159.215 161.962L159.962 161.77L160.379 163.322ZM159.525 160.141L158.778 160.332L158.361 158.781L159.108 158.589L159.525 160.141ZM158.671 156.96L157.924 157.152L157.507 155.6L158.254 155.409L158.671 156.96ZM157.817 153.779L157.07 153.971L156.653 152.419L157.4 152.228L157.817 153.779ZM156.984 150.676L156.237 150.868L155.82 149.316L156.567 149.124L156.984 150.676ZM156.13 147.495L155.383 147.687L154.966 146.135L155.713 145.944L156.13 147.495ZM155.276 144.314L154.529 144.506L154.112 142.954L154.859 142.763L155.276 144.314ZM154.422 141.134L153.675 141.325L153.258 139.773L154.005 139.582L154.422 141.134ZM153.568 137.953L152.821 138.144L152.404 136.593L153.151 136.401L153.568 137.953ZM152.714 134.772L151.967 134.963L151.55 133.412L152.297 133.22L152.714 134.772ZM151.881 131.669L151.134 131.86L150.717 130.309L151.464 130.117L151.881 131.669Z" fill="#B4C9D6"/>
<path d="M164.201 177.576L163.436 177.77L163.654 178.56L164.419 178.366L164.201 177.576Z" fill="#B4C9D6"/>
<path d="M160.92 125.01L160.155 125.203L160.373 125.993L161.138 125.8L160.92 125.01Z" fill="#B4C9D6"/>
<path d="M173.856 173.26L173.109 173.452L172.692 171.9L173.44 171.709L173.856 173.26ZM173.002 170.08L172.255 170.271L171.839 168.719L172.586 168.528L173.002 170.08ZM172.148 166.899L171.401 167.09L170.985 165.539L171.732 165.347L172.148 166.899ZM171.315 163.796L170.568 163.987L170.151 162.435L170.898 162.244L171.315 163.796ZM170.461 160.615L169.714 160.806L169.297 159.255L170.044 159.063L170.461 160.615ZM169.607 157.434L168.86 157.625L168.443 156.074L169.19 155.882L169.607 157.434ZM168.753 154.253L168.006 154.445L167.589 152.893L168.336 152.701L168.753 154.253ZM167.899 151.072L167.152 151.264L166.735 149.712L167.483 149.521L167.899 151.072ZM167.066 147.969L166.319 148.16L165.902 146.609L166.649 146.417L167.066 147.969ZM166.212 144.788L165.465 144.98L165.048 143.428L165.795 143.237L166.212 144.788ZM165.358 141.607L164.611 141.799L164.194 140.247L164.941 140.056L165.358 141.607ZM164.504 138.426L163.757 138.618L163.34 137.066L164.087 136.875L164.504 138.426ZM163.65 135.246L162.903 135.437L162.486 133.886L163.233 133.694L163.65 135.246ZM162.796 132.065L162.049 132.256L161.632 130.705L162.379 130.513L162.796 132.065ZM161.963 128.962L161.216 129.153L160.799 127.601L161.546 127.41L161.963 128.962Z" fill="#B4C9D6"/>
<path d="M174.282 174.875L173.518 175.068L173.736 175.858L174.5 175.665L174.282 174.875Z" fill="#B4C9D6"/>
<path d="M184.363 172.166L183.598 172.359L183.816 173.149L184.581 172.956L184.363 172.166Z" fill="#B4C9D6"/>
<path d="M183.939 170.553L183.192 170.745L182.775 169.193L183.523 169.002L183.939 170.553ZM183.085 167.373L182.338 167.564L181.922 166.012L182.669 165.821L183.085 167.373ZM182.231 164.192L181.484 164.383L181.068 162.832L181.815 162.64L182.231 164.192ZM181.398 161.089L180.651 161.28L180.234 159.728L180.981 159.537L181.398 161.089ZM180.544 157.908L179.797 158.099L179.38 156.548L180.127 156.356L180.544 157.908ZM179.69 154.727L178.943 154.918L178.526 153.367L179.273 153.175L179.69 154.727ZM178.836 151.546L178.089 151.738L177.672 150.186L178.419 149.994L178.836 151.546ZM177.982 148.365L177.235 148.557L176.818 147.005L177.566 146.814L177.982 148.365ZM177.149 145.262L176.402 145.453L175.985 143.902L176.732 143.71L177.149 145.262ZM176.295 142.081L175.548 142.273L175.131 140.721L175.878 140.529L176.295 142.081ZM175.441 138.9L174.694 139.092L174.277 137.54L175.024 137.349L175.441 138.9ZM174.587 135.719L173.84 135.911L173.423 134.359L174.17 134.168L174.587 135.719ZM173.733 132.539L172.986 132.73L172.569 131.178L173.316 130.987L173.733 132.539ZM172.879 129.358L172.132 129.549L171.715 127.998L172.462 127.806L172.879 129.358ZM172.046 126.255L171.299 126.446L170.882 124.894L171.629 124.703L172.046 126.255Z" fill="#B4C9D6"/>
<path d="M171.002 122.299L170.237 122.492L170.455 123.282L171.22 123.089L171.002 122.299Z" fill="#B4C9D6"/>
<path d="M170.695 121.775L79.5864 145.67L81.4264 152.727L172.535 128.831L170.695 121.775Z" fill="black"/>
<path d="M84.1177 146.984L84.4889 146.89L85.3359 150.002L84.9647 150.096L84.1177 146.984Z" fill="white"/>
<path d="M85.5101 147.501L85.8147 147.423L85.9022 147.738C86.065 147.444 86.2498 147.229 86.5544 147.152C87.0113 147.036 87.3271 147.293 87.4801 147.844L87.8954 149.339L87.5908 149.416L87.1974 148C87.0881 147.606 86.8702 147.409 86.5656 147.486C86.3372 147.544 86.2286 147.74 86.0657 148.034L86.5247 149.686L86.1439 149.783L85.5101 147.501Z" fill="white"/>
<path d="M88.8932 146.533C89.1207 146.476 89.37 146.496 89.5652 146.615L89.4564 146.223L89.2171 145.36L89.5963 145.264L90.5318 148.637L90.2284 148.714L90.1632 148.478C90.055 148.674 89.871 148.888 89.5676 148.965C89.0367 149.1 88.5269 148.725 88.3311 148.019C88.0377 147.254 88.3622 146.668 88.8932 146.533ZM89.5347 148.554C89.7622 148.496 89.8921 148.379 89.9786 148.105L89.6522 146.929C89.457 146.81 89.2077 146.789 89.056 146.828C88.6768 146.924 88.558 147.374 88.6886 147.844C88.8409 148.394 89.1554 148.65 89.5347 148.554Z" fill="white"/>
<path d="M91.5199 145.819C92.0533 145.684 92.5437 145.981 92.7405 146.69C92.7624 146.769 92.7842 146.848 92.8061 146.926L91.2821 147.312C91.4133 147.785 91.8056 148.023 92.2628 147.907C92.4914 147.849 92.6219 147.732 92.7525 147.614L92.9705 147.812C92.7856 148.027 92.5789 148.164 92.2741 148.241C91.6645 148.396 91.0761 148.039 90.8792 147.33C90.6605 146.543 90.9865 145.954 91.5199 145.819ZM92.3376 146.708C92.2064 146.235 91.9122 146.057 91.6074 146.134C91.3026 146.211 91.0634 146.525 91.1946 146.997L92.3376 146.708Z" fill="white"/>
<path d="M93.7146 146.493L92.7222 145.564L93.1033 145.468L93.5396 145.863C93.6596 146.001 93.7577 146.061 93.8777 146.199C93.9101 146.022 93.9645 145.924 93.997 145.747L94.1706 145.197L94.5518 145.101L94.1939 146.456L95.2844 147.445L94.9033 147.541L94.4452 147.067C94.3252 146.929 94.2052 146.791 94.1071 146.731C94.0746 146.908 94.0202 147.006 93.9878 147.183L93.836 147.812L93.4548 147.908L93.7146 146.493Z" fill="white"/>
<path d="M99.5588 169.683L96.5691 170.443L103.144 194.633L106.134 193.873L99.5588 169.683Z" fill="#EC6024"/>
<path d="M97.3957 174.002L94.4021 174.764L100.038 195.462L103.032 194.701L97.3957 174.002Z" fill="#FFBF00"/>
<path d="M111.832 174.2L108.837 174.961L113.474 191.938L116.469 191.177L111.832 174.2Z" fill="#EC6024"/>
<path d="M110.015 180.093L107.008 180.857L110.261 192.712L113.269 191.948L110.015 180.093Z" fill="#FFBF00"/>
<path d="M121.205 168.862L118.212 169.623L123.557 189.237L126.55 188.475L121.205 168.862Z" fill="#EC6024"/>
<path d="M119.841 176.132L116.835 176.896L120.422 189.992L123.428 189.227L119.841 176.132Z" fill="#FFBF00"/>
<path d="M130.751 164.147L127.755 164.91L133.617 186.461L136.613 185.698L130.751 164.147Z" fill="#EC6024"/>
<path d="M131.919 181.053L128.877 181.828L130.391 187.313L133.433 186.537L131.919 181.053Z" fill="#FFBF00"/>
<path d="M141.369 163.462L138.377 164.223L143.723 183.837L146.716 183.076L141.369 163.462Z" fill="#EC6024"/>
<path d="M139.061 167.24L136.064 168.002L140.616 184.668L143.613 183.906L139.061 167.24Z" fill="#FFBF00"/>
<path d="M149.185 152.304L146.193 153.066L153.805 181.132L156.797 180.37L149.185 152.304Z" fill="#EC6024"/>
<path d="M149.366 165.643L146.359 166.41L150.611 181.985L153.617 181.218L149.366 165.643Z" fill="#FFBF00"/>
<path d="M157.526 143.419L154.535 144.182L163.81 178.451L166.801 177.689L157.526 143.419Z" fill="#EC6024"/>
<path d="M158.286 158.929L155.283 159.695L160.618 179.303L163.621 178.537L158.286 158.929Z" fill="#FFBF00"/>
<path d="M168.514 143.807L165.526 144.568L173.994 175.815L176.982 175.054L168.514 143.807Z" fill="#EC6024"/>
<path d="M167.085 151.175L164.092 151.937L170.809 176.668L173.802 175.905L167.085 151.175Z" fill="#FFBF00"/>
<path d="M184.423 172.805L93.2598 196.957L94.0685 200.112L185.232 175.959L184.423 172.805Z" fill="#3C586D"/>
</g>
<g filter="url(#filter1_d_1079_3701)">
<path d="M130.013 78.5794L14 108.68L56.592 264.832L172.605 234.732L130.013 78.5794Z" fill="white"/>
<path d="M53.2123 111.508L30.0427 117.617L30.4773 119.272L53.6469 113.163L53.2123 111.508Z" fill="#754C24"/>
<path d="M84.7028 110.792L31.9746 124.863L32.1908 125.698L84.9189 111.627L84.7028 110.792Z" fill="#754C24"/>
<path d="M85.4723 113.663L32.7442 127.734L32.9603 128.569L85.6885 114.497L85.4723 113.663Z" fill="#754C24"/>
<path d="M86.2618 116.61L33.5337 130.682L33.7499 131.516L86.4779 117.445L86.2618 116.61Z" fill="#754C24"/>
<path d="M58.4799 131.119L35.2993 137.279L35.5151 138.108L58.6956 131.947L58.4799 131.119Z" fill="#754C24"/>
<path d="M88.0273 123.201L64.8467 129.361L65.0624 130.19L88.243 124.029L88.0273 123.201Z" fill="#754C24"/>
<path d="M59.3325 134.308L36.1519 140.469L36.3676 141.297L59.5482 135.136L59.3325 134.308Z" fill="#754C24"/>
<path d="M88.8804 126.38L65.6997 132.541L65.9155 133.369L89.0961 127.209L88.8804 126.38Z" fill="#754C24"/>
<path d="M60.184 137.488L37.0034 143.648L37.2192 144.477L60.3998 138.316L60.184 137.488Z" fill="#754C24"/>
<path d="M89.7324 129.56L66.5518 135.721L66.7675 136.549L89.9481 130.388L89.7324 129.56Z" fill="#754C24"/>
<path d="M61.0361 140.658L37.8555 146.818L38.0712 147.647L61.2519 141.486L61.0361 140.658Z" fill="#754C24"/>
<path d="M90.584 132.74L67.4034 138.9L67.6191 139.729L90.7997 133.568L90.584 132.74Z" fill="#754C24"/>
<path d="M61.8673 143.761L38.6868 149.922L38.9025 150.75L62.083 144.589L61.8673 143.761Z" fill="#754C24"/>
<path d="M91.4157 135.843L68.2351 142.004L68.4508 142.832L91.6315 136.672L91.4157 135.843Z" fill="#754C24"/>
<path d="M62.719 146.939L39.5383 153.1L39.7541 153.928L62.9347 147.767L62.719 146.939Z" fill="#754C24"/>
<path d="M92.2677 139.021L69.0872 145.182L69.3029 146.01L92.4834 139.849L92.2677 139.021Z" fill="#754C24"/>
<path d="M132.083 137.174L78.812 151.391L79.0282 152.225L132.299 138.008L132.083 137.174Z" fill="#754C24"/>
<path d="M133.061 140.818L79.7898 155.035L80.006 155.87L133.277 141.653L133.061 140.818Z" fill="#754C24"/>
<path d="M134.058 144.533L80.7865 158.75L81.0027 159.585L134.274 145.368L134.058 144.533Z" fill="#754C24"/>
<path d="M135.055 148.263L81.7842 162.48L82.0003 163.315L135.271 149.098L135.055 148.263Z" fill="#754C24"/>
<path d="M136.032 151.9L82.7607 166.117L82.9768 166.952L136.248 152.735L136.032 151.9Z" fill="#754C24"/>
<path d="M137.029 155.633L83.7578 169.85L83.974 170.684L137.245 156.467L137.029 155.633Z" fill="#754C24"/>
<path d="M138.026 159.345L84.7552 173.562L84.9714 174.397L138.242 160.18L138.026 159.345Z" fill="#754C24"/>
<path d="M80.5887 104.172L57.4192 110.281L57.8538 111.936L81.0233 105.827L80.5887 104.172Z" fill="#754C24"/>
<path d="M120.188 94.2779L88.3374 102.428L98.3915 138.907L130.242 130.758L120.188 94.2779Z" fill="#F6DF9F"/>
<path d="M49.4191 159.685L41.8452 161.623L48.24 184.951L55.8138 183.013L49.4191 159.685Z" fill="#F6DF9F"/>
<path d="M60.9748 156.587L53.4009 158.525L59.7957 181.853L67.3696 179.915L60.9748 156.587Z" fill="#F6DF9F"/>
<path d="M72.6076 153.47L65.0337 155.408L71.4285 178.736L79.0024 176.798L72.6076 153.47Z" fill="#F6DF9F"/>
<path d="M126.264 206.595L120.917 207.957L126.375 227.846L131.722 226.484L126.264 206.595Z" fill="#A3E4FF"/>
<path d="M134.098 204.495L128.751 205.857L134.209 225.747L139.557 224.385L134.098 204.495Z" fill="#A3E4FF"/>
<path d="M141.853 202.417L136.506 203.779L141.965 223.669L147.312 222.306L141.853 202.417Z" fill="#A3E4FF"/>
<path d="M149.609 200.341L144.262 201.703L149.72 221.592L155.067 220.23L149.609 200.341Z" fill="#A3E4FF"/>
<path d="M77.1562 195.32C79.1671 198.758 79.1872 202.954 77.3368 206.282L72.639 203.443C73.5642 201.779 73.5542 199.681 72.5759 197.914L77.1562 195.32Z" fill="#2274A5"/>
<path d="M58.3685 195.163C60.2391 191.784 63.7796 189.686 67.6814 189.799C71.5833 189.912 75.22 192.055 77.1742 195.567L72.4902 198.298C71.5241 196.582 69.6453 195.441 67.7438 195.414C65.8424 195.388 64.0502 196.357 63.0598 198.146L58.3685 195.163Z" fill="#173D4D"/>
<path d="M77.2387 206.466C75.3798 209.809 71.8602 211.887 67.9807 211.777C64.1011 211.666 60.4845 209.547 58.5403 206.074C56.618 202.679 56.521 198.483 58.3034 195.159L63.0783 197.912C62.1488 199.584 62.2356 201.672 63.1967 203.369C64.1579 205.067 66.0263 206.195 67.9169 206.221C69.8075 206.246 71.6656 205.267 72.5733 203.516L77.2387 206.466Z" fill="#AAC350"/>
<path d="M108.255 186.986C110.266 190.424 110.286 194.62 108.435 197.948L103.738 195.109C104.663 193.445 104.653 191.347 103.675 189.58L108.255 186.986Z" fill="#EC6024"/>
<path d="M89.4673 186.829C91.338 183.45 94.8785 181.352 98.7803 181.465C102.682 181.578 106.319 183.721 108.273 187.233L103.589 189.964C102.623 188.248 100.744 187.107 98.8427 187.08C96.9412 187.054 95.1491 188.023 94.1587 189.812L89.4673 186.829Z" fill="#5BC0EB"/>
<path d="M108.338 198.132C106.479 201.476 102.959 203.553 99.0795 203.443C95.2 203.332 91.5834 201.213 89.6392 197.74C87.7169 194.345 87.6199 190.149 89.4023 186.825L94.1771 189.578C93.2477 191.25 93.3344 193.338 94.2956 195.035C95.2567 196.733 97.1251 197.861 99.0158 197.887C100.906 197.912 102.765 196.933 103.672 195.182L108.338 198.132Z" fill="#AAC350"/>
<path d="M98.8992 203.485C95.0503 203.374 91.4626 201.269 89.5345 197.82C87.628 194.449 87.5326 190.282 89.3017 186.981L94.0383 189.716C93.1158 191.376 93.2015 193.45 94.1547 195.135C95.1079 196.821 96.9614 197.942 98.8371 197.968L98.8992 203.485Z" fill="#32A67B"/>
<path d="M139.334 178.652C141.35 182.097 141.381 186.297 139.543 189.622L134.849 186.771C135.768 185.108 135.752 183.008 134.772 181.237L139.334 178.652Z" fill="#EC6024"/>
<path d="M120.651 178.451C122.512 175.067 126.045 172.972 129.944 173.097C133.844 173.222 137.484 175.382 139.446 178.91L134.772 181.636C133.802 179.912 131.922 178.762 130.021 178.73C128.121 178.698 126.333 179.665 125.348 181.456L120.651 178.451Z" fill="#FFBF00"/>
<path d="M139.428 189.833C137.583 193.177 134.076 195.248 130.203 195.127C126.33 195.006 122.714 192.873 120.763 189.389C118.834 185.984 118.724 181.781 120.493 178.457L125.268 181.227C124.345 182.899 124.438 184.991 125.402 186.693C126.367 188.396 128.235 189.532 130.123 189.562C132.01 189.593 133.862 188.617 134.762 186.866L139.428 189.833Z" fill="#EC6024"/>
<path d="M130.08 195.144C126.24 195.026 122.657 192.912 120.726 189.457C118.817 186.081 118.713 181.912 120.47 178.614L125.202 181.36C124.285 183.018 124.375 185.093 125.329 186.781C126.284 188.47 128.135 189.595 130.007 189.625L130.08 195.144Z" fill="#EC6024"/>
</g>
</g>
<defs>
<filter id="filter0_d_1079_3701" x="35.3818" y="39.2961" width="178.605" height="206.253" filterUnits="userSpaceOnUse" color-interpolation-filters="sRGB">
<feFlood flood-opacity="0" result="BackgroundImageFix"/>
<feColorMatrix in="SourceAlpha" type="matrix" values="0 0 0 0 0 0 0 0 0 0 0 0 0 0 0 0 0 0 127 0" result="hardAlpha"/>
<feOffset dy="10"/>
<feGaussianBlur stdDeviation="5"/>
<feColorMatrix type="matrix" values="0 0 0 0 0 0 0 0 0 0 0 0 0 0 0 0 0 0 0.25 0"/>
<feBlend mode="normal" in2="BackgroundImageFix" result="effect1_dropShadow_1079_3701"/>
<feBlend mode="normal" in="SourceGraphic" in2="effect1_dropShadow_1079_3701" result="shape"/>
</filter>
<filter id="filter1_d_1079_3701" x="9" y="73.5793" width="178.605" height="206.253" filterUnits="userSpaceOnUse" color-interpolation-filters="sRGB">
<feFlood flood-opacity="0" result="BackgroundImageFix"/>
<feColorMatrix in="SourceAlpha" type="matrix" values="0 0 0 0 0 0 0 0 0 0 0 0 0 0 0 0 0 0 127 0" result="hardAlpha"/>
<feOffset dx="5" dy="5"/>
<feGaussianBlur stdDeviation="5"/>
<feColorMatrix type="matrix" values="0 0 0 0 0 0 0 0 0 0 0 0 0 0 0 0 0 0 0.25 0"/>
<feBlend mode="normal" in2="BackgroundImageFix" result="effect1_dropShadow_1079_3701"/>
<feBlend mode="normal" in="SourceGraphic" in2="effect1_dropShadow_1079_3701" result="shape"/>
</filter>
<linearGradient id="paint0_linear_1079_3701" x1="105" y1="0" x2="105" y2="210" gradientUnits="userSpaceOnUse">
<stop stop-color="#9B3145"/>
<stop offset="1" stop-color="#F15722"/>
</linearGradient>
<linearGradient id="paint1_linear_1079_3701" x1="105" y1="0" x2="105" y2="210" gradientUnits="userSpaceOnUse">
<stop stop-color="#219EBC"/>
<stop offset="1" stop-color="#04668B"/>
</linearGradient>
</defs>
</svg>
