<svg width="210" height="210" viewBox="0 0 210 210" fill="none" xmlns="http://www.w3.org/2000/svg">
<circle cx="105" cy="105" r="105" fill="#F39F15"/>
<circle cx="105" cy="105" r="105" fill="url(#paint0_linear_1079_3698)"/>
<circle cx="105" cy="105" r="105" fill="url(#paint1_linear_1079_3698)"/>
<mask id="mask0_1079_3698" style="mask-type:alpha" maskUnits="userSpaceOnUse" x="0" y="0" width="210" height="210">
<circle cx="105" cy="105" r="105" fill="#F39F15"/>
</mask>
<g mask="url(#mask0_1079_3698)">
<g clip-path="url(#clip0_1079_3698)">
<path d="M57.21 163.555C57.3632 162.011 57.7461 160.543 58.5121 159.076C59.5079 157.068 61.0398 155.369 62.725 154.133C62.8782 153.979 63.1846 153.979 63.4144 154.056C63.7208 154.211 63.874 154.597 63.7208 154.906L63.5676 155.06C62.6484 155.832 61.8824 156.836 61.2696 157.995C61.0398 158.458 60.8866 158.922 60.7335 159.385L60.6569 159.617L60.8101 159.539C62.725 158.922 64.3335 157.531 65.3293 155.601C66.0187 154.133 66.3251 152.666 66.0953 151.121C66.0953 150.967 66.0953 150.89 66.1719 150.735C66.3251 150.426 66.7081 150.349 67.0145 150.426C67.0911 150.504 67.1677 150.581 67.2443 150.658C68.3932 153.207 68.3932 156.219 67.0911 158.922C65.7889 161.47 63.5676 163.247 60.9632 163.864C60.81 163.864 60.6569 163.942 60.5037 164.019C60.3505 164.096 60.1973 164.251 60.0441 164.482L60.1207 164.637C60.0441 164.791 60.0441 164.946 60.0441 165.023C60.0441 165.023 60.0441 165.409 60.1973 165.718V165.872C60.1973 166.104 60.0441 166.258 59.8143 166.258C59.7377 166.258 59.6611 166.258 59.5845 166.181L57.5929 164.714C57.4398 164.559 57.3632 164.405 57.2866 164.173C57.21 164.096 57.21 163.633 57.21 163.555Z" fill="white"/>
<path d="M57.1333 170.198C56.9035 167.649 56.2141 165.1 54.9886 162.706C53.3034 159.385 50.7757 156.528 48.0182 154.52C47.7118 154.288 47.2522 154.211 46.9458 154.443C46.4096 154.674 46.1798 155.369 46.4862 155.91C46.5628 155.987 46.6394 156.142 46.716 156.219C48.248 157.532 49.5501 159.154 50.5459 161.084C50.9289 161.857 51.1587 162.629 51.3885 163.401L51.4651 163.71L51.1587 163.633C48.0182 162.552 45.2607 160.312 43.6521 156.991C42.4266 154.52 41.967 152.049 42.35 149.5C42.35 149.268 42.35 149.114 42.2734 148.882C42.0436 148.341 41.4308 148.187 40.8946 148.419C40.7414 148.496 40.5882 148.65 40.5116 148.805C38.6733 152.975 38.5201 158.072 40.7414 162.552C42.8861 166.877 46.6394 169.734 50.9289 170.893C51.2353 170.97 51.4651 171.047 51.6949 171.124C52.0013 171.279 52.2311 171.511 52.4609 171.819L52.5375 171.974C52.6141 172.206 52.6906 172.437 52.6906 172.669C52.6906 172.669 52.6907 173.364 52.4609 173.75C52.4609 173.827 52.4609 173.905 52.4609 173.982C52.4609 174.368 52.7672 174.6 53.0736 174.6C53.2268 174.6 53.3034 174.523 53.4566 174.445L56.8269 171.974C57.1333 171.742 57.2865 171.433 57.2865 171.047C57.2099 171.047 57.1333 170.352 57.1333 170.198Z" fill="white"/>
<path d="M49.8563 144.558C49.7031 143.014 49.3201 141.546 48.5541 140.079C47.5584 138.071 46.0264 136.372 44.3412 135.136C44.1881 134.982 43.8817 134.982 43.6519 135.059C43.3455 135.214 43.1923 135.6 43.3455 135.909L43.4987 136.063C44.4178 136.835 45.1838 137.839 45.7966 138.998C46.0264 139.461 46.1796 139.925 46.3328 140.388L46.4094 140.542L46.2562 140.465C44.3412 139.847 42.7327 138.457 41.7369 136.526C41.0476 135.059 40.7412 133.592 40.971 132.047C40.971 131.893 40.971 131.815 40.8944 131.661C40.7412 131.352 40.3582 131.275 40.0518 131.352C39.9752 131.429 39.8986 131.507 39.822 131.584C38.673 134.132 38.673 137.144 39.9752 139.847C41.2773 142.396 43.4987 144.172 46.103 144.79C46.2562 144.79 46.4094 144.867 46.5626 144.945C46.7158 145.022 46.869 145.176 47.0222 145.408L47.0988 145.485C47.1754 145.64 47.1754 145.794 47.1754 145.871C47.1754 145.871 47.1754 146.258 47.0222 146.566V146.721C47.0222 146.953 47.1754 147.107 47.4052 147.107C47.4818 147.107 47.5584 147.107 47.635 147.03L49.6265 145.562C49.7797 145.408 49.8563 145.254 49.9329 145.022C49.8563 145.022 49.8563 144.636 49.8563 144.558Z" fill="white"/>
<path d="M49.933 151.2C50.1628 148.651 50.8522 146.102 52.0777 143.708C53.6863 140.387 56.2906 137.53 59.0481 135.522C59.3545 135.29 59.8141 135.213 60.1205 135.445C60.6567 135.676 60.8864 136.371 60.5801 136.912C60.5035 136.989 60.4269 137.144 60.3503 137.221C58.8183 138.534 57.5162 140.156 56.5204 142.086C56.1374 142.859 55.9076 143.631 55.6778 144.403L55.6012 144.712L55.9076 144.635C59.0481 143.554 61.8056 141.314 63.4142 137.993C64.6397 135.522 65.0993 133.05 64.7163 130.502C64.7163 130.27 64.7163 130.116 64.7929 129.884C65.0227 129.343 65.6355 129.189 66.1717 129.421C66.3249 129.498 66.4781 129.652 66.5547 129.807C68.393 133.977 68.5462 139.074 66.3249 143.554C64.1801 147.879 60.4269 150.736 56.1374 151.895C55.831 151.972 55.6012 152.049 55.3714 152.126C55.065 152.281 54.8352 152.513 54.6054 152.821L54.5288 152.976C54.4522 153.208 54.3756 153.439 54.3756 153.671C54.3756 153.671 54.3756 154.366 54.6054 154.752V154.984C54.6054 155.37 54.299 155.602 53.9927 155.602C53.8395 155.602 53.7629 155.524 53.6097 155.447L50.2394 152.976C49.933 152.744 49.7798 152.435 49.7798 152.049C49.8564 152.049 49.933 151.354 49.933 151.2Z" fill="white"/>
<path d="M46.7154 125.945C46.7154 126.485 46.1792 126.949 45.5664 126.949C44.9537 126.949 44.4175 126.485 44.4175 125.945V109.881C44.4175 109.34 44.9537 108.877 45.5664 108.877C46.1792 108.877 46.7154 109.34 46.7154 109.881V125.945Z" fill="white"/>
<path d="M61.4991 125.945C61.4991 126.485 60.9629 126.949 60.3501 126.949C59.7374 126.949 59.2012 126.485 59.2012 125.945V109.881C59.2012 109.34 59.7374 108.877 60.3501 108.877C60.9629 108.877 61.4991 109.34 61.4991 109.881V125.945Z" fill="white"/>
<path d="M54.0694 131.119C54.0694 131.66 53.5332 132.123 52.9205 132.123C52.3077 132.123 51.7715 131.66 51.7715 131.119V109.881C51.7715 109.34 52.3077 108.877 52.9205 108.877C53.5332 108.877 54.0694 109.34 54.0694 109.881V131.119Z" fill="white"/>
<path d="M83.7122 121.389C83.7122 120.849 83.559 120.463 83.3292 120.154C83.0228 119.845 82.6398 119.69 82.1036 119.69V123.397C83.2526 123.397 83.7888 122.78 83.7888 121.544V121.389H83.7122ZM78.9631 121.544C78.9631 122.162 79.1163 122.625 79.3461 122.934C79.5759 123.243 80.0355 123.397 80.5717 123.397V119.69C80.0355 119.69 79.5759 119.845 79.3461 120.154C79.0397 120.463 78.9631 120.849 78.9631 121.389V121.544ZM80.6483 124.633C80.1121 124.633 79.7291 124.556 79.2695 124.401C78.8865 124.247 78.5801 124.015 78.2737 123.784C78.0439 123.552 77.8141 123.166 77.6609 122.78C77.5078 122.393 77.4312 122.007 77.4312 121.544V121.389C77.4312 121.003 77.5078 120.617 77.6609 120.231C77.8141 119.845 77.9673 119.613 78.2737 119.304C78.5035 119.073 78.8865 118.841 79.2695 118.686C79.6525 118.532 80.1121 118.455 80.6483 118.455V117.914H82.1036V118.532C82.5632 118.532 83.0228 118.609 83.4058 118.764C83.7888 118.918 84.0951 119.073 84.4015 119.381C84.7079 119.613 84.8611 119.922 85.0143 120.308C85.1675 120.694 85.2441 121.081 85.2441 121.467V121.621C85.2441 122.084 85.1675 122.471 85.0143 122.857C84.8611 123.243 84.6313 123.552 84.4015 123.861C84.0951 124.092 83.7888 124.324 83.4058 124.479C83.0228 124.633 82.5632 124.71 82.1036 124.71V125.328H80.6483V124.633Z" fill="white"/>
<path d="M89.3041 123.859C89.5339 123.859 89.7637 123.859 89.9169 123.781C90.1467 123.704 90.2998 123.55 90.453 123.395C90.6062 123.241 90.7594 123.009 90.836 122.7C90.9126 122.391 90.9892 122.082 90.9892 121.619V121.387C90.9892 121.001 90.9126 120.692 90.836 120.383C90.7594 120.152 90.6062 119.92 90.453 119.765C90.2998 119.611 90.1467 119.457 89.9169 119.379C89.6871 119.302 89.5339 119.302 89.3041 119.302C89.0743 119.302 88.8445 119.302 88.6913 119.379C88.4615 119.457 88.3083 119.611 88.1551 119.765C88.0019 119.92 87.8487 120.152 87.7721 120.383C87.6955 120.615 87.6189 121.001 87.6189 121.387V121.619C87.6189 122.005 87.6955 122.391 87.7721 122.7C87.8487 123.009 88.0019 123.241 88.1551 123.395C88.3083 123.55 88.4615 123.704 88.6913 123.781C88.8445 123.781 89.0743 123.859 89.3041 123.859ZM89.3041 125.094C88.9211 125.094 88.4615 125.017 88.0785 124.94C87.6955 124.785 87.3891 124.631 87.0827 124.322C86.7764 124.013 86.5466 123.704 86.3934 123.241C86.2402 122.777 86.1636 122.314 86.1636 121.696V121.465C86.1636 120.847 86.2402 120.383 86.3934 119.92C86.5466 119.534 86.7764 119.148 87.0827 118.916C87.3891 118.684 87.6955 118.453 88.0785 118.298C88.4615 118.144 88.8445 118.066 89.3041 118.066C89.6871 118.066 90.1467 118.144 90.5296 118.298C90.9126 118.453 91.219 118.607 91.5254 118.916C91.8318 119.148 92.0616 119.534 92.2148 119.92C92.368 120.306 92.4446 120.847 92.4446 121.465V121.696C92.4446 122.314 92.368 122.855 92.2148 123.241C92.0616 123.704 91.8318 124.013 91.5254 124.322C91.219 124.631 90.9126 124.785 90.5296 124.94C90.0701 125.017 89.6871 125.094 89.3041 125.094Z" fill="white"/>
<path d="M93.6704 118.223H95.1258V120.848H97.9599V118.223H99.4152V124.942H97.9599V122.084H95.1258V124.942H93.6704V118.223Z" fill="white"/>
<path d="M104.93 123.783V119.458H103.015V119.999C103.015 120.848 102.938 121.621 102.862 122.239C102.785 122.856 102.632 123.397 102.479 123.86H104.93V123.783ZM100.334 123.783H101.1C101.176 123.552 101.253 123.32 101.33 122.934C101.406 122.625 101.406 122.316 101.483 121.93C101.559 121.544 101.559 121.235 101.559 120.848C101.559 120.462 101.559 120.076 101.559 119.767V118.223H106.309V123.783H106.998V126.255H105.696V125.019H101.559V126.255H100.257V123.783H100.334Z" fill="white"/>
<path d="M77.8145 129.42H83.4827V136.216H82.0273V130.656H79.2698V136.216H77.8145V129.42Z" fill="white"/>
<path d="M87.3892 132.664C87.9254 132.664 88.2318 132.586 88.4615 132.432C88.6913 132.277 88.7679 131.969 88.7679 131.66C88.7679 131.351 88.6913 131.042 88.4615 130.887C88.2318 130.733 87.9254 130.656 87.3892 130.656H86.3934V132.664H87.3892ZM85.0146 129.42H87.619C88.5381 129.42 89.2275 129.652 89.6105 130.038C90.0701 130.424 90.2999 130.965 90.2999 131.66C90.2999 132.355 90.0701 132.895 89.6105 133.281C89.1509 133.668 88.4615 133.899 87.619 133.899H86.47V136.216H85.0146V129.42Z" fill="white"/>
<path d="M94.2064 135.059C94.4362 135.059 94.666 135.059 94.8192 134.982C95.049 134.904 95.2022 134.75 95.3554 134.595C95.5086 134.441 95.6618 134.209 95.7384 133.9C95.815 133.591 95.8916 133.282 95.8916 132.819V132.665C95.8916 132.278 95.815 131.97 95.7384 131.661C95.6618 131.429 95.5086 131.197 95.3554 131.043C95.2022 130.888 95.049 130.734 94.8192 130.657C94.5894 130.579 94.4362 130.579 94.2064 130.579C93.9766 130.579 93.7468 130.579 93.5936 130.657C93.3638 130.734 93.2106 130.888 93.0575 131.043C92.9043 131.197 92.7511 131.429 92.6745 131.661C92.5979 131.892 92.5213 132.278 92.5213 132.665V132.819C92.5213 133.205 92.5979 133.591 92.6745 133.9C92.7511 134.209 92.9043 134.441 93.0575 134.595C93.2106 134.75 93.3638 134.904 93.5936 134.982C93.7468 135.059 93.9766 135.059 94.2064 135.059ZM94.2064 136.294C93.8234 136.294 93.3638 136.217 92.9809 136.063C92.5979 135.908 92.2915 135.754 91.9851 135.445C91.6787 135.136 91.4489 134.827 91.2957 134.364C91.1425 133.9 91.0659 133.437 91.0659 132.819V132.665C91.0659 132.047 91.1425 131.583 91.2957 131.12C91.4489 130.734 91.6787 130.348 91.9851 130.116C92.2915 129.884 92.5979 129.653 92.9809 129.498C93.3638 129.344 93.7468 129.344 94.2064 129.344C94.5894 129.344 95.049 129.421 95.432 129.498C95.815 129.653 96.1214 129.807 96.4278 130.116C96.7341 130.348 96.9639 130.734 97.1171 131.12C97.2703 131.506 97.3469 132.047 97.3469 132.665V132.819C97.3469 133.437 97.2703 133.978 97.1171 134.364C96.9639 134.827 96.7341 135.136 96.4278 135.445C96.1214 135.754 95.815 135.908 95.432 136.063C95.049 136.217 94.5894 136.294 94.2064 136.294Z" fill="white"/>
<path d="M102.325 134.98V130.656H100.41V131.196C100.41 132.046 100.334 132.818 100.257 133.436C100.181 134.054 100.027 134.594 99.8742 135.058H102.325V134.98ZM97.8061 134.98H98.5721C98.6487 134.749 98.7253 134.517 98.8019 134.131C98.8785 133.822 98.9551 133.513 98.9551 133.127C99.0317 132.741 99.0317 132.432 99.0317 132.046C99.0317 131.66 99.0317 131.273 99.0317 130.965V129.42H103.781V134.98H104.47V137.452H103.168V136.216H99.0317V137.452H97.7295V134.98H97.8061Z" fill="white"/>
<path d="M108.301 135.059C108.53 135.059 108.76 135.059 108.913 134.982C109.143 134.904 109.296 134.75 109.45 134.595C109.603 134.441 109.756 134.209 109.833 133.9C109.909 133.591 109.986 133.282 109.986 132.819V132.665C109.986 132.278 109.909 131.97 109.833 131.661C109.756 131.429 109.603 131.197 109.45 131.043C109.296 130.888 109.143 130.734 108.913 130.657C108.684 130.579 108.53 130.579 108.301 130.579C108.071 130.579 107.841 130.579 107.688 130.657C107.458 130.734 107.305 130.888 107.152 131.043C106.998 131.197 106.845 131.429 106.769 131.661C106.692 131.892 106.616 132.278 106.616 132.665V132.819C106.616 133.205 106.692 133.591 106.769 133.9C106.845 134.209 106.998 134.441 107.152 134.595C107.305 134.75 107.458 134.904 107.688 134.982C107.841 135.059 108.071 135.059 108.301 135.059ZM108.301 136.294C107.918 136.294 107.458 136.217 107.075 136.063C106.692 135.908 106.386 135.754 106.079 135.445C105.773 135.136 105.543 134.827 105.39 134.364C105.237 133.9 105.16 133.437 105.16 132.819V132.665C105.16 132.047 105.237 131.583 105.39 131.12C105.543 130.734 105.773 130.348 106.079 130.116C106.386 129.884 106.692 129.653 107.075 129.498C107.458 129.344 107.841 129.344 108.301 129.344C108.76 129.344 109.143 129.421 109.526 129.498C109.909 129.653 110.216 129.807 110.522 130.116C110.828 130.348 111.058 130.734 111.211 131.12C111.365 131.506 111.441 132.047 111.441 132.665V132.819C111.441 133.437 111.365 133.978 111.211 134.364C111.058 134.827 110.828 135.136 110.522 135.445C110.216 135.754 109.909 135.908 109.526 136.063C109.143 136.217 108.684 136.294 108.301 136.294Z" fill="white"/>
<path d="M115.424 135.058C115.884 135.058 116.19 134.981 116.343 134.826C116.496 134.672 116.573 134.44 116.573 134.131C116.573 133.822 116.496 133.59 116.343 133.436C116.19 133.281 115.884 133.204 115.424 133.204H114.122V135.058H115.424ZM115.271 132.2C115.654 132.2 115.96 132.123 116.113 131.969C116.267 131.814 116.343 131.582 116.343 131.351C116.343 131.119 116.267 130.887 116.113 130.733C115.96 130.578 115.654 130.501 115.271 130.501H114.122V132.2H115.271ZM112.667 129.42H115.501C116.267 129.42 116.803 129.574 117.186 129.883C117.569 130.192 117.722 130.656 117.722 131.196C117.722 131.582 117.645 131.814 117.492 132.123C117.339 132.355 117.109 132.586 116.803 132.664C117.186 132.741 117.492 132.973 117.722 133.204C117.952 133.513 118.028 133.822 118.028 134.285C118.028 134.594 117.952 134.826 117.875 135.058C117.799 135.289 117.645 135.521 117.492 135.676C117.339 135.83 117.033 135.984 116.726 136.062C116.42 136.139 116.037 136.216 115.654 136.216H112.667V129.42Z" fill="white"/>
<path d="M122.012 135.059C122.241 135.059 122.471 135.059 122.624 134.982C122.854 134.904 123.007 134.75 123.161 134.595C123.314 134.441 123.467 134.209 123.544 133.9C123.62 133.591 123.697 133.282 123.697 132.819V132.665C123.697 132.278 123.62 131.97 123.544 131.661C123.467 131.429 123.314 131.197 123.161 131.043C123.007 130.888 122.854 130.734 122.624 130.657C122.395 130.579 122.241 130.579 122.012 130.579C121.782 130.579 121.552 130.579 121.399 130.657C121.169 130.734 121.016 130.888 120.863 131.043C120.709 131.197 120.556 131.429 120.48 131.661C120.403 131.892 120.326 132.278 120.326 132.665V132.819C120.326 133.205 120.403 133.591 120.48 133.9C120.556 134.209 120.709 134.441 120.863 134.595C121.016 134.75 121.169 134.904 121.399 134.982C121.552 135.059 121.782 135.059 122.012 135.059ZM122.012 136.294C121.629 136.294 121.169 136.217 120.786 136.063C120.403 135.908 120.097 135.754 119.79 135.445C119.484 135.136 119.254 134.827 119.101 134.364C118.948 133.9 118.871 133.437 118.871 132.819V132.665C118.871 132.047 118.948 131.583 119.101 131.12C119.254 130.734 119.484 130.348 119.79 130.116C120.097 129.884 120.403 129.653 120.786 129.498C121.169 129.344 121.552 129.344 122.012 129.344C122.471 129.344 122.854 129.421 123.237 129.498C123.62 129.653 123.927 129.807 124.233 130.116C124.539 130.348 124.769 130.734 124.922 131.12C125.076 131.506 125.152 132.047 125.152 132.665V132.819C125.152 133.437 125.076 133.978 124.922 134.364C124.769 134.827 124.539 135.136 124.233 135.445C123.927 135.754 123.62 135.908 123.237 136.063C122.854 136.217 122.471 136.294 122.012 136.294Z" fill="white"/>
<path d="M126.3 136.292C126.224 136.292 126.224 136.292 126.147 136.292C126.071 136.292 125.994 136.292 125.917 136.292V134.979H126.071C126.224 134.979 126.377 134.979 126.454 134.902C126.607 134.825 126.683 134.671 126.76 134.439C126.837 134.207 126.913 133.821 126.913 133.358C126.913 132.894 126.99 132.199 126.99 131.427V129.496H131.892V136.215H130.437V130.655H128.292V131.581C128.292 132.585 128.215 133.435 128.139 134.053C128.062 134.671 127.909 135.134 127.756 135.52C127.603 135.829 127.373 136.061 127.143 136.215C126.913 136.215 126.607 136.292 126.3 136.292Z" fill="white"/>
<path d="M135.799 134.98C136.335 134.98 136.641 134.903 136.871 134.749C137.101 134.594 137.178 134.363 137.178 134.054C137.178 133.745 137.101 133.513 136.871 133.359C136.641 133.204 136.335 133.127 135.799 133.127H134.803V135.058H135.799V134.98ZM133.348 129.42H134.803V131.814H135.952C136.412 131.814 136.795 131.891 137.101 131.969C137.407 132.046 137.714 132.2 137.944 132.432C138.173 132.586 138.327 132.818 138.403 133.127C138.48 133.359 138.556 133.668 138.556 134.054C138.556 134.363 138.48 134.672 138.403 134.98C138.327 135.212 138.097 135.444 137.944 135.676C137.714 135.83 137.407 135.984 137.101 136.139C136.795 136.216 136.335 136.293 135.952 136.293H133.348V129.42Z" fill="white"/>
<path d="M142.386 136.294C141.927 136.294 141.544 136.217 141.161 136.063C140.778 135.908 140.471 135.754 140.242 135.445C140.012 135.136 139.782 134.827 139.629 134.364C139.476 133.9 139.399 133.437 139.399 132.819V132.665C139.399 132.047 139.476 131.583 139.629 131.12C139.782 130.734 140.012 130.348 140.242 130.116C140.548 129.884 140.854 129.653 141.161 129.498C141.544 129.344 141.927 129.344 142.31 129.344C142.693 129.344 143.076 129.421 143.382 129.498C143.688 129.575 143.995 129.73 144.225 129.884C144.454 130.039 144.684 130.348 144.837 130.579C144.991 130.888 145.067 131.197 145.144 131.661H143.688C143.612 131.275 143.459 130.966 143.229 130.811C142.999 130.657 142.693 130.579 142.386 130.579C142.156 130.579 142.003 130.579 141.85 130.657C141.697 130.734 141.544 130.811 141.39 131.043C141.237 131.197 141.161 131.429 141.084 131.661C141.007 131.892 140.931 132.278 140.931 132.665V132.819C140.931 133.205 141.007 133.591 141.084 133.9C141.161 134.209 141.314 134.441 141.467 134.595C141.62 134.75 141.773 134.904 141.927 134.982C142.08 135.059 142.31 135.059 142.463 135.059C142.846 135.059 143.152 134.982 143.382 134.75C143.612 134.518 143.765 134.286 143.842 133.9H145.297C145.297 134.286 145.144 134.673 144.991 134.982C144.837 135.29 144.608 135.522 144.378 135.677C144.148 135.831 143.842 135.986 143.535 136.063C143.152 136.294 142.769 136.294 142.386 136.294Z" fill="white"/>
<path d="M147.748 130.656H145.604V129.42H151.348V130.656H149.204V136.216H147.748V130.656Z" fill="white"/>
<path d="M155.025 135.058C155.485 135.058 155.791 134.981 155.944 134.826C156.097 134.672 156.174 134.44 156.174 134.131C156.174 133.822 156.097 133.59 155.944 133.436C155.791 133.281 155.485 133.204 155.025 133.204H153.723V135.058H155.025ZM154.872 132.2C155.255 132.2 155.561 132.123 155.714 131.969C155.868 131.814 155.944 131.582 155.944 131.351C155.944 131.119 155.868 130.887 155.714 130.733C155.561 130.578 155.255 130.501 154.872 130.501H153.723V132.2H154.872ZM152.268 129.42H155.102C155.868 129.42 156.404 129.574 156.787 129.883C157.17 130.192 157.323 130.656 157.323 131.196C157.323 131.582 157.246 131.814 157.093 132.123C156.94 132.355 156.71 132.586 156.404 132.664C156.787 132.741 157.093 132.973 157.323 133.204C157.553 133.513 157.629 133.822 157.629 134.285C157.629 134.594 157.553 134.826 157.476 135.058C157.4 135.289 157.246 135.521 157.093 135.676C156.94 135.83 156.634 135.984 156.327 136.062C156.021 136.139 155.638 136.216 155.255 136.216H152.268V129.42Z" fill="white"/>
<path d="M158.778 129.42H160.234V133.899L163.144 129.42H164.523V136.216H163.068V131.737L160.157 136.216H158.778V129.42Z" fill="white"/>
<path d="M167.357 131.583C167.357 131.738 167.357 131.892 167.434 131.97C167.51 132.124 167.587 132.201 167.663 132.279C167.74 132.356 167.893 132.433 168.123 132.433C168.276 132.51 168.506 132.51 168.812 132.51H169.808V130.579H168.812C168.583 130.579 168.353 130.579 168.123 130.657C167.97 130.734 167.817 130.734 167.663 130.811C167.587 130.888 167.51 130.966 167.434 131.12C167.357 131.275 167.357 131.429 167.357 131.583ZM167.357 133.591C166.897 133.437 166.514 133.205 166.285 132.819C166.055 132.51 165.902 132.047 165.902 131.583C165.902 131.275 165.978 130.966 166.055 130.657C166.131 130.425 166.285 130.193 166.514 129.962C166.744 129.807 166.974 129.653 167.28 129.498C167.587 129.421 167.97 129.344 168.353 129.344H171.11V136.063H169.655V133.591H168.583L167.127 136.063H165.595L167.357 133.591Z" fill="white"/>
<path d="M88.4618 158.072C90.7597 158.072 91.8321 156.528 91.8321 154.365C91.8321 152.203 90.6831 150.735 88.5384 150.735H85.2447V158.072H88.4618ZM78.7339 145.098H89.8406C95.0492 145.098 98.5727 148.959 98.5727 154.365C98.5727 159.771 95.0492 163.71 89.8406 163.71H85.2447V172.051H78.7339V145.098Z" fill="white"/>
<path d="M104.088 165.564C104.777 166.182 105.773 166.954 107.075 166.954C108.147 166.954 108.837 166.49 109.22 165.564L98.8789 145.098H106.079L110.522 154.751C111.441 156.682 111.977 158.381 111.977 158.381H112.054C112.054 158.381 112.437 156.682 113.126 154.829L116.42 145.098H123.314L115.424 165.332C114.198 168.498 112.13 172.514 107.458 172.514C105.083 172.514 103.245 171.819 101.33 170.506L104.088 165.564Z" fill="white"/>
<path d="M138.25 144.711C141.85 144.711 145.68 145.947 148.285 148.495L145.221 153.515C143.536 151.971 140.931 150.735 138.557 150.735C133.195 150.735 130.974 154.519 130.974 158.458C130.974 162.474 133.348 166.567 138.557 166.567C141.238 166.567 143.842 165.1 145.68 163.246L149.051 168.034C146.676 170.506 143.153 172.514 138.25 172.514C129.671 172.514 124.233 166.567 124.233 158.535C124.233 150.735 129.978 144.711 138.25 144.711Z" fill="white"/>
<path d="M162.148 166.413C164.293 166.413 165.442 164.946 165.442 162.783C165.442 160.621 164.293 159.076 162.072 159.076H158.855V166.413H162.148ZM152.344 145.098H158.855V153.439H163.45C168.659 153.439 172.183 157.377 172.183 162.783C172.183 168.189 168.659 172.051 163.45 172.051H152.344V145.098Z" fill="white"/>
</g>
<g filter="url(#filter0_d_1079_3698)">
<circle cx="112.588" cy="78.5882" r="20.5882" fill="#E6BA7B"/>
<path d="M106.883 90.1181V86.7859H104.353V83.7652H106.883V81.3361H104.353V77.4745H106.883V67.8828H114.092C117.001 67.8828 119.119 68.4641 120.447 69.6268C121.796 70.7894 122.471 72.388 122.471 74.4226C122.471 75.6268 122.197 76.7582 121.649 77.8171C121.101 78.8759 120.184 79.7271 118.898 80.3707C117.633 81.0143 115.904 81.3361 113.712 81.3361H111.657V83.7652H116.526V86.7859H111.657V90.1181H106.883ZM113.238 77.4745C114.587 77.4745 115.652 77.2461 116.431 76.7894C117.232 76.3326 117.633 75.5956 117.633 74.5783C117.633 72.689 116.368 71.7444 113.839 71.7444H111.657V77.4745H113.238Z" fill="#754C24"/>
</g>
<g filter="url(#filter1_d_1079_3698)">
<circle cx="80.0883" cy="35.0888" r="16.0882" transform="rotate(21.4939 80.0883 35.0888)" fill="#E6BA7B"/>
<path d="M72.6388 41.8365L73.5929 39.4137L71.7537 38.6895L72.6186 36.4931L74.4578 37.2174L75.1533 35.4512L73.3141 34.727L74.4197 31.9193L76.2589 32.6435L79.0052 25.6696L84.2468 27.7337C86.3619 28.5665 87.7357 29.5958 88.3684 30.8213C89.0164 32.0529 89.0492 33.4084 88.4666 34.8877C88.1219 35.7632 87.5987 36.5074 86.897 37.1204C86.1954 37.7333 85.2849 38.0897 84.1658 38.1895C83.0619 38.2953 81.713 38.0344 80.119 37.4067L78.6247 36.8183L77.9292 38.5844L81.4696 39.9786L80.6047 42.1749L77.0643 40.7807L76.1103 43.2035L72.6388 41.8365ZM80.8798 34.4632C81.8607 34.8495 82.7001 34.9882 83.398 34.8794C84.1111 34.7767 84.6134 34.3555 84.9046 33.6158C85.4456 32.2421 84.7964 31.1932 82.9573 30.4689L81.371 29.8443L79.7304 34.0105L80.8798 34.4632Z" fill="#754C24"/>
</g>
<g filter="url(#filter2_d_1079_3698)">
<circle cx="116.088" cy="7.58878" r="11.5882" transform="rotate(-25.8795 116.088 7.58878)" fill="#E6BA7B"/>
<path d="M116.031 14.8282L115.213 13.1408L113.932 13.7622L113.19 12.2324L114.47 11.611L113.874 10.3809L112.593 11.0023L111.644 9.04679L112.925 8.42535L110.569 3.56801L114.219 1.79691C115.692 1.08225 116.908 0.856183 117.866 1.11869C118.835 1.37603 119.569 2.01987 120.069 3.05021C120.365 3.66001 120.504 4.30033 120.487 4.97117C120.469 5.64202 120.214 6.29835 119.721 6.94018C119.239 7.57682 118.443 8.16443 117.332 8.70301L116.292 9.20793L116.888 10.438L119.354 9.24177L120.096 10.7715L117.63 11.9678L118.449 13.6552L116.031 14.8282ZM116.143 6.86398C116.827 6.53255 117.31 6.15537 117.592 5.73246C117.886 5.30437 117.908 4.83274 117.658 4.31757C117.193 3.36082 116.321 3.19317 115.04 3.81461L113.935 4.3506L115.343 7.25238L116.143 6.86398Z" fill="#754C24"/>
</g>
</g>
<defs>
<filter id="filter0_d_1079_3698" x="82" y="53" width="61.1765" height="61.1765" filterUnits="userSpaceOnUse" color-interpolation-filters="sRGB">
<feFlood flood-opacity="0" result="BackgroundImageFix"/>
<feColorMatrix in="SourceAlpha" type="matrix" values="0 0 0 0 0 0 0 0 0 0 0 0 0 0 0 0 0 0 127 0" result="hardAlpha"/>
<feOffset dy="5"/>
<feGaussianBlur stdDeviation="5"/>
<feColorMatrix type="matrix" values="0 0 0 0 0 0 0 0 0 0 0 0 0 0 0 0 0 0 0.15 0"/>
<feBlend mode="normal" in2="BackgroundImageFix" result="effect1_dropShadow_1079_3698"/>
<feBlend mode="normal" in="SourceGraphic" in2="effect1_dropShadow_1079_3698" result="shape"/>
</filter>
<filter id="filter1_d_1079_3698" x="53.9958" y="13.9962" width="52.1851" height="52.1851" filterUnits="userSpaceOnUse" color-interpolation-filters="sRGB">
<feFlood flood-opacity="0" result="BackgroundImageFix"/>
<feColorMatrix in="SourceAlpha" type="matrix" values="0 0 0 0 0 0 0 0 0 0 0 0 0 0 0 0 0 0 127 0" result="hardAlpha"/>
<feOffset dy="5"/>
<feGaussianBlur stdDeviation="5"/>
<feColorMatrix type="matrix" values="0 0 0 0 0 0 0 0 0 0 0 0 0 0 0 0 0 0 0.15 0"/>
<feBlend mode="normal" in2="BackgroundImageFix" result="effect1_dropShadow_1079_3698"/>
<feBlend mode="normal" in="SourceGraphic" in2="effect1_dropShadow_1079_3698" result="shape"/>
</filter>
<filter id="filter2_d_1079_3698" x="94.4973" y="-9.00208" width="43.1818" height="43.1818" filterUnits="userSpaceOnUse" color-interpolation-filters="sRGB">
<feFlood flood-opacity="0" result="BackgroundImageFix"/>
<feColorMatrix in="SourceAlpha" type="matrix" values="0 0 0 0 0 0 0 0 0 0 0 0 0 0 0 0 0 0 127 0" result="hardAlpha"/>
<feOffset dy="5"/>
<feGaussianBlur stdDeviation="5"/>
<feColorMatrix type="matrix" values="0 0 0 0 0 0 0 0 0 0 0 0 0 0 0 0 0 0 0.15 0"/>
<feBlend mode="normal" in2="BackgroundImageFix" result="effect1_dropShadow_1079_3698"/>
<feBlend mode="normal" in="SourceGraphic" in2="effect1_dropShadow_1079_3698" result="shape"/>
</filter>
<linearGradient id="paint0_linear_1079_3698" x1="105" y1="0" x2="105" y2="210" gradientUnits="userSpaceOnUse">
<stop stop-color="#9B3145"/>
<stop offset="1" stop-color="#F15722"/>
</linearGradient>
<linearGradient id="paint1_linear_1079_3698" x1="105" y1="0" x2="105" y2="210" gradientUnits="userSpaceOnUse">
<stop stop-color="#219EBC"/>
<stop offset="1" stop-color="#04668B"/>
</linearGradient>
<clipPath id="clip0_1079_3698">
<rect width="148" height="85" fill="white" transform="translate(39 97)"/>
</clipPath>
</defs>
</svg>
