<svg width="97" height="36" viewBox="0 0 97 36" fill="none" xmlns="http://www.w3.org/2000/svg">
<g clip-path="url(#clip0_922_5186)">
<path d="M7.8061 29.2188C7.8061 29.9496 7.57035 30.5238 7.09884 30.9153C6.86308 31.098 6.60113 31.2546 6.28679 31.359V24.9906C6.60113 25.095 6.88928 25.2255 7.09884 25.4343C7.57035 25.8258 7.8061 26.4 7.8061 27.1308V29.2188ZM3.09101 30.9153C2.6195 30.5238 2.38374 29.9496 2.38374 29.2188V27.1308C2.38374 26.4 2.6195 25.8258 3.09101 25.4343C3.32676 25.2516 3.58871 25.095 3.90305 24.9906V31.3329C3.58871 31.2546 3.30057 31.098 3.09101 30.9153ZM7.8323 23.0331C7.36079 22.8243 6.83689 22.6677 6.2606 22.5894V21.0234H3.87686V22.5894C3.30057 22.6677 2.77667 22.8243 2.30516 23.0331C1.5455 23.3985 0.969214 23.9205 0.57629 24.6252C0.20956 25.3038 0 26.1651 0 27.1308V29.2188C0 30.2106 0.20956 31.0458 0.602484 31.7244C0.995409 32.4291 1.5717 32.9511 2.33135 33.3165C2.80286 33.5253 3.32676 33.6819 3.90305 33.7602V35.3262H6.28679V33.7602C6.86308 33.6819 7.38698 33.5253 7.85849 33.3165C8.61815 32.9511 9.19444 32.4291 9.58736 31.7244C9.98029 31.0197 10.1898 30.1845 10.1898 29.2188V27.1308C10.1898 26.139 9.98029 25.3038 9.58736 24.6252C9.19444 23.9205 8.59195 23.3985 7.8323 23.0331Z" fill="#D4021D"/>
<path d="M19.7249 26.5563C19.7249 26.7912 19.6988 27 19.6202 27.1566C19.5416 27.3393 19.4368 27.4698 19.3058 27.5481C19.1748 27.6264 18.9915 27.6786 18.8081 27.6786H17.6032V23.7375H18.8081C19.0177 23.7375 19.1748 23.7897 19.3058 23.868C19.4368 23.9724 19.5416 24.1029 19.6202 24.2856C19.6988 24.4683 19.7249 24.6771 19.7249 24.912V26.5563ZM20.6418 21.8322C20.1441 21.5973 19.5678 21.4668 18.8605 21.4668H17.6032H16.3458H15.2456V35.3259H17.6293V29.9754H18.8605C19.5416 29.9754 20.1179 29.8449 20.6156 29.61C21.1133 29.3751 21.48 29.0358 21.742 28.566C22.0039 28.1223 22.1349 27.5742 22.1349 26.9217V24.5727C22.1349 23.9202 22.0039 23.346 21.742 22.9023C21.5062 22.4325 21.1395 22.0932 20.6418 21.8322Z" fill="#D4021D"/>
<path d="M32.2459 31.9064C32.2459 32.1674 32.1935 32.3762 32.1149 32.5589C32.0363 32.7416 31.9053 32.8721 31.722 32.9765C31.5386 33.0809 31.329 33.107 31.0933 33.107C30.8575 33.107 30.648 33.0548 30.4646 32.9765C30.2812 32.8721 30.1503 32.7416 30.0717 32.5589C29.9931 32.3762 29.9407 32.1674 29.9407 31.9064V24.8594C29.9407 24.6245 29.9931 24.3896 30.0717 24.233C30.1503 24.0503 30.2812 23.9198 30.4646 23.8154C30.648 23.711 30.8313 23.6849 31.0933 23.6849C31.329 23.6849 31.5386 23.7371 31.722 23.8154C31.9053 23.9198 32.0363 24.0503 32.1149 24.233C32.1935 24.4157 32.2459 24.6245 32.2459 24.8594V31.9064ZM33.0055 21.7274C32.4816 21.4664 31.8267 21.3359 31.0933 21.3359C30.3598 21.3359 29.7049 21.4664 29.181 21.7274C28.6571 21.9884 28.238 22.3538 27.9499 22.8497C27.6617 23.3456 27.5308 23.9198 27.5308 24.6245V32.2457C27.5308 32.9243 27.6617 33.5246 27.9499 33.9944C28.238 34.4903 28.631 34.8557 29.181 35.1167C29.7049 35.3777 30.3598 35.5082 31.0933 35.5082C31.8267 35.5082 32.4816 35.3777 33.0055 35.1167C33.5294 34.8557 33.9485 34.4903 34.2367 33.9944C34.5248 33.4985 34.6558 32.9243 34.6558 32.2457V24.5984C34.6558 23.9198 34.5248 23.3195 34.2367 22.8236C33.9485 22.3538 33.5294 21.9623 33.0055 21.7274Z" fill="#D4021D"/>
<path d="M44.3217 27.3915H42.4357V21.4668H40.0781V35.352H42.4357V29.61H44.3217V35.352H46.6793V21.4668H44.3217V27.3915Z" fill="#D4021D"/>
<path d="M52.128 23.7375H54.407V35.352H56.7907V23.7375H59.0959V21.4668H52.128V23.7375Z" fill="#D4021D"/>
<path d="M2.38374 11.5494H4.24359V17.2653H6.62733V3.40625H4.24359V9.33093H2.38374V3.40625H0V17.2653H2.38374V11.5494Z" fill="#D4021D"/>
<path d="M15.5338 8.18254L16.4768 12.9066H14.617L15.5338 8.18254ZM16.896 15.1251L17.3151 17.2914H19.6726L16.3721 3.40625H14.6956L11.395 17.2653H13.7526L14.1717 15.099H16.896V15.1251Z" fill="#D4021D"/>
<path d="M28.2118 5.67694C28.4213 5.67694 28.5785 5.72914 28.7095 5.80744C28.8404 5.91184 28.9452 6.04234 29.0238 6.22504C29.1024 6.40774 29.1286 6.61654 29.1286 6.85144V8.46964C29.1286 8.70453 29.1024 8.91333 29.0238 9.06993C28.9452 9.25263 28.8404 9.38313 28.7095 9.46143C28.5785 9.53973 28.3951 9.59193 28.2118 9.59193H27.0068V5.67694H28.2118ZM28.2641 11.8887C28.9452 11.8887 29.5215 11.7582 30.0192 11.5233C30.5169 11.2884 30.8836 10.9491 31.1456 10.4793C31.4075 10.0356 31.5385 9.48753 31.5385 8.83503V6.51214C31.5385 5.85964 31.4075 5.28544 31.1456 4.84175C30.8836 4.37195 30.5169 4.03265 30.0192 3.77165C29.5215 3.53675 28.9452 3.40625 28.238 3.40625H26.9806H25.7232H24.623V17.2653H27.0068V11.8887H28.2641Z" fill="#D4021D"/>
<path d="M39.476 14.4971C39.3974 14.3144 39.345 14.1056 39.345 13.8446V6.79764C39.345 6.53664 39.3974 6.32784 39.476 6.17124C39.5546 5.98854 39.6855 5.85804 39.8689 5.75364C40.0523 5.64924 40.2356 5.62314 40.4976 5.62314C40.7333 5.62314 40.9429 5.67534 41.1263 5.75364C41.3096 5.85804 41.4406 5.98854 41.5192 6.17124C41.5978 6.35394 41.6502 6.56274 41.6502 6.79764V13.8446C41.6502 14.1056 41.5978 14.3144 41.5192 14.4971C41.4406 14.6798 41.3096 14.8103 41.1263 14.9147C40.9429 15.0191 40.7333 15.0452 40.4976 15.0452C40.2618 15.0452 40.0523 14.993 39.8689 14.9147C39.6855 14.8103 39.5546 14.6798 39.476 14.4971ZM42.4098 17.0288C42.9337 16.7678 43.3528 16.4024 43.641 15.9065C43.9291 15.4106 44.0601 14.8364 44.0601 14.1578V6.53664C44.0601 5.85804 43.9291 5.25774 43.641 4.76184C43.3528 4.26594 42.9599 3.90055 42.4098 3.63955C41.8859 3.37855 41.231 3.24805 40.4976 3.24805C39.7641 3.24805 39.1092 3.37855 38.5853 3.63955C38.0614 3.90055 37.6423 4.26594 37.3542 4.76184C37.066 5.25774 36.9351 5.83194 36.9351 6.53664V14.1578C36.9351 14.8364 37.066 15.4367 37.3542 15.9065C37.6423 16.4024 38.0352 16.7678 38.5853 17.0288C39.1092 17.2898 39.7641 17.4203 40.4976 17.4203C41.231 17.4203 41.8859 17.2898 42.4098 17.0288Z" fill="#D4021D"/>
<path d="M54.0666 5.67694V14.9946H51.9186C52.0234 14.7597 52.1281 14.5248 52.1805 14.2638C52.3901 13.5069 52.4687 12.6195 52.4687 11.5755V5.67694H54.0666ZM54.0666 17.2653H55.3763V19.0401H57.5505V14.9946H56.8432H56.4241V3.40625H55.193H54.0666H52.4687H51.9972H50.2945V12.1758C50.2945 13.1154 50.1897 13.8201 50.0064 14.2899C49.823 14.7597 49.5348 14.9946 49.1419 14.9946H48.9324H48.6704V17.2653V19.0401H50.8446V17.2653H54.0666Z" fill="#D4021D"/>
<path d="M66.9804 9.33093H65.1206V3.40625H62.7368V17.2653H65.1206V11.5494H66.9804V17.2653H69.3641V3.40625H66.9804V9.33093Z" fill="#D4021D"/>
<path d="M84.5312 3.40625H82.1475V17.2653H84.5312V3.40625Z" fill="#D4021D"/>
<path d="M79.1873 13.6113C79.1873 13.8984 79.1349 14.1594 79.0563 14.3682C78.9515 14.577 78.8206 14.7336 78.6372 14.838C78.4538 14.9424 78.2443 14.9946 78.0085 14.9946H77.3536V11.0535H78.0085C78.2443 11.0535 78.4538 11.1057 78.6372 11.2362C78.8206 11.3406 78.9515 11.5233 79.0563 11.7321C79.1611 11.9409 79.1873 12.2019 79.1873 12.5151V13.6113ZM80.1303 9.14823C79.6588 8.88723 79.1087 8.78283 78.4538 8.78283H77.3798V3.40625H74.9961V17.2653H76.2011H77.3536H78.4276C79.0825 17.2653 79.6326 17.1348 80.1041 16.8999C80.5756 16.665 80.9424 16.2996 81.1781 15.8298C81.4139 15.36 81.5448 14.8119 81.5448 14.1594V11.967C81.5448 11.2884 81.4139 10.7403 81.1781 10.2444C80.9424 9.77463 80.5756 9.40923 80.1303 9.14823Z" fill="#D4021D"/>
<path d="M95.114 3.40625L92.1278 11.9931V3.40625H89.9536V17.2653H91.8659L94.8521 8.70453V17.2653H97.0001V3.40625H95.114Z" fill="#D4021D"/>
<path d="M94.7473 0.482422H92.5469V2.67482H94.7473V0.482422Z" fill="#D4021D"/>
</g>
<defs>
<clipPath id="clip0_922_5186">
<rect width="97" height="35" fill="white" transform="translate(0 0.482422)"/>
</clipPath>
</defs>
</svg>
