<svg width="151" height="47" viewBox="0 0 151 47" fill="none" xmlns="http://www.w3.org/2000/svg">
<path d="M35.8948 38.4204L31.6632 31.3872L27.5192 38.4204H22.5581L28.9346 27.8269L22.4268 17.9922H27.6068L31.7654 24.5584L35.7343 17.9922H40.6954L34.3043 28.1479L40.8705 38.4204H35.8948Z" fill="black"/>
<path d="M57.009 31.4748C57.009 35.969 53.6237 38.7706 49.1879 38.7706C45.2773 38.7706 41.9796 36.611 41.6586 31.9125H45.8902C46.182 33.9554 47.8163 34.8309 49.5964 34.8309C51.8144 34.8309 52.7774 33.3425 52.7774 31.4164C52.7774 29.4028 51.2891 28.1479 49.2171 28.1479C47.4953 28.1479 46.3571 28.965 45.8318 29.8405H41.79L43.1907 17.9922H56.4983L56.0605 21.9611H46.5468L46.1674 25.8862C46.1674 25.8862 47.1742 24.7043 50.1947 24.7043C53.828 24.7043 57.009 27.1557 57.009 31.4748Z" fill="black"/>
<path d="M42.1696 15.4388C39.9079 6.65466 32.7581 0.482422 17.9184 0.482422H0L2.43679 16.9271C4.26074 31.7667 9.93686 36.5382 19.9905 38.3038C20.0342 38.3038 20.3552 38.3621 20.3552 37.9828C20.3552 37.8514 20.2677 37.7347 20.151 37.6909C13.3659 34.831 12.5925 25.4632 11.1334 16.0516L10.0098 8.55156H20.2385C29.6647 8.55156 36.9459 8.40564 41.5568 15.6868C41.6297 15.789 41.7319 15.8619 41.8632 15.8619C42.0383 15.8619 42.1696 15.716 42.1696 15.5409C42.1842 15.4971 42.1696 15.468 42.1696 15.4388Z" fill="#5FAF2D"/>
<path d="M81.3619 27.7676C81.3619 27.7676 82.4271 39.1345 70.9436 39.1345C64.8881 39.1345 60.2188 34.4944 60.2188 28.1908C60.2188 21.8872 64.9172 17.2617 71.1332 17.2617C75.9193 17.2617 79.7423 20.0195 81.1868 24.2657H78.4874C77.2179 21.4787 74.4601 19.6547 71.0895 19.6547C66.3034 19.6547 62.7577 23.288 62.7577 28.2638C62.7577 33.079 66.1137 36.7998 71.0895 36.7998C75.2627 36.7998 78.4582 34.1296 78.823 29.9272H70.6663V27.7822L81.3619 27.7676Z" fill="black"/>
<path d="M94.2753 21.8708V24.4389C93.9981 24.4097 93.6333 24.3805 93.2101 24.3805C89.7227 24.3805 87.3005 26.6568 87.3005 30.9321V38.8116H84.7908V22.1334H87.3005V25.8688C88.2927 23.3883 90.3064 21.8124 93.2393 21.8124C93.6333 21.7978 94.0272 21.827 94.2753 21.8708Z" fill="black"/>
<path d="M112.676 30.4662C112.676 35.4711 108.882 39.1336 104.067 39.1336C99.2806 39.1336 95.4868 35.4419 95.4868 30.4662C95.4868 25.4613 99.3389 21.7988 104.067 21.7988C108.823 21.7988 112.676 25.4759 112.676 30.4662ZM98.0403 30.4662C98.0403 34.1287 100.711 36.7406 104.067 36.7406C107.466 36.7406 110.122 34.1287 110.122 30.4662C110.122 26.8037 107.423 24.1918 104.067 24.1918C100.74 24.1918 98.0403 26.7746 98.0403 30.4662Z" fill="black"/>
<path d="M130.054 22.1367V38.8003H127.544V35.5026C126.421 37.6913 124.48 39.1359 121.606 39.1359C117.914 39.1359 115.696 36.7721 115.696 32.7156V22.1367H118.206V32.2195C118.206 35.1962 119.607 36.7283 122.321 36.7283C125.618 36.7283 127.53 34.3645 127.53 30.6728V22.1367H130.054Z" fill="black"/>
<path d="M150.497 30.4662C150.497 35.5003 147.228 39.1336 142.676 39.1336C139.801 39.1336 137.554 37.6745 136.285 35.4419V46.371H133.775V22.1344H136.285V25.5635C137.554 23.2872 139.83 21.7988 142.705 21.7988C147.214 21.7988 150.497 25.4029 150.497 30.4662ZM147.943 30.4662C147.943 26.8329 145.58 24.1918 142.224 24.1918C138.824 24.1918 136.256 26.8037 136.256 30.4662C136.256 34.1287 138.838 36.7406 142.224 36.7406C145.58 36.7406 147.943 34.1287 147.943 30.4662Z" fill="black"/>
</svg>
