<svg width="32" height="32" viewBox="0 0 32 32" fill="none" xmlns="http://www.w3.org/2000/svg">
<path d="M0 16C0 7.16344 7.16344 0 16 0C24.8366 0 32 7.16344 32 16C32 24.8366 24.8366 32 16 32C7.16344 32 0 24.8366 0 16Z" fill="white"/>
<path d="M17.7306 19.6269L20.1217 21.9352C20.6116 22.4071 20.6116 23.1734 20.1217 23.6457C19.6324 24.1181 18.8393 24.1181 18.3505 23.6457L15.9995 21.3774L13.6507 23.6457C13.4057 23.8817 13.0848 23.9998 12.7639 23.9998C12.4435 23.9998 12.123 23.8817 11.8781 23.6457C11.3888 23.1734 11.3888 22.4076 11.8776 21.9352L14.269 19.6269C13.3983 19.4354 12.5586 19.1024 11.7852 18.634C11.1999 18.2778 11.0241 17.5315 11.3929 16.966C11.7606 16.3998 12.5341 16.2293 13.1204 16.5855C14.8714 17.6488 17.1272 17.649 18.8792 16.5855C19.4655 16.2293 20.2387 16.3998 20.6072 16.966C20.976 17.531 20.7997 18.2778 20.2144 18.634C19.441 19.1029 18.6013 19.4354 17.7306 19.6269Z" fill="#34668B"/>
<path fill-rule="evenodd" clip-rule="evenodd" d="M11.7119 12.1291C11.7119 14.4053 13.6303 16.2569 15.9891 16.2569C18.3485 16.2569 20.2664 14.4053 20.2664 12.1291C20.2664 9.85207 18.3485 8 15.9891 8C13.6303 8 11.7119 9.85207 11.7119 12.1291ZM17.7601 12.1291C17.7601 11.1864 16.9658 10.4198 15.9891 10.4198C15.0133 10.4198 14.2181 11.1864 14.2181 12.1291C14.2181 13.071 15.0133 13.8381 15.9891 13.8381C16.9658 13.8381 17.7601 13.071 17.7601 12.1291Z" fill="#34668B"/>
</svg>
